<svg width="31" height="45" viewBox="0 0 31 45" fill="none" xmlns="http://www.w3.org/2000/svg">
<path d="M15.5 44.4176C6.81335 44.4176 0 40.324 0 34.9614C0 31.3182 3.27826 28.0706 8.55068 26.4878C8.92756 26.4351 9.31292 26.5045 9.63864 26.6836C9.96435 26.8628 10.2094 27.1402 10.3306 27.4668C10.4517 27.7935 10.4411 28.1482 10.3006 28.4685C10.1601 28.7887 9.89882 29.0538 9.56287 29.2168C5.71053 30.363 3.21784 32.6145 3.21784 34.9205C3.21784 38.4683 8.83772 41.4702 15.5 41.4702C22.1623 41.4702 27.7822 38.4683 27.7822 34.9205C27.7822 32.6008 25.2895 30.363 21.4371 29.2168C21.1012 29.0538 20.8399 28.7887 20.6994 28.4685C20.5589 28.1482 20.5483 27.7935 20.6694 27.4668C20.7906 27.1402 21.0356 26.8628 21.3614 26.6836C21.6871 26.5045 22.0724 26.4351 22.4493 26.4878C27.7217 28.0706 31 31.3045 31 34.9614C31 40.324 24.1866 44.4176 15.5 44.4176Z" fill="#454545"/>
<path d="M15.4999 0.75285C12.8583 0.745881 10.3114 1.64113 8.36996 3.25908C6.42849 4.87704 5.23594 7.09809 5.03144 9.4769C4.82694 11.8557 5.6256 14.2164 7.26728 16.0857C8.90896 17.9549 11.2723 19.1945 13.8834 19.556V34.2382C13.9222 34.5994 14.1085 34.9345 14.4059 35.1783C14.7033 35.4222 15.0906 35.5573 15.4923 35.5573C15.894 35.5573 16.2813 35.4222 16.5788 35.1783C16.8762 34.9345 17.0625 34.5994 17.1013 34.2382V18.2187C17.1013 17.8339 16.933 17.4645 16.6332 17.1911C16.3333 16.9177 15.926 16.7623 15.4999 16.7587C13.7567 16.7343 12.0816 16.1434 10.7815 15.0944C9.4813 14.0453 8.64307 12.6083 8.42034 11.0466C8.1976 9.48481 8.60526 7.90284 9.56865 6.59044C10.532 5.27803 11.9867 4.32304 13.6661 3.9004C15.3455 3.47775 17.1373 3.61575 18.7132 4.2891C20.2892 4.96245 21.5438 6.12608 22.2473 7.56686C22.9507 9.00764 23.056 10.6291 22.5437 12.1343C22.0315 13.6394 20.936 14.9275 19.458 15.7626C19.2614 15.8582 19.0889 15.9896 18.9513 16.1485C18.8138 16.3073 18.7141 16.4902 18.6587 16.6856C18.6033 16.881 18.5933 17.0846 18.6293 17.2836C18.6653 17.4826 18.7466 17.6728 18.8681 17.842C18.9895 18.0113 19.1484 18.156 19.3348 18.267C19.5213 18.378 19.7311 18.4529 19.9512 18.487C20.1713 18.5211 20.3968 18.5137 20.6135 18.4652C20.8302 18.4166 21.0335 18.3281 21.2104 18.2051C23.1385 17.106 24.6166 15.4686 25.4202 13.5415C26.2238 11.6144 26.309 9.50305 25.6629 7.52824C25.0167 5.55342 23.6744 3.82311 21.8401 2.6002C20.0058 1.3773 17.7796 0.728664 15.4999 0.75285Z" fill="#454545"/>
</svg>
