<svg width="76" height="75" viewBox="0 0 76 75" fill="none" xmlns="http://www.w3.org/2000/svg">
<path d="M30.1095 48.4179L32.8996 50.0454V70.971C32.8996 71.2035 33.0159 71.3198 33.2484 71.436C41.3861 76.0862 32.5509 71.0873 39.1773 74.9236C39.2936 75.0399 39.6423 75.0399 39.8748 74.8074L50.1051 61.5545L60.2192 63.0658C60.5679 63.0658 60.9167 62.8333 60.9167 62.4845V40.7451C66.2644 33.5374 69.4032 24.9347 69.4032 17.4944C69.4032 11.5655 67.3106 7.14789 63.7068 4.93907C63.7068 4.93907 63.7068 4.93907 63.5905 4.93907L57.6616 1.45147C53.1277 -1.22236 47.7801 0.172681 43.4787 2.614C32.8996 8.77544 24.2969 23.6559 24.2969 35.8625C24.2969 40.7451 25.8082 45.9765 30.1095 48.4179ZM36.0385 51.9055C36.5035 52.138 37.201 52.603 38.8286 52.9517V69.4597L34.0622 66.6696V50.7429L36.0385 51.9055ZM49.8726 60.2757C49.6401 60.2757 49.4076 60.2757 49.2914 60.5082L39.9911 72.7148V53.1842C43.3624 53.533 46.7338 52.4867 49.6401 50.8592C53.4765 48.7666 57.0803 45.5115 59.7542 42.1402V61.6707L49.8726 60.2757ZM68.1244 17.3782C68.1244 29.236 59.7542 43.6515 49.5239 49.5804C39.4098 55.3931 31.3883 50.8592 31.3883 39.2338C31.3883 28.1898 38.7123 14.8206 48.0126 8.31042C58.8241 0.870201 68.1244 4.93907 68.1244 17.3782ZM44.06 3.66028C44.8737 3.19527 45.8038 2.73026 46.7338 2.3815L51.3839 5.05533C49.8726 5.75285 48.5938 6.56662 47.4313 7.38039C37.7823 14.1231 30.2258 27.9573 30.2258 39.3501C30.2258 39.8151 30.3421 41.3264 30.4583 42.3727L25.8082 39.6989C25.5757 38.5363 25.4594 37.2575 25.4594 35.9787C25.4594 24.0046 33.7134 9.58921 44.06 3.66028Z" fill="#F3FAFD"/>
<path d="M49.5239 14.4719C42.8975 18.3082 37.5498 27.4922 37.5498 35.165C37.5498 43.0702 43.2462 46.0928 49.9889 42.2564C56.6154 38.4201 61.963 29.236 61.963 21.5633C61.963 13.7743 56.2666 10.5192 49.5239 14.4719ZM49.5239 41.4427C43.3625 45.0465 38.3636 42.2564 38.3636 35.0487C38.3636 27.7248 43.4787 18.7732 49.8727 15.1694C56.0341 11.5655 61.033 14.3556 61.033 21.5633C61.033 28.8873 55.9178 37.8388 49.5239 41.4427Z" fill="#F3FAFD"/>
<path d="M52.3143 31.0962L50.6867 32.0262V21.4472C50.6867 20.8659 50.3379 20.7496 49.8729 20.9821L49.5242 21.2147C49.4079 21.3309 49.1754 21.4472 49.0592 21.5634L46.8503 24.121C46.5016 24.586 46.2691 25.3998 46.6178 25.6323C46.9666 25.7485 47.3154 25.516 47.5479 25.2835L49.1754 23.4235V32.9562L47.1991 34.1188C46.8503 34.3513 46.5016 34.9326 46.5016 35.2813C46.5016 35.7463 46.7341 35.8626 47.1991 35.6301L52.198 32.7237C52.5468 32.4912 52.8955 32.0262 52.8955 31.5612C53.0118 31.0962 52.7793 30.8637 52.3143 31.0962Z" fill="#F3FAFD"/>
<path d="M14.4154 5.52028L10.9278 7.49658V2.73019C10.9278 2.38143 10.5791 2.14893 10.2303 2.38143L0.116253 8.19411C2.59847e-08 8.31036 0 8.42661 0 8.54287V22.377C0 22.7258 0.34876 22.9583 0.697521 22.7258L6.16143 19.5869V21.5632C6.16143 21.912 6.51019 22.1445 6.85895 21.912L14.8804 17.2619C14.9967 17.1456 15.1129 17.0294 15.1129 16.9131V5.86904C14.9967 5.52028 14.6479 5.28777 14.4154 5.52028ZM6.39394 10.1704C6.27769 10.2867 6.16143 10.4029 6.16143 10.5192V12.8442L3.72011 14.2393V20.052L0.813774 21.6795V8.89162L9.9978 3.54397V8.07785L6.39394 10.1704ZM7.09146 20.7495V10.7517L14.1829 6.56656V16.5644L7.09146 20.7495Z" fill="#F3FAFD"/>
<path d="M28.8304 2.03283C28.5979 2.14908 28.4816 2.49784 28.5979 2.8466C28.7141 3.19536 29.1791 3.19536 29.4116 3.07911C29.6441 2.96286 29.7604 2.6141 29.6441 2.26534C29.4116 1.91658 29.0629 1.80032 28.8304 2.03283Z" fill="#F3FAFD"/>
<path d="M22.437 7.03183C22.6695 6.91558 22.7858 6.56682 22.6695 6.21805C22.5533 5.98555 22.2045 5.86929 21.8557 5.98555C21.6232 6.1018 21.507 6.45056 21.6232 6.79932C21.7395 7.03183 22.2045 7.14808 22.437 7.03183Z" fill="#F3FAFD"/>
<path d="M27.087 4.35776C27.3195 4.12525 27.4357 3.77649 27.2032 3.54398C27.087 3.31148 26.7382 3.19522 26.3894 3.31148C26.1569 3.42773 26.0407 3.77649 26.1569 4.12525C26.3894 4.35776 26.7382 4.47401 27.087 4.35776Z" fill="#F3FAFD"/>
<path d="M20.1118 8.31064C20.3443 8.19438 20.4606 7.84562 20.3443 7.49686C20.2281 7.26436 19.7631 7.1481 19.5306 7.26436C19.298 7.38061 19.1818 7.72937 19.298 8.07813C19.5306 8.42689 19.8793 8.54314 20.1118 8.31064Z" fill="#F3FAFD"/>
<path d="M29.6443 3.66016C29.2955 3.66016 29.063 3.89266 29.063 4.24142C29.063 4.59018 29.2955 4.82269 29.6443 4.82269C29.993 4.82269 30.2255 4.59018 30.2255 4.24142C30.2255 3.89266 29.8768 3.66016 29.6443 3.66016Z" fill="#F3FAFD"/>
<path d="M29.6443 6.33423C29.2955 6.33423 29.063 6.56674 29.063 6.9155C29.063 7.26426 29.2955 7.49676 29.6443 7.49676C29.993 7.49676 30.2255 7.26426 30.2255 6.9155C30.2255 6.56674 29.8768 6.33423 29.6443 6.33423Z" fill="#F3FAFD"/>
<path d="M17.7866 9.70566C18.0191 9.5894 18.1354 9.24064 18.0191 8.89188C17.9029 8.65938 17.5541 8.54312 17.2054 8.65938C16.9729 8.77563 16.8566 9.12439 16.9729 9.47315C17.0891 9.70566 17.5541 9.82191 17.7866 9.70566Z" fill="#F3FAFD"/>
<path d="M29.6443 9.00806C29.2955 9.00806 29.063 9.24056 29.063 9.58932C29.063 9.93808 29.2955 10.1706 29.6443 10.1706C29.993 10.1706 30.2255 9.93808 30.2255 9.58932C30.2255 9.24056 29.8768 9.00806 29.6443 9.00806Z" fill="#F3FAFD"/>
<path d="M24.1805 4.70666C23.9479 4.82291 23.8317 5.17167 23.948 5.52043C24.0642 5.75294 24.5292 5.86919 24.7617 5.75294C24.9942 5.63668 25.1105 5.28792 24.9942 4.93916C24.7617 4.5904 24.413 4.47415 24.1805 4.70666Z" fill="#F3FAFD"/>
<path d="M71.961 48.7668C73.9373 47.6042 75.4486 45.0466 75.3324 42.8378C75.3324 40.3965 73.356 39.3502 71.2635 40.5128C69.2872 41.6753 67.7759 44.3491 67.7759 46.4417C67.8921 48.883 69.7522 50.0455 71.961 48.7668ZM69.0547 46.4417C69.0547 44.6979 70.3335 42.3728 71.961 41.4428C73.2398 40.629 74.2861 41.2103 74.2861 42.7216C74.2861 44.5816 73.0073 46.7905 71.496 47.6042C69.9847 48.5343 69.0547 48.0692 69.0547 46.4417Z" fill="#F3FAFD"/>
<path d="M63.1258 48.8829C62.8933 48.9992 62.777 49.4642 62.8933 49.6967C63.0095 49.9292 63.3583 50.0455 63.707 49.9292C63.9395 49.813 64.0558 49.3479 63.9395 49.1154C63.707 48.7667 63.3583 48.6504 63.1258 48.8829Z" fill="#F3FAFD"/>
<path d="M65.7994 47.9529C65.6832 47.7204 65.3344 47.6042 64.9856 47.7204C64.7531 47.8367 64.6369 48.1854 64.7531 48.5342C64.8694 48.7667 65.2181 48.8829 65.5669 48.7667C65.9157 48.5342 65.9157 48.1854 65.7994 47.9529Z" fill="#F3FAFD"/>
</svg>
