<svg width="54" height="69" viewBox="0 0 54 69" fill="none" xmlns="http://www.w3.org/2000/svg">
<path d="M5.63349 29.8765C5.31463 29.8765 5.10205 30.089 5.10205 30.4079C5.10205 30.7268 5.31463 30.9393 5.63349 30.9393C5.95235 30.9393 6.16493 30.7268 6.16493 30.4079C6.16493 30.089 5.95235 29.8765 5.63349 29.8765Z" fill="#F3FAFD"/>
<path d="M5.63349 28.4948C5.927 28.4948 6.16493 28.2568 6.16493 27.9633C6.16493 27.6698 5.927 27.4319 5.63349 27.4319C5.33998 27.4319 5.10205 27.6698 5.10205 27.9633C5.10205 28.2568 5.33998 28.4948 5.63349 28.4948Z" fill="#F3FAFD"/>
<path d="M5.63349 48.0516C5.927 48.0516 6.16493 47.8137 6.16493 47.5202C6.16493 47.2267 5.927 46.9888 5.63349 46.9888C5.33998 46.9888 5.10205 47.2267 5.10205 47.5202C5.10205 47.8137 5.33998 48.0516 5.63349 48.0516Z" fill="#F3FAFD"/>
<path d="M5.63349 45.6071C5.95235 45.6071 6.16493 45.3945 6.16493 45.0756C6.16493 44.7568 5.95235 44.5442 5.63349 44.5442C5.31463 44.5442 5.10205 44.7568 5.10205 45.0756C5.10205 45.3945 5.31463 45.6071 5.63349 45.6071Z" fill="#F3FAFD"/>
<path d="M5.63349 33.3839C5.927 33.3839 6.16493 33.146 6.16493 32.8525C6.16493 32.559 5.927 32.321 5.63349 32.321C5.33998 32.321 5.10205 32.559 5.10205 32.8525C5.10205 33.146 5.33998 33.3839 5.63349 33.3839Z" fill="#F3FAFD"/>
<path d="M5.63349 26.0499C5.95235 26.0499 6.16493 25.8374 6.16493 25.5185C6.16493 25.1996 5.95235 24.9871 5.63349 24.9871C5.31463 24.9871 5.10205 25.1996 5.10205 25.5185C5.10205 25.8374 5.31463 26.0499 5.63349 26.0499Z" fill="#F3FAFD"/>
<path d="M5.63349 35.8287C5.95235 35.8287 6.16493 35.6162 6.16493 35.2973C6.16493 34.9784 5.95235 34.7659 5.63349 34.7659C5.31463 34.7659 5.10205 34.9784 5.10205 35.2973C5.10205 35.6162 5.31463 35.8287 5.63349 35.8287Z" fill="#F3FAFD"/>
<path d="M12.4354 44.6506C12.2229 44.7569 12.1166 45.182 12.2228 45.3946C12.3291 45.6072 12.5417 45.7135 12.648 45.7135C12.7543 45.7135 12.8606 45.7135 12.9669 45.6072C13.1794 45.5009 13.2857 45.182 13.1794 44.8632C12.9669 44.6506 12.648 44.5443 12.4354 44.6506Z" fill="#F3FAFD"/>
<path d="M8.18445 47.0949C7.97187 47.2012 7.86559 47.5201 7.97187 47.8389C8.07816 48.0515 8.29074 48.1578 8.39702 48.1578C8.50331 48.1578 8.6096 48.1578 8.71589 48.0515C8.92846 47.9452 9.03475 47.6264 8.92846 47.3075C8.71589 47.0949 8.39703 46.9886 8.18445 47.0949Z" fill="#F3FAFD"/>
<path d="M5.63349 40.7177C5.95235 40.7177 6.16493 40.5051 6.16493 40.1862C6.16493 39.8674 5.95235 39.6548 5.63349 39.6548C5.31463 39.6548 5.10205 39.8674 5.10205 40.1862C5.10205 40.5051 5.31463 40.7177 5.63349 40.7177Z" fill="#F3FAFD"/>
<path d="M5.63349 23.6054C5.95235 23.6054 6.16493 23.3928 6.16493 23.0739C6.16493 22.7551 5.95235 22.5425 5.63349 22.5425C5.31463 22.5425 5.10205 22.7551 5.10205 23.0739C5.10205 23.3928 5.31463 23.6054 5.63349 23.6054Z" fill="#F3FAFD"/>
<path d="M10.3094 45.926C10.0969 46.0323 9.99059 46.4575 10.0969 46.67C10.2032 46.8826 10.4157 46.9889 10.522 46.9889C10.6283 46.9889 10.7346 46.9889 10.8409 46.8826C11.0535 46.7763 11.1598 46.4575 11.0535 46.1386C10.8409 45.8197 10.522 45.7134 10.3094 45.926Z" fill="#F3FAFD"/>
<path d="M5.10205 20.6296C5.10205 20.9484 5.31463 21.161 5.63349 21.161C5.95235 21.161 6.16493 20.9484 6.16493 20.6296C6.16493 20.3107 5.95235 20.0981 5.63349 20.0981C5.31463 20.0981 5.10205 20.3107 5.10205 20.6296Z" fill="#F3FAFD"/>
<path d="M5.10205 37.7419C5.10205 38.0608 5.31463 38.2733 5.63349 38.2733C5.95235 38.2733 6.16493 38.0608 6.16493 37.7419C6.16493 37.423 5.95235 37.2104 5.63349 37.2104C5.31463 37.2104 5.10205 37.423 5.10205 37.7419Z" fill="#F3FAFD"/>
<path d="M6.37749 49.327C6.48378 49.327 6.59007 49.327 6.69636 49.2207C6.90893 49.1144 7.01522 48.7955 6.90893 48.4767C6.80264 48.2641 6.48378 48.1578 6.16492 48.2641C5.95234 48.3704 5.84605 48.6893 5.95234 49.0081C5.95234 49.2207 6.16492 49.327 6.37749 49.327Z" fill="#F3FAFD"/>
<path d="M5.63349 42.0994C5.31463 42.0994 5.10205 42.3119 5.10205 42.6308C5.10205 42.9497 5.31463 43.1622 5.63349 43.1622C5.95235 43.1622 6.16493 42.9497 6.16493 42.6308C6.16493 42.3119 5.95235 42.0994 5.63349 42.0994Z" fill="#F3FAFD"/>
<path d="M46.8726 0.22216C12.7542 19.8854 14.8799 18.61 14.7737 18.7162C14.1359 19.1414 13.6045 19.9917 13.6045 20.7357L13.7108 65.164C13.7108 65.8018 14.0296 66.1206 14.2422 66.2269C14.7737 66.5458 19.0252 68.9904 18.7063 68.8841C19.1315 69.0967 19.5566 68.9904 19.8755 68.7778L51.9744 50.2837C52.7184 49.8586 53.1436 49.0083 53.1436 48.158V3.83595C53.1436 3.30451 52.931 2.98564 52.6121 2.77307L48.148 0.115872C47.7229 -0.0967039 47.2977 0.00958398 46.8726 0.22216ZM18.0686 29.6639L18.1749 63.5697L14.7737 61.5503L14.6674 27.6444L18.0686 29.6639ZM19.1315 28.4947V23.4992C19.1315 23.1803 19.4503 22.5426 19.7692 22.33C62.0718 -2.11617 48.4669 5.74913 51.8681 3.72966C51.9744 3.62337 51.9744 3.72966 52.0807 3.83595V9.57549L19.1315 28.4947ZM42.0896 4.15481L45.4909 6.17428C42.8337 7.66231 55.163 0.647311 19.5566 21.1609L16.1554 19.1414L42.0896 4.15481ZM51.443 49.4334L19.344 67.9275C19.2378 67.9275 19.2378 67.9275 19.2378 68.0338C19.2378 67.9275 19.2377 69.5219 19.1315 29.6639L52.0807 10.7447V48.2643C52.0807 48.6894 51.7618 49.2209 51.443 49.4334Z" fill="#F3FAFD"/>
<path d="M24.4458 21.7985C24.0207 22.011 23.8081 22.5425 23.8081 22.9676C23.8081 23.4991 24.2333 23.7117 24.6584 23.4991C25.0836 23.2865 25.2961 22.7551 25.2961 22.3299C25.2961 21.6922 24.7647 21.5859 24.4458 21.7985Z" fill="#F3FAFD"/>
<path d="M21.5767 23.4994C21.1515 23.712 20.939 24.2434 20.939 24.6686C20.939 25.2 21.3641 25.4126 21.7893 25.2C22.2144 24.9874 22.427 24.456 22.427 24.0308C22.3207 23.3931 21.8956 23.2868 21.5767 23.4994Z" fill="#F3FAFD"/>
<path d="M27.316 20.0978C26.8908 20.3104 26.6782 20.8418 26.6782 21.267C26.6782 21.6921 26.9971 22.011 27.5285 21.7984C27.9537 21.5858 28.1663 21.0544 28.1663 20.6293C28.1663 20.0978 27.7411 19.8852 27.316 20.0978Z" fill="#F3FAFD"/>
<path d="M46.4477 41.4617V35.7222C46.554 35.4033 46.1288 35.0844 45.9162 35.297L40.7081 38.3794V36.9976C40.7081 36.041 39.9641 35.6159 39.1138 36.1473L36.0315 37.9542V33.065L40.3893 30.6203C41.027 30.1952 41.6647 29.2386 41.6647 28.4946V23.3928C41.6647 22.6488 41.1333 22.3299 40.3893 22.6488L30.8234 27.8569C30.0793 28.282 29.5479 29.2386 29.5479 29.9826V35.0844C29.5479 35.8285 30.0793 36.1473 30.8234 35.8285L35.0749 33.3838V38.2731L31.5674 40.2925C30.9296 40.7177 30.3982 41.568 30.3982 42.312V44.1189C30.2919 44.2252 24.4461 47.5201 24.8712 47.3075C24.765 47.4138 24.6587 47.5201 24.6587 47.6264V53.6848H24.5524C23.1706 54.5351 22.0015 56.4483 22.0015 58.0426C22.0015 60.1684 23.8084 61.125 25.6153 60.0621C27.1033 59.2118 28.1662 57.4049 28.1662 55.7043C28.0599 54.11 27.2096 53.0471 25.509 53.366V47.839L30.5045 44.9692V46.2447C30.5045 47.2013 31.2485 47.6264 32.0988 47.095L39.4327 42.8435C40.0704 42.4183 40.6018 41.568 40.6018 40.824V39.1234L45.5974 36.2536V41.6743C45.5974 41.6743 45.4911 41.6743 45.4911 41.7806C44.1093 42.6309 42.9402 44.5441 42.9402 46.1384C42.9402 48.2641 44.7471 49.2207 46.554 48.1578C48.042 47.3075 49.1049 45.5007 49.1049 43.8C48.9986 42.2057 48.1483 41.1428 46.4477 41.4617ZM27.4221 55.9169C27.4221 57.2986 26.4656 58.8929 25.2964 59.6369C24.0209 60.381 22.8518 59.7432 22.8518 58.2552C22.8518 56.9797 23.8084 55.2791 25.0838 54.5351C26.1467 53.7911 27.3159 54.3225 27.4221 55.9169ZM39.0075 42.312L31.6737 46.5635C31.4611 46.6698 31.2485 46.6698 31.2485 46.351V42.312C31.2485 41.8869 31.5674 41.2491 31.9925 40.9303L39.3264 36.6788C39.539 36.5725 39.7515 36.5725 39.7515 36.8913V40.9303C39.8578 41.4617 39.4327 42.0994 39.0075 42.312ZM46.2351 47.5201C44.8534 48.3704 43.7905 47.5201 43.7905 46.1384C43.7905 44.8629 44.7471 43.1623 46.0225 42.4183C47.0854 41.6743 48.2546 42.2057 48.3609 43.8C48.3609 45.1818 47.4043 46.7761 46.2351 47.5201Z" fill="#F3FAFD"/>
<path d="M49.6366 20.5232C49.424 20.5232 49.2114 20.7358 49.2114 20.9483V21.9049C49.2114 22.1175 49.424 22.3301 49.6366 22.3301C49.8492 22.3301 50.0617 22.1175 50.0617 21.9049V20.9483C50.0617 20.6295 49.8492 20.5232 49.6366 20.5232Z" fill="#F3FAFD"/>
<path d="M49.6361 19.0352C49.8487 19.0352 50.0612 18.8226 50.0612 18.61V15.2088C50.0612 14.9962 49.955 14.7837 49.7424 14.6774C49.5298 14.5711 49.3172 14.5711 49.1047 14.6774L45.7034 16.5906C45.4909 16.6968 45.4909 16.9094 45.5972 17.122C45.7034 17.3346 45.916 17.3346 46.1286 17.2283L49.3172 15.4214V18.61C49.2109 18.9289 49.4235 19.0352 49.6361 19.0352Z" fill="#F3FAFD"/>
<path d="M5.95197 5.85523C6.05826 6.06781 6.37712 6.1741 6.69598 6.06781L9.1406 4.68607V7.44955C9.1406 7.76842 9.35318 7.98099 9.67204 7.98099C9.99091 7.98099 10.2035 7.76842 10.2035 7.44955V3.72948C10.2035 3.5169 10.0972 3.41061 9.99091 3.30433C9.77833 3.19804 9.67204 3.19804 9.45947 3.30433L6.27083 5.11122C5.95197 5.3238 5.84568 5.64266 5.95197 5.85523Z" fill="#F3FAFD"/>
<path d="M0.105957 8.93765V12.6577C0.105957 12.9766 0.318533 13.1892 0.637396 13.1892C0.95626 13.1892 1.16884 12.9766 1.16884 12.6577V9.25651L4.1449 7.55591C4.35747 7.44962 4.46376 7.13075 4.35747 6.81189C4.25118 6.59931 3.93232 6.49303 3.61346 6.59931L0.42482 8.40621C0.212244 8.5125 0.105957 8.72507 0.105957 8.93765Z" fill="#F3FAFD"/>
<path d="M0 20.3104C0 20.7355 0.425151 20.9481 0.744015 20.7355L3.93265 18.9286C4.14523 18.8223 4.25151 18.5035 4.14523 18.1846C4.03894 17.972 3.72007 17.8657 3.40121 17.972L1.06288 19.3538V16.5903C1.06288 16.2714 0.850303 16.0588 0.531439 16.0588C0.212576 16.0588 0 16.2714 0 16.5903V20.3104Z" fill="#F3FAFD"/>
<path d="M5.9519 17.2283C6.05819 17.4408 6.37705 17.5471 6.69592 17.4408L9.88455 15.6339C10.0971 15.5277 10.2034 15.3151 10.2034 15.2088V11.4887C10.2034 11.1699 9.99084 10.9573 9.67198 10.9573C9.35312 10.9573 9.14054 11.1699 9.14054 11.4887V14.8899L6.16448 16.5905C5.84562 16.6968 5.73933 17.0157 5.9519 17.2283Z" fill="#F3FAFD"/>
</svg>
