<svg width="68" height="72" viewBox="0 0 68 72" fill="none" xmlns="http://www.w3.org/2000/svg">
<path d="M14.692 39.4403C15.0224 39.7707 15.463 40.1012 15.463 40.6519C15.5731 40.762 15.5731 40.9823 15.6833 41.0924C15.7934 41.3127 16.3441 41.4228 16.7847 41.6431C17.5557 41.9735 17.5557 42.4141 17.5557 43.075C17.5557 44.8372 17.776 46.7096 17.9962 48.4718C18.3267 51.2254 19.2078 52.6572 20.8599 53.8687C20.97 53.9789 21.1903 54.089 21.4106 54.089C21.6309 54.089 21.8512 53.9789 21.8512 53.7586C21.8512 53.6485 21.741 53.5383 21.741 53.4282C21.1903 52.7673 20.6396 51.1152 20.6396 51.0051C20.4193 50.2341 20.97 49.1327 21.1903 48.9124C21.4106 48.6921 21.8512 48.6921 22.512 47.9211C23.3931 46.8197 23.8337 44.2865 24.7148 43.5155C24.9351 43.2952 25.2655 43.1851 25.4858 43.1851C25.9264 42.9648 26.9176 43.1851 26.6973 41.7533C26.5872 41.3127 26.4771 40.9823 26.6973 40.5417C26.9176 39.991 27.7988 39.5504 27.9089 38.3389C28.019 37.7882 27.7988 37.2375 27.3582 36.7969C26.5872 36.1361 24.1641 36.1361 23.5033 35.4752C23.1728 35.0347 23.1728 34.3738 22.6221 34.1536C22.4019 34.0434 22.0714 34.0434 21.8512 33.9333C21.3005 33.8231 20.8599 33.3826 20.6396 32.8319C20.5295 32.5014 20.5295 31.9507 20.0889 31.7305C19.6483 31.5102 19.2078 31.8406 18.7672 31.8406C17.8861 31.9507 17.005 31.1798 16.234 31.5102C15.7934 31.7305 15.5731 32.2812 15.1326 32.6116C14.692 33.0522 15.0224 33.8231 14.9123 34.1536C14.8022 34.3738 14.2515 34.7043 13.7008 35.6955C13.5906 35.8057 13.5906 36.0259 13.4805 36.1361C13.4805 36.3564 13.4805 36.6868 13.5906 36.9071C13.8109 38.0085 14.2515 38.7795 14.692 39.4403Z" fill="#F3FAFD"/>
<path d="M25.7061 52.9876C25.2655 53.5383 25.5959 54.4195 26.0365 54.86C26.6974 55.4107 27.2481 55.631 28.019 55.631C28.9002 55.631 29.6712 55.5209 30.5523 55.5209C31.5435 55.4107 31.6537 55.1904 32.3145 54.7499C32.8652 54.3093 33.4159 54.089 33.9666 53.8688C35.3985 53.4282 37.0506 53.7586 38.3723 53.0978C38.7027 52.8775 38.7027 52.7673 38.7027 52.4369C38.5925 51.9964 38.4824 51.4457 38.0418 51.3355C37.7114 51.2254 36.7202 51.2254 35.839 51.7761C35.5086 51.9964 35.068 52.2166 34.7376 52.4369C32.9754 53.4282 32.3145 51.5558 31.9841 51.3355C31.9841 51.2254 31.874 51.2254 31.7638 51.1152C31.2131 51.1152 30.5523 51.1152 30.2219 51.4457C29.6712 51.8862 29.7813 52.7673 29.6712 52.8775C29.561 53.0978 29.1205 52.9876 28.9002 52.8775C27.6886 52.2166 26.0365 52.5471 25.7061 52.9876Z" fill="#F3FAFD"/>
<path d="M60.5105 21.8177C60.7308 21.7075 60.8409 21.3771 60.7308 21.0467C60.6206 20.8264 60.2902 20.7163 59.9598 20.8264C59.7395 20.9366 59.6294 21.267 59.7395 21.5974C59.9598 21.9278 60.2902 21.9278 60.5105 21.8177Z" fill="#F3FAFD"/>
<path d="M58.3074 23.1397C58.5276 23.0296 58.6378 22.589 58.5276 22.3687C58.4175 22.1484 57.9769 22.0383 57.7567 22.1484C57.5364 22.2586 57.4262 22.6991 57.5364 22.9194C57.7567 23.1397 58.0871 23.2498 58.3074 23.1397Z" fill="#F3FAFD"/>
<path d="M53.2411 25.4526C53.3512 25.6729 53.6816 25.783 54.0121 25.6729C54.2323 25.5628 54.3425 25.1222 54.2323 24.9019C54.1222 24.6816 53.7918 24.5715 53.4614 24.6816C53.1309 24.7918 53.0208 25.1222 53.2411 25.4526Z" fill="#F3FAFD"/>
<path d="M55.6639 23.3596C55.4436 23.4698 55.3335 23.9103 55.4436 24.1306C55.5537 24.3509 55.8842 24.461 56.2146 24.3509C56.4349 24.2407 56.545 23.8002 56.4349 23.5799C56.2146 23.3596 55.8842 23.2495 55.6639 23.3596Z" fill="#F3FAFD"/>
<path d="M62.7133 20.6063C62.9336 20.4961 63.0437 20.0555 62.9336 19.8353C62.8235 19.615 62.493 19.5048 62.1626 19.615C61.8322 19.7251 61.8322 20.1657 61.9423 20.386C62.1626 20.6063 62.493 20.7164 62.7133 20.6063Z" fill="#F3FAFD"/>
<path d="M51.8093 35.365C52.0296 35.2548 52.1397 34.8143 52.0296 34.594C51.9194 34.3737 51.589 34.2636 51.2586 34.3737C51.2586 34.3737 51.2586 34.3737 51.1484 34.3737C51.0383 20.3859 39.6938 9.37178 26.0364 9.1515C11.6079 8.93122 -0.617666 20.6061 0.0431782 35.9157C0.153319 36.5765 0.153319 41.3126 2.90684 46.5993C1.58515 48.3616 0.924303 50.234 0.924303 52.2165V52.3266V57.1728C0.924303 61.7987 4.66909 65.5435 8.74429 67.7463C18.4367 73.0331 33.4158 72.9229 42.7778 67.4159C46.7428 65.103 50.1572 61.5785 50.1572 57.0627C50.1572 56.512 50.1572 51.8861 50.1572 52.2165C50.1572 50.234 49.4963 48.3616 48.2848 46.5993C50.2673 42.8545 51.0383 39.2199 51.1484 35.365C51.3687 35.4751 51.589 35.4751 51.8093 35.365ZM46.4124 45.3878C46.6327 44.9472 47.1834 44.6168 47.5138 44.1762C47.6239 43.9559 47.7341 43.8458 47.8442 43.6255C48.1746 43.2951 48.2848 43.4053 48.6152 42.8545C47.9544 44.8371 46.9631 46.7095 45.7516 48.4717C46.1921 46.9297 45.9718 46.1588 46.4124 45.3878ZM2.90684 25.4523C3.3474 27.3247 3.45754 30.8492 4.33866 30.6289C4.88937 30.5188 4.55895 29.1971 4.4488 28.0957C4.4488 27.7653 4.88937 27.545 4.99951 27.8754C5.21979 28.4261 5.32993 28.9768 5.32993 29.5275C5.32993 29.8579 5.32993 30.1884 5.44007 30.4087C5.77049 31.5101 7.20232 31.7303 8.30373 31.6202C9.18485 31.5101 9.07471 31.5101 11.9384 33.823C12.2688 34.0433 12.7094 34.3737 13.0398 34.3737C13.2601 34.3737 13.4803 34.1534 13.5905 34.0433C13.7006 33.823 13.5905 33.4926 13.2601 33.4926C13.0398 33.4926 12.9296 33.4926 12.7094 33.3824C12.4891 33.2723 12.3789 33.1622 12.4891 32.9419C12.5992 32.5013 12.5992 32.1709 12.5992 31.9506C12.5992 31.8405 12.4891 31.7303 12.3789 31.7303C11.6079 32.0608 11.0572 30.8492 11.2775 30.0782C11.4978 29.6377 10.5065 29.4174 9.8457 30.2985C9.62542 30.6289 9.07471 30.6289 8.85443 30.2985C8.52401 29.6377 8.52401 28.6464 8.96457 28.0957C9.8457 27.1044 11.3877 27.1044 12.7094 27.3247C12.7094 27.3247 12.8195 27.3247 12.8195 27.4349C12.8195 27.7653 13.2601 28.2058 13.7006 28.316C14.1412 28.5363 14.5817 28.0957 14.4716 27.6551C14.2513 27.1044 14.1412 26.5537 14.4716 26.2233C14.9122 26.003 15.573 26.1132 15.7933 25.6726C15.9034 25.4523 15.9034 25.232 16.0136 25.0118C16.344 24.1306 17.5555 24.1306 17.9961 23.3596C18.1062 23.1394 18.1062 22.9191 18.3265 22.8089C18.4367 22.5887 18.6569 22.4785 18.8772 22.5887C18.9874 22.6988 19.0975 22.8089 19.0975 22.9191C19.3178 23.1394 19.8685 23.0292 20.0888 22.8089C20.4192 22.5887 20.6395 22.3684 21.08 22.2582C21.5206 22.2582 21.9612 22.5887 22.4017 22.4785C23.0626 22.3684 23.2829 21.3771 23.8336 21.0467C23.6133 19.725 23.1727 18.6236 22.5119 17.6323C22.1814 17.1918 22.1814 16.5309 22.622 16.0904C23.0626 15.6498 23.1727 14.8788 22.622 14.4383C22.5119 14.3281 22.5119 14.3281 22.4017 14.218C21.6307 13.447 21.6307 12.5659 22.7322 12.3456C23.6133 12.1253 24.4944 12.3456 25.1552 12.7861C25.9262 13.2267 25.8161 13.7774 25.5958 14.6585C25.4857 15.3194 25.2654 16.7512 25.5958 17.3019C25.8161 17.6323 26.3668 17.7425 26.8074 17.6323C27.6885 17.3019 28.6797 15.5397 31.7637 14.989C32.8651 14.7687 32.6448 14.4383 32.8651 13.9977C32.9752 13.7774 33.3057 13.5571 33.5259 13.447C33.9665 13.1166 34.2969 12.5659 34.4071 12.0152C36.6099 12.8963 38.5924 13.9977 40.4648 15.4295C40.1344 15.5397 40.1344 15.5397 38.9228 16.6411C38.5924 16.8613 38.7025 16.8613 38.3721 17.7425C38.8127 18.0729 39.4735 17.7425 39.804 18.0729C39.1431 18.2932 39.1431 18.8439 39.1431 19.0642C39.033 19.2844 38.3721 19.9453 37.9316 20.0554C37.6011 20.1656 37.0504 19.8351 37.0504 19.5047C37.0504 19.3946 37.0504 19.1743 37.0504 19.0642C36.9403 18.954 36.8302 18.954 36.8302 18.8439C36.72 18.6236 37.0504 18.2932 36.6099 18.0729C36.3896 17.9628 35.8389 17.8526 35.6186 18.0729C35.2882 18.2932 35.3983 18.7337 35.178 18.954C34.9578 19.1743 34.6273 19.0642 34.6273 19.8351C34.6273 20.0554 34.6273 20.1656 34.7375 20.2757C35.0679 20.496 35.5085 20.1656 35.7287 20.1656C35.949 20.1656 36.1693 20.2757 36.1693 20.3858C36.1693 20.6061 35.949 20.7163 36.0592 20.9366C36.0592 21.0467 36.1693 21.1568 36.2795 21.267C36.6099 21.5974 36.8302 22.038 36.8302 22.4785C36.0592 22.8089 34.8476 22.3684 34.2969 23.1394C34.0766 23.3596 33.8564 24.1306 34.0766 24.4611C34.2969 24.7915 34.8476 24.7915 35.178 25.0118L35.2882 25.1219C35.2882 25.3422 34.8476 25.3422 34.8476 25.5625C33.7462 26.2233 33.8564 26.4436 33.7462 26.8841C33.5259 27.4349 32.9752 27.7653 32.5347 28.0957C31.7637 28.7565 31.3231 29.8579 31.3231 30.8492C31.3231 31.6202 31.7637 33.052 31.984 33.6027C32.2043 34.1534 32.9752 35.0346 33.4158 35.2548C34.0766 35.6954 34.8476 35.5853 35.6186 35.4751C38.7025 35.1447 38.5924 34.9244 39.4735 35.8055C39.2533 36.7968 39.033 37.8982 39.3634 38.7793C39.6938 39.5503 40.7952 40.7619 40.5749 42.1937C40.4648 42.9647 40.2445 42.9647 40.4648 44.1762C40.7952 45.8283 40.9054 46.379 41.1256 46.9297C41.3459 47.3703 42.1169 48.5819 42.6676 48.9123C43.2183 49.2427 43.769 49.463 44.4299 49.463C44.7603 49.463 45.0907 49.463 45.4211 49.3528C40.6851 55.741 33.3057 59.2655 25.8161 59.2655C12.0485 59.2655 2.02571 48.3616 1.36487 36.0258C0.924303 32.5013 1.47501 28.9768 2.90684 25.4523ZM9.62541 66.8652V63.2306C19.3178 68.0768 34.1868 67.7463 43.2183 62.2393V65.7638C35.3983 71.2708 19.6482 72.2621 9.62541 66.8652ZM42.2271 61.5785C32.9752 66.9753 17.886 66.9753 8.74429 61.5785C4.4488 59.1554 2.02571 55.741 2.02571 52.3266C2.02571 50.7847 2.57641 49.1326 3.45754 47.7007C8.41387 55.9613 16.8947 60.3669 25.4857 60.3669C34.5172 60.3669 42.8879 55.6309 47.5138 47.7007C51.1484 53.0976 47.9544 58.3844 42.2271 61.5785Z" fill="#F3FAFD"/>
<path d="M57.867 33.3824C58.0873 33.4925 58.4177 33.3824 58.638 33.052C58.7481 32.7216 58.638 32.5013 58.4177 32.281C58.0873 32.1709 57.867 32.281 57.6467 32.5013C57.5366 32.9418 57.6467 33.2723 57.867 33.3824Z" fill="#F3FAFD"/>
<path d="M53.9021 34.1534C54.1224 34.0432 54.2325 33.6027 54.1224 33.3824C54.0122 33.1621 53.6818 33.052 53.3514 33.1621C53.1311 33.2722 53.021 33.7128 53.1311 33.9331C53.3514 34.1534 53.6818 34.2635 53.9021 34.1534Z" fill="#F3FAFD"/>
<path d="M55.554 31.8406C55.3337 31.9507 55.2236 32.2811 55.3337 32.6116C55.4439 32.8318 55.7743 32.942 56.1047 32.8318C56.325 32.7217 56.4351 32.3913 56.325 32.0609C56.2149 31.8406 55.8844 31.7304 55.554 31.8406Z" fill="#F3FAFD"/>
<path d="M60.1805 34.4839C60.5109 34.5941 60.8414 34.4839 60.9515 34.2637C61.0616 33.9332 60.9515 33.6028 60.6211 33.4927C60.2907 33.3825 60.0704 33.4927 59.8501 33.713C59.8501 34.0434 59.9602 34.3738 60.1805 34.4839Z" fill="#F3FAFD"/>
<path d="M62.9333 33.4927C63.1536 33.3826 63.2638 33.0522 63.1536 32.7217C62.9333 32.5015 62.6029 32.3913 62.3826 32.5015C62.1624 32.6116 62.0522 32.942 62.1623 33.2724C62.3826 33.6029 62.7131 33.6029 62.9333 33.4927Z" fill="#F3FAFD"/>
<path d="M57.2065 13.0064C57.0964 13.2266 57.0964 13.5571 57.4268 13.7774C57.6471 13.8875 57.9775 13.8875 58.1978 13.5571C58.418 13.3368 58.3079 13.0064 57.9775 12.7861C57.6471 12.6759 57.3166 12.6759 57.2065 13.0064Z" fill="#F3FAFD"/>
<path d="M51.5892 17.4121C51.3689 17.5222 51.2588 17.8527 51.3689 18.1831C51.479 18.4034 51.8095 18.5135 52.1399 18.4034C52.3602 18.2932 52.4703 17.9628 52.3602 17.6324C52.25 17.4121 51.9196 17.302 51.5892 17.4121Z" fill="#F3FAFD"/>
<path d="M59.8496 8.7112C59.7394 8.93148 59.7394 9.26191 60.0698 9.48219C60.2901 9.59233 60.6205 9.59233 60.8408 9.26191C60.951 9.04162 60.951 8.60106 60.6205 8.49092C60.4003 8.38078 60.0698 8.38078 59.8496 8.7112Z" fill="#F3FAFD"/>
<path d="M59.4092 11.4647C59.6295 11.2444 59.5193 10.914 59.1889 10.6937C58.9686 10.4734 58.6382 10.5836 58.4179 10.914C58.3078 11.1343 58.3078 11.4647 58.6382 11.685C58.9686 11.685 59.299 11.685 59.4092 11.4647Z" fill="#F3FAFD"/>
<path d="M62.6028 7.93999C62.823 7.82985 62.9332 7.49943 62.8231 7.16901C62.7129 6.94873 62.3825 6.83859 62.0521 6.94873C61.8318 7.05887 61.7216 7.49943 61.8318 7.71971C61.9419 7.93999 62.2723 8.05013 62.6028 7.93999Z" fill="#F3FAFD"/>
<path d="M55.9944 14.8791C55.7742 14.9893 55.664 15.3197 55.7742 15.6501C55.9944 15.9806 56.3249 15.9806 56.5452 15.8704C56.7654 15.7603 56.8756 15.4298 56.7654 15.0994C56.6553 14.8791 56.3249 14.769 55.9944 14.8791Z" fill="#F3FAFD"/>
<path d="M53.7923 16.2009C53.572 16.311 53.4619 16.6414 53.572 16.9719C53.6822 17.3023 54.1227 17.3023 54.343 17.1921C54.5633 17.082 54.6734 16.7516 54.5633 16.4212C54.4531 16.0907 54.1227 16.0907 53.7923 16.2009Z" fill="#F3FAFD"/>
<path d="M66.238 7.49955C67.1192 6.94884 67.8902 5.7373 67.8902 4.63589C67.8902 3.53448 67.1192 3.20406 66.238 3.64462C65.2468 4.19533 64.5859 5.51701 64.5859 6.50828C64.5859 7.60969 65.3569 8.05025 66.238 7.49955Z" fill="#F3FAFD"/>
<path d="M66.238 15.8702C65.2468 16.4209 64.5859 17.7426 64.5859 18.7339C64.5859 19.8353 65.3569 20.1657 66.3482 19.7252C67.2293 19.1745 68.0003 17.9629 68.0003 16.8615C68.0003 15.8702 67.2293 15.4297 66.238 15.8702Z" fill="#F3FAFD"/>
<path d="M66.238 28.6464C65.2468 29.1971 64.5859 30.5188 64.5859 31.51C64.5859 32.6114 65.3569 32.9418 66.3482 32.5013C67.2293 31.9506 68.0003 30.739 68.0003 29.6376C68.0003 28.6464 67.2293 28.2058 66.238 28.6464Z" fill="#F3FAFD"/>
<path d="M3.45744 13.9976C3.78786 13.9976 4.00814 13.7774 4.00814 13.4469C4.00814 13.1165 3.78786 12.8962 3.45744 12.8962C3.12702 12.8962 2.90674 13.1165 2.90674 13.4469C2.90674 13.6672 3.23716 13.9976 3.45744 13.9976Z" fill="#F3FAFD"/>
<path d="M4.00814 8.27043C4.00814 7.94001 3.78786 7.71973 3.45744 7.71973C3.12702 7.82987 2.90674 8.05015 2.90674 8.38057C2.90674 8.71099 3.12702 8.93127 3.45744 8.93127C3.78786 8.93127 4.00814 8.60085 4.00814 8.27043Z" fill="#F3FAFD"/>
<path d="M3.45744 16.5308C3.78786 16.5308 4.00814 16.3106 4.00814 15.9801C4.00814 15.6497 3.78786 15.4294 3.45744 15.4294C3.12702 15.4294 2.90674 15.6497 2.90674 15.9801C2.90674 16.2004 3.23716 16.5308 3.45744 16.5308Z" fill="#F3FAFD"/>
<path d="M3.45744 11.4644C3.78786 11.4644 4.00814 11.2442 4.00814 10.9137C4.00814 10.5833 3.78786 10.363 3.45744 10.363C3.12702 10.363 2.90674 10.5833 2.90674 10.9137C2.90674 11.134 3.12702 11.4644 3.45744 11.4644Z" fill="#F3FAFD"/>
<path d="M6.21109 0.230213C5.9908 0.00993139 5.66038 -0.100209 5.4401 0.120072L0.26349 3.09387C0.0432088 3.20401 -0.066932 3.53443 0.0432087 3.86485C0.153349 4.08514 0.483771 4.19528 0.814193 4.08513L5.9908 1.11134C6.21109 0.891057 6.32123 0.560635 6.21109 0.230213Z" fill="#F3FAFD"/>
<path d="M6.21109 3.86481C5.9908 3.64453 5.66038 3.53439 5.4401 3.64453L0.26349 6.72846C0.0432088 6.83861 -0.066932 7.16903 0.0432087 7.49945C0.153349 7.71973 0.483771 7.82987 0.814193 7.71973L5.9908 4.74593C6.21109 4.52565 6.32123 4.08509 6.21109 3.86481Z" fill="#F3FAFD"/>
</svg>
