<svg width="74" height="79" viewBox="0 0 74 79" fill="none" xmlns="http://www.w3.org/2000/svg">
<path d="M46.073 42.2395C45.7075 42.2395 45.4639 42.4832 45.4639 42.8486C45.4639 43.2141 45.7075 43.4578 46.073 43.4578C46.4385 43.4578 46.6821 43.2141 46.6821 42.8486C46.6821 42.4832 46.3166 42.2395 46.073 42.2395Z" fill="#F3FAFD"/>
<path d="M45.9514 36.6355C45.5859 36.6355 45.3423 36.8791 45.3423 37.2446C45.3423 37.6101 45.5859 37.8537 45.9514 37.8537C46.3169 37.8537 46.5605 37.6101 46.5605 37.2446C46.5605 36.8791 46.3169 36.6355 45.9514 36.6355Z" fill="#F3FAFD"/>
<path d="M45.9514 39.4373C45.5859 39.4373 45.3423 39.6809 45.3423 40.0464C45.3423 40.4119 45.5859 40.6555 45.9514 40.6555C46.3169 40.6555 46.5605 40.4119 46.5605 40.0464C46.6824 39.6809 46.3169 39.4373 45.9514 39.4373Z" fill="#F3FAFD"/>
<path d="M36.0834 50.5234C35.8398 50.6452 35.718 51.0107 35.8398 51.3762C35.9616 51.6198 36.4489 51.7416 36.6926 51.6198C36.9362 51.498 37.058 51.1325 36.9362 50.767C36.6926 50.5234 36.3271 50.4016 36.0834 50.5234Z" fill="#F3FAFD"/>
<path d="M41.444 48.8178C41.6877 48.696 41.8095 48.3305 41.6877 47.965C41.5659 47.7214 41.2004 47.5996 40.8349 47.7214C40.5913 47.8432 40.4694 48.2087 40.5912 48.5742C40.8349 48.9396 41.3222 48.9396 41.444 48.8178Z" fill="#F3FAFD"/>
<path d="M39.007 50.2797C39.2507 50.1579 39.3725 49.7924 39.2507 49.4269C39.1288 49.1833 38.6415 49.0615 38.3979 49.1833C38.1542 49.3051 38.0324 49.6706 38.1542 50.0361C38.3979 50.2797 38.7634 50.4015 39.007 50.2797Z" fill="#F3FAFD"/>
<path d="M33.6469 51.9855C33.4033 52.1073 33.2814 52.4728 33.4033 52.8382C33.5251 53.0819 34.0124 53.2037 34.256 53.0819C34.4997 52.9601 34.6215 52.5946 34.4997 52.2291C34.256 51.8636 33.8906 51.8636 33.6469 51.9855Z" fill="#F3FAFD"/>
<path d="M45.7075 44.9194C45.4638 45.0412 45.342 45.4067 45.4638 45.7721C45.5856 46.0158 46.0729 46.1376 46.3166 46.0158C46.5602 45.894 46.6821 45.5285 46.5602 45.163C46.4384 44.9194 46.0729 44.7976 45.7075 44.9194Z" fill="#F3FAFD"/>
<path d="M43.8797 47.4777C44.1234 47.3559 44.2452 46.9904 44.1234 46.6249C44.0016 46.3813 43.6361 46.2595 43.2706 46.3813C42.9051 46.5031 42.9051 46.8686 43.027 47.2341C43.2706 47.4777 43.6361 47.5995 43.8797 47.4777Z" fill="#F3FAFD"/>
<path d="M34.1344 54.5436C34.0126 54.7873 34.0126 55.1528 34.378 55.3964C34.6217 55.5182 34.9872 55.5182 35.2308 55.1528C35.3526 54.9091 35.3526 54.5436 34.9872 54.3C34.6217 54.1782 34.2562 54.3 34.1344 54.5436Z" fill="#F3FAFD"/>
<path d="M36.5704 56.0057C36.4486 56.2494 36.4486 56.7367 36.8141 56.8585C37.0577 56.9803 37.4232 56.9803 37.6668 56.6148C37.7887 56.3712 37.7887 55.8839 37.4232 55.7621C37.0577 55.6402 36.6922 55.6402 36.5704 56.0057Z" fill="#F3FAFD"/>
<path d="M32.7938 53.8126C32.9156 53.5689 32.9156 53.2035 32.5501 52.9598C32.3065 52.838 31.941 52.838 31.6974 53.2035C31.5755 53.4471 31.5755 53.9344 31.941 54.0562C32.3065 54.1781 32.5501 54.0562 32.7938 53.8126Z" fill="#F3FAFD"/>
<path d="M3.556 50.1579C4.53059 50.767 9.28177 53.4472 8.91629 53.3254C11.5964 54.9091 14.7639 54.0563 17.444 52.5944L51.9205 32.737C57.2808 29.5695 61.6665 22.0164 61.6665 15.8033C61.6665 12.8795 60.6919 10.5648 58.8645 9.34657C58.7427 9.22475 53.8697 6.42277 53.2606 6.0573C51.7987 5.20453 50.0931 5.0827 48.2657 5.69183L45.8292 4.35175C44.2455 3.37715 42.1745 3.37715 39.9816 4.35175C39.3725 3.98628 38.0324 3.25533 34.3777 1.06248C30.9666 -0.88672 26.8246 0.0878795 23.4135 2.03708C16.2258 6.17913 10.1345 15.5596 8.91629 24.4529C0.388548 31.5187 -3.2662 46.1377 3.556 50.1579ZM60.4482 15.6815C60.4482 21.5291 56.3062 28.5949 51.3114 31.5187L16.8349 51.3762C14.0329 52.9599 11.4746 53.2035 9.52542 52.1071C3.92147 48.9397 6.60162 35.2953 15.1294 28.3513C15.2512 28.3513 15.373 28.1076 15.373 27.9858C16.5913 18.7271 23.4135 9.10292 30.2356 5.81365C30.6011 5.69183 35.2305 3.01168 39.007 5.0827C40.5908 5.93547 41.809 7.5192 42.4181 9.59022C42.4181 9.83387 42.6618 9.9557 42.7836 9.9557C43.0273 9.9557 43.1491 9.9557 43.3927 9.83387C46.4384 7.5192 50.2149 6.66642 52.0423 9.83387C52.1641 10.0775 52.5296 10.1993 52.7733 10.0775C57.159 8.37197 60.4482 10.5648 60.4482 15.6815ZM45.2201 5.32635C45.3419 5.44818 47.7784 6.78825 47.6566 6.78825C46.3165 7.0319 45.2201 7.39737 43.3927 8.61562C42.9054 7.27555 42.0527 6.17913 41.1999 5.20453C42.4181 4.71723 44.0019 4.5954 45.2201 5.32635ZM24.7535 2.76803C24.8754 2.88985 29.1392 5.32635 28.8956 5.20453C21.7079 9.34657 15.8603 18.6053 14.3984 27.0112L10.1345 24.5747C11.4746 15.316 18.2968 5.93547 24.7535 2.76803ZM9.52542 25.5493L13.7893 27.9858C10.2564 31.1532 7.21074 36.1481 5.99249 41.0211L1.72862 38.5846C2.82505 33.7116 5.87067 28.7167 9.52542 25.5493Z" fill="#F3FAFD"/>
<path d="M44.489 11.2957C44.2454 11.5394 44.1235 11.9049 44.3672 12.1485C44.6108 12.3922 44.9763 12.514 45.22 12.2703C46.0727 11.6612 47.4128 10.8084 48.5092 10.8084C48.9965 10.8084 49.2402 10.9303 49.4838 11.4176C49.6057 11.6612 49.9711 11.783 50.3366 11.6612C50.5803 11.5394 50.7021 11.1739 50.5803 10.8084C49.362 8.61559 46.4382 9.83384 44.489 11.2957Z" fill="#F3FAFD"/>
<path d="M30.8451 8.73752C32.5507 7.76292 34.2562 7.27562 35.5963 7.27562C37.6673 7.27562 38.8856 8.37205 39.6165 10.5649C39.7384 10.9304 40.1038 11.0522 40.3475 10.9304C40.713 10.8085 40.8348 10.4431 40.713 10.1994C39.8602 7.51927 38.0328 6.05737 35.4745 6.05737C33.8908 6.05737 32.0634 6.6665 30.1142 7.76292C29.8705 7.88475 29.7487 8.25022 29.8705 8.6157C30.236 8.85935 30.6015 8.85935 30.8451 8.73752Z" fill="#F3FAFD"/>
<path d="M72.7522 56.8584L56.0622 47.2342C55.8185 47.1124 55.6967 47.1124 55.4531 47.2342L26.2151 64.1679C25.9714 64.2897 25.8496 64.5333 25.8496 64.6552V68.7972C25.8496 69.0409 25.9714 69.1627 26.0933 69.2845C28.0425 70.3809 40.8341 77.8122 42.7833 78.9087C43.0269 79.0305 43.1487 79.0305 43.3924 78.9087C46.5598 77.0813 70.1939 63.4369 72.7522 61.975C72.9959 61.8532 73.1177 61.6095 73.1177 61.4877V57.3457C73.1177 57.2238 72.874 56.9802 72.7522 56.8584ZM55.8185 48.4524L71.2903 57.4675C44.367 72.9392 44.2452 73.0611 43.1487 73.6702L27.677 64.6552L55.8185 48.4524ZM30.3571 70.3809C30.3571 70.2591 30.3571 67.4571 30.3571 67.579C30.6008 67.7008 34.8647 70.1373 42.5396 74.6448C42.5396 74.7666 42.5396 77.5686 42.5396 77.4468L30.3571 70.3809ZM43.7579 77.4468C43.7579 77.3249 43.7579 74.523 43.7579 74.6448L68.001 60.6349V63.4369L43.7579 77.4468Z" fill="#F3FAFD"/>
<path d="M36.936 17.6309C36.5705 17.5091 36.205 17.6309 36.0832 17.9964L29.992 33.9554C29.8701 34.3209 29.992 34.6864 30.3574 34.8082C30.7229 34.93 31.0884 34.8082 31.2102 34.4427L37.3015 18.4837C37.5451 18.24 37.3015 17.7527 36.936 17.6309Z" fill="#F3FAFD"/>
<path d="M27.7991 33.2242L23.4134 32.8587L28.1646 26.8893C28.4082 26.6456 28.4082 26.1583 28.0427 25.9147C27.7991 25.671 27.3118 25.671 27.0681 26.0365L21.4642 32.9805C21.0987 33.4678 21.3424 34.077 21.9515 34.077L27.5554 34.5643C28.0427 34.5643 28.2864 34.3206 28.2864 33.9551C28.4082 33.5897 28.1646 33.2242 27.7991 33.2242Z" fill="#F3FAFD"/>
<path d="M44.9765 19.5798L39.3725 19.0925C39.0071 19.0925 38.6416 19.3362 38.6416 19.7017C38.6416 20.0671 38.8853 20.4326 39.2507 20.4326L43.6364 20.7981L38.8853 26.7675C38.6416 27.0111 38.6416 27.4984 39.0071 27.7421C39.2507 27.9857 39.738 27.9857 39.9817 27.6203L45.5856 20.6763C45.7074 20.4326 45.8293 20.189 45.7074 19.9453C45.4638 19.8235 45.2201 19.5798 44.9765 19.5798Z" fill="#F3FAFD"/>
<path d="M57.768 54.0563C58.0117 53.9345 58.0117 53.6909 57.8899 53.4472C57.768 53.2036 57.5244 53.2036 57.2807 53.3254L36.5705 65.2642C36.3268 65.386 36.3268 65.6297 36.4487 65.8733C36.5705 66.117 36.8141 66.117 37.0578 65.9952L57.768 54.0563Z" fill="#F3FAFD"/>
<path d="M45.5854 66.4825C45.7072 66.7262 45.9509 66.7262 46.1945 66.6044L58.6207 59.4167C58.8643 59.2949 58.8643 59.0512 58.7425 58.8076C58.6207 58.5639 58.377 58.5639 58.1334 58.6857L45.7072 65.8734C45.4636 65.9952 45.4636 66.2389 45.5854 66.4825Z" fill="#F3FAFD"/>
</svg>
