<svg width="42" height="74" viewBox="0 0 42 74" fill="none" xmlns="http://www.w3.org/2000/svg">
<path d="M37.7647 48.1765C37.7647 47.953 37.5412 47.7295 37.3176 47.8413C37.0941 47.8413 36.8706 48.0648 36.9823 48.2883L37.5412 52.8707C37.6529 53.7648 36.9823 54.9942 36.5353 55.2177C36.3117 55.3295 36.3117 55.553 36.4235 55.7765C36.5353 56.0001 36.7588 56.0001 36.9823 55.8883C37.7647 55.4413 38.547 53.8765 38.4353 52.7589L37.7647 48.1765Z" fill="#F3FAFD"/>
<path d="M34.1882 56.4472L32.2882 57.5648C32.0647 57.6766 32.0647 57.9001 32.1764 58.1236C32.2882 58.3472 32.5117 58.3472 32.7353 58.2354L34.6353 57.1178C34.8588 57.006 34.8588 56.7825 34.747 56.5589C34.6353 56.4472 34.4117 56.3354 34.1882 56.4472Z" fill="#F3FAFD"/>
<path d="M25.3587 46.1649L24.6881 40.3531C25.694 39.7943 26.6999 39.459 27.7058 39.3472C28.3764 39.2354 28.8234 38.3413 28.7117 37.7825C28.5999 37.3354 28.3764 37.1119 28.0411 37.1119C26.9234 37.2237 25.8058 37.6707 24.4646 38.3413L24.2411 36.6649C24.2411 36.2178 23.9058 36.106 23.5705 36.2178C23.2352 36.4413 23.0117 36.8884 23.1234 37.3354L23.347 39.0119C20.7764 40.8002 19.2117 43.706 19.547 46.5002C19.8823 49.2943 21.894 49.406 24.5764 48.7354L25.247 54.3237C24.0176 54.9943 22.8999 55.2178 21.7823 55.3296C21.3352 55.3296 20.9999 55.6649 20.8881 56.1119C20.5528 57.006 20.8881 57.6766 21.447 57.6766C22.7881 57.5649 24.1293 57.2296 25.5823 56.4472L25.8058 58.1237C25.9176 58.5707 26.1411 58.6825 26.4764 58.459C26.8117 58.2355 27.0352 57.7884 27.0352 57.3413L26.8117 55.6649C29.8293 53.6531 31.0587 50.6354 30.8352 48.2884C30.2764 45.2707 28.2646 45.3825 25.3587 46.1649ZM21.2234 45.3825C20.9999 43.706 22.1176 42.1413 23.4587 41.1355L24.1293 46.5002C22.5646 46.8354 21.3352 46.9472 21.2234 45.3825ZM26.3646 53.6531L25.694 48.4002C30.1646 47.3943 29.6058 51.5296 26.3646 53.6531Z" fill="#F3FAFD"/>
<path d="M41.7881 52.3119L37.541 16.2119C37.4293 14.7589 36.6469 13.7531 35.641 13.306L30.3881 11.0707C30.0528 10.9589 29.3822 10.7354 28.1528 10.5119C26.2528 6.93541 23.4587 3.806 20.441 2.01776C13.8469 -1.78224 7.69984 1.5707 7.69984 9.28247C7.69984 11.1825 8.03514 13.1942 8.81749 15.3178C4.23514 22.5825 5.79984 20.2354 1.21749 27.5001C0.323373 28.9531 -0.0119206 30.8531 0.0998442 32.0825C0.211609 33.3119 -0.794273 24.3707 4.3469 68.1825C4.45867 69.5236 5.12926 70.6413 6.2469 71.0883L11.4998 73.3236C12.2822 73.5472 13.0646 73.7707 14.294 72.9883L38.6587 58.906C40.6704 57.7883 42.1234 54.7707 41.7881 52.3119ZM19.994 3.02365C25.3587 6.15306 29.7175 13.4178 29.7175 19.7884C29.7175 26.7178 24.3528 29.4001 18.6528 26.0472C18.094 25.7119 17.6469 25.3766 17.0881 25.0413C17.3116 24.1472 17.9822 22.5825 18.094 22.4707C18.6528 23.0295 19.3234 23.4766 19.994 23.8119C24.1293 26.2707 27.1469 24.3707 27.1469 19.7884C27.1469 14.3119 23.1234 7.71776 18.7646 5.25894C14.6293 2.91188 11.6116 4.58835 11.6116 9.28247C11.6116 9.72953 11.6116 10.2884 11.7234 10.8472C11.6116 10.9589 9.59984 14.2001 9.71161 13.9766C9.26455 12.3001 8.92926 10.7354 8.92926 9.1707C9.04102 2.57659 14.1822 -0.329295 19.994 3.02365ZM19.994 31.7472C19.5469 31.7472 18.9881 31.6354 18.541 31.3001C19.4351 31.0766 20.8881 30.1825 22.1175 28.6178C23.1234 28.7295 23.794 28.7295 24.5763 28.6178C23.5704 30.0707 21.7822 31.7472 19.994 31.7472ZM16.8646 26.2707C14.741 24.706 17.1998 26.606 18.094 27.0531C18.9881 27.6119 19.8822 27.9472 20.7763 28.2825C19.994 29.2883 18.7646 30.1825 17.5351 30.406C16.7528 29.2883 16.641 27.7236 16.8646 26.2707ZM22.4528 18.7825C23.3469 20.1236 23.3469 22.1354 23.0116 23.8119C22.2293 23.7001 21.4469 23.4766 20.5528 22.9178C19.8822 22.5825 19.3234 22.1354 18.7646 21.5766C19.5469 20.3472 20.9998 19.006 22.4528 18.7825ZM25.9175 21.0178C25.8057 22.1354 25.2469 23.3648 24.241 23.7001C24.241 23.3648 24.7998 20.906 23.794 18.7825C24.5763 19.006 25.4704 19.7884 25.9175 21.0178ZM12.7293 9.39423C12.7293 5.59423 14.741 4.25306 18.2057 6.26482C19.2116 6.82364 20.2175 7.71776 21.1116 8.72364L16.7528 7.606C15.1881 7.15894 13.7351 8.16482 12.7293 9.39423ZM13.1763 10.6236C13.8469 9.506 15.1881 8.27659 16.4175 8.61188L20.6646 9.72953C19.3234 9.95306 18.2057 11.0707 17.4234 12.3001L6.47043 29.7354C6.02337 30.406 5.79984 30.9648 5.68808 31.6354L1.44102 30.0707C1.55279 29.4001 1.88808 28.7295 2.22337 28.0589C3.34102 26.4942 10.494 14.9825 13.1763 10.6236ZM1.32926 31.1883L5.46455 32.6413C5.35279 33.2001 5.35279 33.7589 5.46455 34.206C10.6057 78.8001 8.81749 63.3766 9.26455 66.7295C9.15279 66.7295 5.01749 64.9413 5.24102 65.053L1.44102 31.8589C1.21749 31.7472 1.21749 31.5236 1.32926 31.1883ZM38.0998 57.9001L13.7351 71.9825C12.1704 72.8766 10.941 71.9825 10.7175 70.1942C10.2704 66.506 12.2822 83.606 6.47043 34.0942C6.35867 32.9766 6.69396 31.5236 7.47631 30.2942L18.4293 12.8589C19.0998 11.7413 20.441 10.5119 21.6704 10.8472C21.7822 10.8472 23.1234 11.1825 23.0116 11.1825C24.6881 13.6413 25.694 16.4354 25.9175 18.8942C24.1293 16.7707 20.3293 16.9942 17.4234 21.3531C14.294 26.2707 15.4116 32.8648 19.994 32.8648C22.5646 32.8648 24.9116 30.5178 26.141 28.1707C29.494 26.9413 30.9469 23.4766 30.9469 19.9001C30.9469 17.6648 30.3881 15.206 29.494 12.8589L35.3057 14.3119C36.0881 14.5354 36.5351 15.3178 36.6469 16.3236L40.894 52.4236C40.894 54.4354 39.7763 57.006 38.0998 57.9001Z" fill="#F3FAFD"/>
</svg>
