<svg width="42" height="33" viewBox="0 0 42 33" fill="none" xmlns="http://www.w3.org/2000/svg">
<path d="M40.5959 32.9972C40.3866 32.9963 40.1803 32.9453 39.9918 32.848C39.8033 32.7507 39.6375 32.6095 39.5065 32.4347L35.569 27.1894C35.1759 26.6617 34.6766 26.2358 34.1085 25.9437C33.5403 25.6515 32.918 25.5005 32.2878 25.5019H16.8003C14.946 25.4982 13.1687 24.7073 11.8575 23.3025C10.5463 21.8976 9.80816 19.9933 9.80469 18.0066V7.50195C9.80816 5.51521 10.5463 3.61092 11.8575 2.20608C13.1687 0.801244 14.946 0.0103698 16.8003 0.00665283H35.0046C36.8589 0.0103698 38.6363 0.801244 39.9474 2.20608C41.2586 3.61092 41.9968 5.51521 42.0002 7.50195V31.5066C41.9982 31.8151 41.9077 32.1154 41.741 32.3669C41.5743 32.6185 41.3395 32.809 41.0684 32.9128C40.9165 32.9695 40.7567 32.998 40.5959 32.9972ZM16.8003 3.00196C15.6864 3.00196 14.6181 3.47606 13.8305 4.31997C13.0428 5.16389 12.6003 6.30848 12.6003 7.50195V18.0066C12.6003 19.2001 13.0428 20.3447 13.8305 21.1886C14.6181 22.0325 15.6864 22.5066 16.8003 22.5066H32.314C33.363 22.5049 34.3988 22.757 35.3441 23.244C36.2895 23.7309 37.1201 24.4403 37.774 25.3191L39.2046 27.2316V7.50195C39.2046 6.30848 38.7621 5.16389 37.9745 4.31997C37.1868 3.47606 36.1185 3.00196 35.0046 3.00196H16.8003Z" fill="#454545"/>
<path d="M25.1999 32.9972H6.99561C5.14132 32.9935 3.36398 32.2026 2.0528 30.7978C0.741618 29.393 0.0034692 27.4886 0 25.5019L0 1.49728C0.00142332 1.18718 0.0922385 0.885121 0.260021 0.632434C0.427803 0.379746 0.664356 0.188774 0.937316 0.085644C1.21028 -0.0174856 1.50631 -0.0277351 1.78491 0.0562987C2.06352 0.140333 2.31109 0.314544 2.49374 0.555099L6.43123 5.8004C6.76347 6.26112 7.18421 6.63998 7.66498 6.91134C7.83567 6.99882 7.9881 7.12235 8.11311 7.27452C8.23813 7.42668 8.33316 7.60435 8.3925 7.79685C8.45183 7.98935 8.47425 8.19271 8.45841 8.39472C8.44256 8.59673 8.38878 8.79323 8.30029 8.97241C8.21181 9.1516 8.09044 9.30979 7.94347 9.43747C7.7965 9.56515 7.62697 9.65969 7.44505 9.71542C7.26313 9.77115 7.07258 9.78692 6.88483 9.76179C6.69708 9.73665 6.51601 9.67112 6.35249 9.56914C5.52237 9.11123 4.79301 8.4688 4.21312 7.68477L2.79562 5.77227V25.4597C2.79562 26.6532 3.23812 27.7978 4.02577 28.6417C4.81342 29.4856 5.8817 29.9597 6.99561 29.9597H25.1999C25.9397 29.9711 26.6692 29.773 27.3145 29.3853C27.9598 28.9976 28.4981 28.4341 28.8749 27.7519C29.0752 27.4422 29.3767 27.2243 29.7197 27.1412C30.0627 27.0582 30.4223 27.116 30.7275 27.3033C31.0326 27.4906 31.261 27.7938 31.3676 28.1529C31.4742 28.5119 31.4511 28.9008 31.3031 29.2425C30.6851 30.3894 29.7951 31.3407 28.7232 32.0001C27.6514 32.6595 26.4359 33.0035 25.1999 32.9972Z" fill="#454545"/>
</svg>
