<svg width="39" height="40" viewBox="0 0 39 40" fill="none" xmlns="http://www.w3.org/2000/svg">
<path d="M19.5 0.0162354C15.6433 0.0162354 11.8731 1.15989 8.66639 3.30258C5.45963 5.44526 2.96027 8.49075 1.48436 12.0539C0.00844898 15.6171 -0.377716 19.5379 0.374696 23.3205C1.12711 27.1031 2.9843 30.5777 5.71143 33.3048C8.43855 36.0319 11.9131 37.8891 15.6957 38.6415C19.4784 39.394 23.3992 39.0078 26.9623 37.5319C30.5255 36.056 33.571 33.5566 35.7137 30.3498C37.8563 27.1431 39 23.373 39 19.5162C39 14.3445 36.9455 9.38461 33.2886 5.72765C29.6316 2.07069 24.6717 0.0162354 19.5 0.0162354ZM9.12844 20.8203C9.20175 23.3673 9.56151 25.8979 10.2009 28.3644C9.00542 29.0209 7.88208 29.8011 6.84938 30.6922C4.41124 27.9477 2.93873 24.4805 2.65688 20.8203H9.12844ZM19.5 2.61217C21.7669 2.61217 24.1313 5.04967 25.5938 9.25436C23.6555 10.0345 21.5892 10.4478 19.5 10.4731C17.4108 10.4481 15.3444 10.0348 13.4063 9.25436C14.8809 5.08623 17.2331 2.61217 19.5 2.61217ZM10.9688 8.12092C10.1744 7.64734 9.42029 7.10928 8.71407 6.51217C10.0827 5.38068 11.6209 4.47174 13.2722 3.81873C12.3186 5.14533 11.5441 6.59185 10.9688 8.12092ZM25.7278 3.81873C27.3791 4.47174 28.9174 5.38068 30.2859 6.51217C29.5798 7.10937 28.8257 7.64743 28.0313 8.12092C27.4559 6.59185 26.6814 5.14533 25.7278 3.81873ZM19.5 13.0203C21.8541 13.0338 24.1912 12.6209 26.3981 11.8015C26.9086 13.9232 27.1986 16.0919 27.2634 18.2731H11.7366C11.8014 16.0919 12.0914 13.9232 12.6019 11.8015C14.8088 12.6209 17.1459 13.0338 19.5 13.0203ZM27.2634 20.8203C27.1986 23.0015 26.9086 25.1702 26.3981 27.2919C21.9562 25.5937 17.0439 25.5937 12.6019 27.2919C12.0914 25.1702 11.8014 23.0015 11.7366 20.8203H27.2634ZM10.9688 30.9115C11.5289 32.4381 12.2869 33.8845 13.2234 35.2137C11.567 34.5583 10.0245 33.6452 8.65313 32.5081C9.37921 31.9124 10.1538 31.3783 10.9688 30.9115ZM13.4063 29.7781C17.3579 28.2234 21.7518 28.2234 25.7034 29.7781C24.18 33.9462 21.8278 36.4081 19.6097 36.4081C17.3916 36.4081 14.8809 33.9462 13.4063 29.7781ZM28.0313 30.9115C28.8421 31.3789 29.6125 31.9129 30.3347 32.5081C28.9633 33.6452 27.4209 34.5583 25.7644 35.2137C26.7052 33.8851 27.4673 32.4387 28.0313 30.9115ZM28.8478 28.3644C29.4872 25.8979 29.847 23.3673 29.9203 20.8203H36.3919C36.11 24.4805 34.6375 27.9477 32.1994 30.6922C31.1513 29.7983 30.0115 29.018 28.7991 28.3644H28.8478ZM36.3919 18.2122H29.8716C29.7992 15.6611 29.4394 13.1264 28.7991 10.6559C29.994 10.0032 31.1173 9.22707 32.1506 8.3403C34.5843 11.0864 36.0525 14.5534 36.3309 18.2122H36.3919ZM6.86157 8.3403C7.89485 9.22707 9.01816 10.0032 10.2131 10.6559C9.5728 13.1264 9.21302 15.6611 9.14063 18.2122H2.66907C2.95092 14.552 4.42343 11.0847 6.86157 8.3403Z" fill="#454545"/>
</svg>
