<svg width="23" height="20" viewBox="0 0 23 20" fill="none" xmlns="http://www.w3.org/2000/svg">
<path d="M22.0947 9.82069C22.0947 9.58605 21.9535 9.27477 21.8104 9.12346L13.7383 0.505967C13.3616 0.114514 12.7509 0.0689152 12.3117 0.466272C11.9189 0.821564 11.9092 1.51408 12.2722 1.90004L18.7519 8.80677H1.91448C1.35706 8.80677 0.905273 9.26071 0.905273 9.82077C0.905273 10.3808 1.35707 10.8348 1.91448 10.8348H18.7519L12.2722 17.7415C11.9092 18.1271 11.9346 18.8027 12.3117 19.1753C12.7095 19.5683 13.3674 19.5333 13.7383 19.1356L21.8104 10.5181C22.0474 10.2842 22.0908 10.0594 22.0947 9.82124V9.82069Z" fill="#F3FAFD"/>
</svg>
