<svg width="37" height="40" viewBox="0 0 37 40" fill="none" xmlns="http://www.w3.org/2000/svg">
<path d="M35.1486 16.5513C34.8417 16.5513 34.5438 16.6535 34.3016 16.8419L24.1144 24.7662V17.9309C24.1144 17.169 23.4968 16.5513 22.7349 16.5513C22.428 16.5513 22.1301 16.6535 21.8879 16.8419L11.7007 24.7662V8.27579C11.7008 7.51424 11.0836 6.89666 10.3221 6.89648H10.3214H2.04556C1.28401 6.89631 0.666432 7.51355 0.66626 8.2751V8.27579V38.6204C0.666087 39.382 1.28333 39.9995 2.04487 39.9997H2.04556H35.1488C35.9103 39.9999 36.5279 39.3827 36.5281 38.6211V38.6204V17.9309C36.5283 17.169 35.9107 16.5513 35.1486 16.5513ZM33.7695 37.2411H3.42486V9.65509H8.94207V27.586C8.94207 28.3479 9.55965 28.9657 10.3215 28.9657C10.6284 28.9657 10.9264 28.8634 11.1686 28.675L21.3558 20.7507V27.586C21.3558 28.3479 21.9734 28.9657 22.7353 28.9657C23.0422 28.9657 23.3401 28.8634 23.5823 28.675L33.7695 20.7507V37.2411Z" fill="#F3FAFD"/>
<path d="M17.8134 1.82683C17.206 2.49028 16.9351 2.7589 16.3034 2.7589C15.6703 2.7589 15.3983 2.48942 14.7909 1.82683C13.3928 -0.132292 10.6714 -0.587116 8.71227 0.810978C8.31969 1.09115 7.97641 1.43442 7.69641 1.82683C7.089 2.48959 6.81694 2.7589 6.18384 2.7589V5.5175C7.58521 5.49181 8.8952 4.81733 9.73037 3.69165C10.3378 3.02821 10.61 2.7589 11.2445 2.7589C11.8776 2.7589 12.1497 3.02838 12.7571 3.69096C14.1526 5.64888 16.8712 6.10457 18.8289 4.70906C19.2227 4.42837 19.5669 4.08406 19.8475 3.69027C20.455 3.02752 20.7258 2.7589 21.3562 2.7589V0.000293201C19.9555 0.0261551 18.6467 0.700979 17.8134 1.82683Z" fill="#F3FAFD"/>
</svg>
