<svg width="33" height="30" viewBox="0 0 33 30" fill="none" xmlns="http://www.w3.org/2000/svg">
<path d="M33 14.9995C33 14.6341 32.7801 14.1493 32.5571 13.9136L19.9858 0.492932C19.3991 -0.116708 18.4482 -0.187723 17.7641 0.431111C17.1524 0.984435 17.1372 2.06294 17.7025 2.66403L27.7939 13.4204H1.57171C0.703604 13.4204 0 14.1274 0 14.9996C0 15.8718 0.70362 16.5788 1.57171 16.5788H27.7939L17.7025 27.3351C17.1372 27.9356 17.1768 28.9878 17.7641 29.5681C18.3836 30.1801 19.4083 30.1257 19.9858 29.5062L32.5571 16.0856C32.9263 15.7214 32.9939 15.3712 33 15.0003V14.9995Z" fill="#F3FAFD"/>
</svg>
