<svg width="27" height="27" viewBox="0 0 27 27" fill="none" xmlns="http://www.w3.org/2000/svg">
<g clip-path="url(#clip0_2607_336)">
<path d="M23.7187 0.163651H2.6625C1.33766 0.163651 0.263672 1.23764 0.263672 2.56248V23.6187C0.263672 24.9436 1.33766 26.0175 2.6625 26.0175H23.7187C25.0436 26.0175 26.1176 24.9436 26.1176 23.6187V2.56248C26.1176 1.23764 25.0436 0.163651 23.7187 0.163651Z" fill="#0B63BD"/>
<path d="M9.57586 7.21472C9.57586 7.65052 9.44663 8.07654 9.20451 8.43889C8.96239 8.80125 8.61826 9.08367 8.21563 9.25045C7.813 9.41722 7.36996 9.46086 6.94253 9.37584C6.5151 9.29082 6.12248 9.08096 5.81432 8.7728C5.50617 8.46464 5.29631 8.07202 5.21129 7.64459C5.12626 7.21716 5.1699 6.77412 5.33667 6.37149C5.50345 5.96886 5.78587 5.62473 6.14823 5.38261C6.51059 5.14049 6.9366 5.01126 7.3724 5.01126C7.9568 5.01126 8.51726 5.24341 8.93048 5.65664C9.34371 6.06987 9.57586 6.63033 9.57586 7.21472Z" fill="white"/>
<path d="M9.07698 10.8871V20.622C9.07737 20.6938 9.06355 20.765 9.03634 20.8315C9.00912 20.8979 8.96904 20.9584 8.9184 21.0093C8.86775 21.0602 8.80754 21.1006 8.74123 21.1282C8.67492 21.1557 8.60381 21.1699 8.53199 21.1699H6.20955C6.13773 21.1701 6.06658 21.1561 6.0002 21.1287C5.93381 21.1013 5.87349 21.0611 5.82271 21.0103C5.77193 20.9595 5.73168 20.8992 5.70429 20.8328C5.6769 20.7664 5.66289 20.6953 5.66309 20.6235V10.8871C5.66309 10.7422 5.72066 10.6032 5.82314 10.5007C5.92562 10.3983 6.06462 10.3407 6.20955 10.3407H8.53199C8.67666 10.3411 8.81528 10.3988 8.91744 10.5013C9.01961 10.6037 9.07698 10.7425 9.07698 10.8871Z" fill="white"/>
<path d="M21.2168 15.9551V20.6676C21.217 20.7336 21.2041 20.799 21.179 20.86C21.1538 20.9211 21.1168 20.9765 21.0701 21.0232C21.0234 21.0699 20.9679 21.1069 20.9069 21.1321C20.8459 21.1573 20.7804 21.1701 20.7144 21.17H18.2172C18.1511 21.1701 18.0857 21.1573 18.0247 21.1321C17.9636 21.1069 17.9082 21.0699 17.8615 21.0232C17.8148 20.9765 17.7778 20.9211 17.7526 20.86C17.7274 20.799 17.7146 20.7336 17.7148 20.6676V16.1005C17.7148 15.4189 17.9146 13.1156 15.9329 13.1156C14.3978 13.1156 14.0849 14.6918 14.0232 15.3998V20.6676C14.0233 20.7995 13.9713 20.9262 13.8787 21.0202C13.7861 21.1142 13.6602 21.168 13.5282 21.17H11.1162C11.0502 21.17 10.985 21.1569 10.9241 21.1317C10.8633 21.1064 10.808 21.0694 10.7614 21.0227C10.7149 20.976 10.678 20.9207 10.6529 20.8597C10.6279 20.7988 10.615 20.7335 10.6152 20.6676V10.8446C10.615 10.7786 10.6279 10.7134 10.6529 10.6524C10.678 10.5915 10.7149 10.5361 10.7614 10.4894C10.808 10.4427 10.8633 10.4057 10.9241 10.3804C10.985 10.3552 11.0502 10.3422 11.1162 10.3422H13.5282C13.6614 10.3422 13.7892 10.3951 13.8834 10.4893C13.9777 10.5835 14.0306 10.7113 14.0306 10.8446V11.6936C14.6006 10.8387 15.4452 10.1791 17.2476 10.1791C21.2403 10.1791 21.2168 13.9074 21.2168 15.9551Z" fill="white"/>
</g>
<defs>
<clipPath id="clip0_2607_336">
<rect width="25.8539" height="25.8539" fill="white" transform="translate(0.263672 0.163651)"/>
</clipPath>
</defs>
</svg>
