<svg width="20" height="20" viewBox="0 0 20 20" fill="none" xmlns="http://www.w3.org/2000/svg">
<g clip-path="url(#clip0_2150_355)">
<path d="M18.1443 0H1.85568C0.830817 0 0 0.830817 0 1.85568V18.1443C0 19.1692 0.830817 20 1.85568 20H18.1443C19.1692 20 20 19.1692 20 18.1443V1.85568C20 0.830817 19.1692 0 18.1443 0Z" fill="#0B63BD"/>
<path d="M7.2045 5.45455C7.2045 5.79167 7.10453 6.12123 6.91723 6.40154C6.72994 6.68185 6.46372 6.90033 6.15226 7.02934C5.84079 7.15835 5.49807 7.19211 5.16742 7.12634C4.83677 7.06057 4.53305 6.89823 4.29466 6.65984C4.05628 6.42146 3.89393 6.11774 3.82816 5.78709C3.76239 5.45644 3.79615 5.11371 3.92516 4.80224C4.05417 4.49078 4.27265 4.22457 4.55296 4.03727C4.83327 3.84997 5.16283 3.75 5.49996 3.75C5.95203 3.75 6.38559 3.92959 6.70525 4.24925C7.02492 4.56891 7.2045 5.00247 7.2045 5.45455Z" fill="white"/>
<path d="M6.81816 8.29545V15.8261C6.81846 15.8817 6.80777 15.9368 6.78672 15.9882C6.76567 16.0396 6.73466 16.0863 6.69548 16.1257C6.6563 16.1651 6.60973 16.1964 6.55843 16.2177C6.50713 16.239 6.45212 16.25 6.39657 16.25H4.59998C4.54442 16.2501 4.48938 16.2393 4.43803 16.2181C4.38667 16.1969 4.34001 16.1658 4.30073 16.1265C4.26144 16.0872 4.23031 16.0406 4.20912 15.9892C4.18793 15.9379 4.1771 15.8828 4.17725 15.8273V8.29545C4.17725 8.18334 4.22179 8.07582 4.30106 7.99654C4.38034 7.91726 4.48786 7.87273 4.59998 7.87273H6.39657C6.50848 7.87303 6.61571 7.9177 6.69475 7.99694C6.77378 8.07619 6.81816 8.18354 6.81816 8.29545Z" fill="white"/>
<path d="M16.2091 12.2159V15.8614C16.2092 15.9124 16.1993 15.963 16.1798 16.0103C16.1603 16.0575 16.1317 16.1004 16.0956 16.1365C16.0595 16.1726 16.0166 16.2012 15.9693 16.2207C15.9221 16.2402 15.8715 16.2501 15.8204 16.25H13.8886C13.8375 16.2501 13.7869 16.2402 13.7397 16.2207C13.6925 16.2012 13.6496 16.1726 13.6135 16.1365C13.5774 16.1004 13.5487 16.0575 13.5293 16.0103C13.5098 15.963 13.4998 15.9124 13.5 15.8614V12.3284C13.5 11.8011 13.6545 10.0193 12.1216 10.0193C10.9341 10.0193 10.692 11.2386 10.6443 11.7864V15.8614C10.6443 15.9635 10.6041 16.0615 10.5325 16.1342C10.4608 16.2069 10.3634 16.2485 10.2613 16.25H8.39544C8.34445 16.25 8.29397 16.2399 8.24688 16.2204C8.1998 16.2008 8.15703 16.1722 8.12103 16.1361C8.08503 16.1 8.05651 16.0571 8.03711 16.01C8.0177 15.9629 8.00779 15.9123 8.00794 15.8614V8.2625C8.00779 8.21152 8.0177 8.16101 8.03711 8.11386C8.05651 8.06672 8.08503 8.02386 8.12103 7.98776C8.15703 7.95166 8.1998 7.92301 8.24688 7.90347C8.29397 7.88392 8.34445 7.87386 8.39544 7.87386H10.2613C10.3644 7.87386 10.4633 7.91481 10.5362 7.98769C10.609 8.06058 10.65 8.15943 10.65 8.2625V8.91932C11.0909 8.25795 11.7443 7.74773 13.1386 7.74773C16.2273 7.74773 16.2091 10.6318 16.2091 12.2159Z" fill="white"/>
</g>
<defs>
<clipPath id="clip0_2150_355">
<rect width="20" height="20" fill="white"/>
</clipPath>
</defs>
</svg>
