<svg width="49" height="11" viewBox="0 0 49 11" fill="none" xmlns="http://www.w3.org/2000/svg">
<g clip-path="url(#clip0_2450_689)">
<path d="M44.1748 2.8463C43.4313 3.05383 42.6671 3.17809 41.8962 3.21679L35.6841 3.88986C34.2788 4.05039 32.8928 4.35034 31.5469 4.78525C30.8133 5.03216 30.1076 5.35501 29.4412 5.74855C28.7198 6.2347 27.9691 6.67601 27.1935 7.07C26.7261 7.28877 26.2151 7.39857 25.6991 7.3911C25.131 7.35805 24.5939 7.12127 24.1863 6.7242C23.402 5.91527 23.1859 4.93345 22.6734 4.3036C22.4614 3.99431 22.1425 3.77436 21.778 3.6861C21.3873 3.5995 20.98 3.62736 20.6047 3.76637C19.7622 4.07282 19.0556 4.6679 18.6102 5.44597C18.073 6.24255 17.6531 7.15027 17.0418 8.00242C16.4468 8.91808 15.5652 9.61078 14.5347 9.97225C13.9939 10.1267 13.4206 10.1267 12.8798 9.97225C12.3674 9.82027 11.895 9.55666 11.4966 9.20038C10.7843 8.54664 10.2291 7.74022 9.8726 6.84152C9.51445 6.01407 9.25509 5.21132 8.89694 4.50737C8.48624 3.54511 7.74048 2.76448 6.79799 2.31026C5.85549 1.85605 4.78024 1.75908 3.77169 2.03736C3.23599 2.1724 2.73526 2.42016 2.30294 2.76411C1.87061 3.10805 1.51664 3.54027 1.26464 4.0319C0.861586 4.79062 0.669638 5.64366 0.708872 6.5019C0.724342 7.05179 0.841606 7.59406 1.05469 8.10122C1.19671 8.45937 1.29551 8.63845 1.26464 8.66315C1.23376 8.68785 1.08556 8.53347 0.875609 8.19385C0.572498 7.6873 0.384839 7.12014 0.326024 6.53277C0.207761 5.59313 0.36209 4.6393 0.770626 3.78489C1.03813 3.20365 1.42746 2.68669 1.91221 2.26906C2.39697 1.85142 2.96584 1.54286 3.58027 1.36429C4.33067 1.14526 5.12057 1.09702 5.89205 1.22311C6.66353 1.34919 7.397 1.64641 8.03862 2.09294C8.73678 2.61465 9.29648 3.29945 9.66881 4.08747C10.0702 4.85935 10.3542 5.67444 10.7062 6.44632C11.0168 7.21538 11.4983 7.90376 12.1141 8.45938C12.3951 8.7295 12.7416 8.92169 13.1196 9.01698C13.4975 9.11227 13.8937 9.10737 14.2692 9.00277C15.0793 8.69914 15.77 8.14268 16.239 7.4158C16.7763 6.66862 17.1962 5.76089 17.7828 4.88404C18.0812 4.42941 18.436 4.01443 18.8387 3.64904C19.2631 3.28018 19.7563 2.99896 20.2898 2.82159C20.8405 2.63327 21.4325 2.60121 22.0003 2.72897C22.5764 2.87134 23.0837 3.21248 23.4329 3.69227C24.0875 4.56912 24.3098 5.54477 24.8408 6.03259C25.0818 6.27438 25.4019 6.42125 25.7424 6.44632C26.1175 6.44919 26.4886 6.36906 26.8292 6.21167C27.5749 5.84216 28.2986 5.42981 28.9966 4.97667C29.7194 4.56239 30.4856 4.22898 31.2813 3.9825C32.6896 3.5613 34.1385 3.29016 35.6038 3.17357C38.2591 2.95127 40.3895 2.88334 41.8715 2.80924C42.6382 2.7364 43.4107 2.74884 44.1748 2.8463Z" fill="white"/>
<path d="M42.5629 6.68058C42.5135 6.5509 43.1804 6.18658 44.1869 5.58143C44.6933 5.27885 45.2923 4.90835 45.9345 4.46992C46.2556 4.2538 46.552 4.01297 46.9225 3.76597C47.0811 3.65808 47.2281 3.53391 47.3609 3.39548C47.472 3.28644 47.5602 3.15626 47.6203 3.01262C47.6511 2.89529 47.6203 2.90147 47.6203 2.85824C47.5307 2.77636 47.419 2.72266 47.2992 2.70387L46.1012 2.38278C45.3355 2.17283 44.6501 1.96905 44.0758 1.76528C42.9273 1.39477 42.2233 1.09837 42.2665 0.968694C42.3098 0.839019 43.0507 0.88842 44.2425 1.08602C44.86 1.18482 45.5393 1.32067 46.3173 1.48122L47.5523 1.75292C47.8681 1.81038 48.1576 1.96597 48.3798 2.19752C48.5174 2.35359 48.6055 2.54702 48.633 2.75327C48.6582 2.94282 48.637 3.13567 48.5712 3.3152C48.4677 3.59492 48.3032 3.84806 48.0896 4.0562C47.9155 4.23526 47.7206 4.39282 47.5091 4.52549C47.151 4.78485 46.7866 5.01332 46.4408 5.22327C45.8237 5.59231 45.1797 5.91432 44.5142 6.18657C43.3657 6.66822 42.6123 6.80408 42.5629 6.68058Z" fill="white"/>
</g>
<defs>
<clipPath id="clip0_2450_689">
<rect width="48.3318" height="9.16989" fill="white" transform="translate(0.294678 0.915039)"/>
</clipPath>
</defs>
</svg>
