<svg width="36" height="46" viewBox="0 0 36 46" fill="none" xmlns="http://www.w3.org/2000/svg">
<path d="M21.2871 45.0162H6.55342C4.81534 45.0162 3.14846 44.3833 1.91945 43.2568C0.690448 42.1302 0 40.6022 0 39.009V6.00453C0 4.41132 0.690448 2.88336 1.91945 1.75679C3.14846 0.630216 4.81534 -0.00268555 6.55342 -0.00268555L21.2871 -0.00268555C22.5896 -0.00268555 23.8388 0.47162 24.7599 1.31589C25.6809 2.16016 26.1983 3.30523 26.1983 4.49921V12.9403C26.1589 13.3126 25.9697 13.6581 25.6675 13.9095C25.3654 14.1609 24.9719 14.3002 24.5638 14.3002C24.1557 14.3002 23.7623 14.1609 23.4601 13.9095C23.1579 13.6581 22.9687 13.3126 22.9293 12.9403V4.49921C22.9293 4.09997 22.7563 3.71709 22.4483 3.43479C22.1403 3.15248 21.7226 2.99389 21.2871 2.99389H6.55342C5.68234 2.99389 4.84695 3.31108 4.23101 3.87568C3.61507 4.44029 3.26904 5.20606 3.26904 6.00453V39.009C3.27307 39.8026 3.61878 40.5627 4.23097 41.1238C4.84316 41.685 5.67231 42.0019 6.53807 42.0056H21.2717C21.7046 42.0056 22.12 41.849 22.4276 41.5697C22.7351 41.2904 22.9099 40.9111 22.9139 40.5144V32.0733C22.8918 31.8643 22.9176 31.6535 22.9897 31.4542C23.0618 31.2549 23.1786 31.0717 23.3325 30.9162C23.4864 30.7608 23.6741 30.6366 23.8835 30.5515C24.0929 30.4665 24.3194 30.4226 24.5485 30.4226C24.7775 30.4226 25.004 30.4665 25.2134 30.5515C25.4228 30.6366 25.6105 30.7608 25.7644 30.9162C25.9184 31.0717 26.0351 31.2549 26.1072 31.4542C26.1793 31.6535 26.2051 31.8643 26.183 32.0733V40.5144C26.183 41.7059 25.6677 42.8488 24.7499 43.6927C23.8322 44.5366 22.587 45.0125 21.2871 45.0162Z" fill="#454545"/>
<path d="M35.8819 23.0837C36.0006 22.8094 36.0304 22.5095 35.9678 22.22C35.9052 21.9305 35.7528 21.6638 35.5289 21.4517L30.6177 16.8795C30.3042 16.6273 29.8978 16.494 29.481 16.5064C29.0642 16.5189 28.6682 16.6762 28.3733 16.9465C28.0784 17.2168 27.9068 17.5798 27.8932 17.9619C27.8796 18.344 28.0251 18.7165 28.3002 19.0038L30.4181 20.9453H16.7741C16.368 20.9814 15.991 21.1548 15.7167 21.4318C15.4425 21.7088 15.2905 22.0695 15.2905 22.4436C15.2905 22.8176 15.4425 23.1783 15.7167 23.4553C15.991 23.7323 16.368 23.9057 16.7741 23.9418H30.4181L28.3002 25.8833C27.9745 26.165 27.7843 26.5537 27.7714 26.964C27.7584 27.3742 27.9238 27.7724 28.2311 28.0709C28.5384 28.3694 28.9625 28.5438 29.4101 28.5556C29.8577 28.5675 30.292 28.4159 30.6177 28.1342L35.5289 23.6323C35.6879 23.4746 35.8083 23.2875 35.8819 23.0837Z" fill="#454545"/>
</svg>
