<svg width="495" height="331" viewBox="0 0 495 331" fill="none" xmlns="http://www.w3.org/2000/svg">
<path d="M494.932 325.971C494.932 328.723 384.27 330.953 247.762 330.953C111.254 330.953 0.59137 328.722 0.59137 325.971C0.59137 323.218 111.253 320.988 247.762 320.988C384.271 320.988 494.932 323.218 494.932 325.971Z" fill="#E9E9E9"/>
<path d="M423.085 168.616C422.996 168.536 422.92 168.447 422.833 168.366L416.039 168.459L418.344 162.456C414.403 154.796 415.321 145.187 421.409 138.385C429.294 129.574 442.828 128.823 451.64 136.709C460.451 144.594 461.202 158.128 453.316 166.94C445.431 175.751 431.896 176.502 423.085 168.616ZM460.889 148.098C461.036 148.083 461.142 147.952 461.128 147.805C460.393 140.821 455.861 134.28 449.579 131.139C449.451 131.072 449.288 131.127 449.221 131.259C449.154 131.392 449.208 131.552 449.34 131.618C455.463 134.679 459.881 141.055 460.595 147.862C460.61 148 460.726 148.101 460.861 148.101C460.87 148.099 460.88 148.099 460.889 148.098ZM461.256 154.242C461.509 153.177 461.541 152.046 461.346 150.972C461.32 150.827 461.183 150.73 461.035 150.756C460.889 150.783 460.793 150.922 460.82 151.068C461.002 152.071 460.973 153.126 460.736 154.119C460.702 154.263 460.791 154.407 460.934 154.441C460.956 154.447 460.976 154.449 460.996 154.449C461.117 154.448 461.226 154.365 461.256 154.242Z" fill="#80B3E5"/>
<path d="M436.94 161.779L427.127 154.472L429.676 151.048L436.257 155.947L445.297 145.162L448.569 147.904L436.94 161.779Z" fill="white"/>
<path d="M359.201 118.708C356.475 125.317 349.829 129.443 342.696 128.955C340.899 128.834 339.136 128.417 337.474 127.722C328.978 124.207 324.939 114.471 328.453 105.975C331.967 97.4792 341.704 93.4402 350.2 96.9543C358.695 100.468 362.734 110.203 359.222 118.699L359.201 118.708Z" fill="#80B3E5"/>
<path opacity="0.7" d="M359.201 118.708C356.475 125.317 349.829 129.443 342.696 128.955C340.899 128.834 339.136 128.417 337.474 127.722C328.978 124.207 324.939 114.471 328.453 105.975C331.967 97.4792 341.704 93.4402 350.2 96.9543C358.695 100.468 362.734 110.203 359.222 118.699L359.201 118.708Z" fill="white"/>
<path opacity="0.4" d="M356.96 102.37L327.855 114.448C327.817 114.201 327.777 113.963 327.749 113.716C327.564 112.135 327.616 110.534 327.902 108.968L353.037 98.5381C354.555 99.5805 355.882 100.877 356.96 102.37ZM358.515 105.07L328.64 117.467C329.489 119.796 330.865 121.895 332.661 123.603L360.025 112.256C360.079 109.777 359.562 107.318 358.515 105.07Z" fill="white"/>
<path d="M351.015 94.6489C350.998 94.6417 350.981 94.6348 350.964 94.6279C341.44 90.7082 330.541 95.2519 326.621 104.776C322.851 113.937 326.913 124.367 335.703 128.637C334.514 130.472 333.756 132.522 332.643 134.385C332.033 135.455 324.289 150.369 323.713 151.452L322.83 153.07C322.458 153.666 322.418 154.39 322.723 155.029C323.033 155.744 323.9 156.132 324.705 155.914C325.441 155.737 326.036 155.26 326.316 154.623L327.16 152.985C327.731 151.901 335.346 136.932 335.884 135.829C336.81 133.825 337.705 131.802 338.454 129.719C347.526 132.482 357.383 127.959 361.091 119.023C365.039 109.509 360.528 98.5969 351.015 94.6489ZM358.856 118.094C355.441 126.387 345.95 130.343 337.656 126.929C337.647 126.925 337.638 126.922 337.628 126.918L337.628 126.939C329.338 123.513 325.396 114.016 328.822 105.727C332.247 97.4379 341.744 93.4952 350.034 96.9212C358.307 100.341 362.254 109.811 358.856 118.094Z" fill="#263238"/>
<path d="M359.602 98.1958C359.285 98.4268 358.983 97.8999 359.295 97.6717C361.344 96.1732 363.392 94.6751 365.441 93.1766C365.757 92.9455 366.059 93.4724 365.747 93.7006C363.698 95.1987 361.65 96.6972 359.602 98.1958ZM361.457 101.143C363.057 101.143 364.658 101.143 366.259 101.143C366.649 101.143 366.65 100.536 366.259 100.536C364.658 100.536 363.057 100.536 361.457 100.536C361.066 100.536 361.066 101.143 361.457 101.143ZM357.512 95.7382C357.783 94.1126 358.053 92.4874 358.324 90.8619C358.387 90.4799 357.802 90.3156 357.738 90.7004C357.468 92.326 357.197 93.9511 356.927 95.5767C356.863 95.9587 357.447 96.123 357.512 95.7382Z" fill="#263238"/>
<path d="M257.973 304.775H226.521C230.211 241.719 230.341 176.519 226.521 108.941H257.973C252.636 168.025 252.818 233.513 257.973 304.775Z" fill="#80B3E5"/>
<path opacity="0.8" d="M257.973 304.775H226.521C230.211 241.719 230.341 176.519 226.521 108.941H257.973C252.636 168.025 252.818 233.513 257.973 304.775Z" fill="white"/>
<path d="M329.06 299.407C322.966 297.312 310.766 297.686 310.766 297.686C310.766 297.686 306.956 292.132 303.842 289.663C295.183 282.798 282.02 282.328 272.893 288.556C264.064 272.131 244.76 261.992 226.226 264.048C207.691 266.103 191.077 280.225 186.063 298.185C170.57 295.195 154.1 308.806 154.117 324.585L347.686 325.282C348.639 314.312 342.55 304.043 329.06 299.407Z" fill="#80B3E5"/>
<g opacity="0.7">
<path d="M329.06 299.407C322.966 297.312 310.766 297.686 310.766 297.686C310.766 297.686 306.956 292.132 303.842 289.663C295.183 282.798 282.02 282.328 272.893 288.556C264.064 272.131 244.76 261.992 226.226 264.048C207.691 266.103 191.077 280.225 186.063 298.185C170.57 295.195 154.1 308.806 154.117 324.585L347.686 325.282C348.639 314.312 342.55 304.043 329.06 299.407Z" fill="white"/>
</g>
<path d="M220.395 246.297C219.485 245.433 218.007 244.315 215.617 245.346C214.338 245.755 213.155 247.42 213.186 248.762C213.217 250.104 214.09 251.363 215.287 251.969C216.485 252.575 217.954 252.554 219.187 252.025C220.2 251.591 221.097 250.781 221.413 249.726C221.773 248.525 221.304 247.163 220.395 246.297Z" fill="#80B3E5"/>
<g opacity="0.8">
<path d="M220.395 246.297C219.485 245.433 218.007 244.315 215.617 245.346C214.338 245.755 213.155 247.42 213.186 248.762C213.217 250.104 214.09 251.363 215.287 251.969C216.485 252.575 217.954 252.554 219.187 252.025C220.2 251.591 221.097 250.781 221.413 249.726C221.773 248.525 221.304 247.163 220.395 246.297Z" fill="white"/>
</g>
<path d="M222.007 44.2554C222.007 44.2554 210.192 50.2133 206.635 65.1348C204.043 76.0178 204.828 96.5543 209.499 98.2022C214.171 99.8501 214.692 87.1331 214.731 82.6127C214.77 78.0923 219.006 72.5732 222.78 72.2433C222.78 72.2433 223.519 48.3793 222.007 44.2554Z" fill="#80B3E5"/>
<path opacity="0.2" d="M223.776 47.2128C220.981 48.2781 218.684 50.3218 216.823 52.6076C214.841 55.1225 213.21 57.8959 211.976 60.8513C210.608 64.0082 209.61 67.313 209.003 70.6998C208.436 74.2679 208.159 77.8766 208.175 81.4894C208.112 85.9082 208.004 90.5107 209.729 94.6768C209.795 94.8442 210.072 94.7703 210.002 94.6029C208.509 90.9731 208.42 87.0085 208.447 83.1414C208.478 79.492 208.533 75.8264 209.049 72.208C209.974 65.7796 212.318 59.2773 216.131 53.9833C218.11 51.2392 220.647 48.7088 223.858 47.485C224.029 47.4192 223.955 47.147 223.784 47.2128H223.776Z" fill="black"/>
<path d="M262.487 44.2554C262.487 44.2554 274.302 50.2133 277.858 65.1348C280.451 76.0178 279.666 96.5543 274.994 98.2022C270.322 99.8501 269.802 87.1331 269.763 82.6127C269.724 78.0923 265.488 72.5732 261.713 72.2433C261.713 72.2433 260.974 48.3793 262.487 44.2554Z" fill="#80B3E5"/>
<path opacity="0.2" d="M260.645 47.4807C263.454 48.5533 265.752 50.6367 267.602 52.9648C269.536 55.4611 271.125 58.2068 272.328 61.1264C273.675 64.2679 274.655 67.554 275.247 70.9205C275.865 74.465 275.989 78.0681 276.024 81.6597C276.083 86.0013 276.176 90.5055 274.493 94.5985C274.428 94.7659 274.699 94.839 274.766 94.6725C276.278 90.9955 276.355 86.9691 276.32 83.0516C276.289 79.3552 276.223 75.6433 275.686 71.9785C275.168 68.4893 274.233 65.074 272.903 61.8074C271.747 58.8561 270.218 56.0648 268.352 53.5019C266.381 50.8318 263.866 48.4143 260.719 47.2133C260.548 47.1475 260.474 47.4197 260.645 47.4855V47.4807Z" fill="black"/>
<path d="M258.425 89.5994H225.776C225.776 89.5994 219.799 66.6292 222.143 40.8726C222.775 34.0477 224.507 27.3691 227.273 21.0975C227.312 21 227.355 20.9033 227.398 20.8099C228.082 19.2554 228.801 17.7903 229.539 16.3951C232.439 10.9052 236.056 5.82495 240.293 1.28746C241.234 0.214034 242.868 0.106774 243.941 1.04856C244.026 1.12332 244.106 1.20295 244.18 1.28746C248.553 5.9704 252.264 11.2303 255.21 16.92C255.949 18.3461 256.668 19.8502 257.348 21.4282L257.468 21.7078C260.077 27.8046 261.718 34.2704 262.334 40.8726C264.675 66.6446 258.425 89.5994 258.425 89.5994Z" fill="#80B3E5"/>
<path opacity="0.7" d="M258.425 89.5994H225.776C225.776 89.5994 219.799 66.6292 222.143 40.8726C222.775 34.0477 224.507 27.3691 227.273 21.0975C227.312 21 227.355 20.9033 227.398 20.8099C228.082 19.2554 228.801 17.7903 229.539 16.3951C232.439 10.9052 236.056 5.82495 240.293 1.28746C241.234 0.214034 242.868 0.106774 243.941 1.04856C244.026 1.12332 244.106 1.20295 244.18 1.28746C248.553 5.9704 252.264 11.2303 255.21 16.92C255.949 18.3461 256.668 19.8502 257.348 21.4282L257.468 21.7078C260.077 27.8046 261.718 34.2704 262.334 40.8726C264.675 66.6446 258.425 89.5994 258.425 89.5994Z" fill="white"/>
<path d="M258.498 89.6001H226.301C226.301 89.6001 223.814 94.9599 226.166 98.3452H233.978C233.772 99.2626 233.688 100.486 234.328 101.416H250.831C251.294 100.292 251.192 99.1716 250.985 98.3452H259.168C260.974 93.9726 258.498 89.6001 258.498 89.6001Z" fill="#263238"/>
<path d="M250.838 101.416H234.382C231.052 103.184 222.765 107.406 223.924 114.556H261.721C262.879 107.406 254.169 103.181 250.838 101.416Z" fill="#80B3E5"/>
<path d="M262.859 113.044H222.505V116.157H262.859V113.044Z" fill="#263238"/>
<path d="M255.211 16.9203C252.233 19.0501 247.678 21.4366 242.237 21.4366C237.518 21.4098 232.983 19.6059 229.535 16.384C229.847 15.7957 230.159 15.2236 230.476 14.6662L230.628 14.4053C233.323 9.66551 236.566 5.25885 240.291 1.27636C241.232 0.202934 242.865 0.0956738 243.939 1.03665C244.023 1.11141 244.103 1.19104 244.177 1.27636C247.913 5.26779 251.164 9.68663 253.863 14.4403L254.015 14.7084C254.42 15.4259 254.819 16.1638 255.211 16.9203Z" fill="#80B3E5"/>
<path d="M230.332 86.3285H254.815V86.7015H230.332V86.3285ZM253.866 14.456C251.479 16.1738 248.745 17.348 245.855 17.8957C241.803 18.6416 237.619 18.098 233.892 16.3412C232.746 15.8049 231.652 15.1605 230.627 14.417L230.476 14.677C232.999 16.4964 235.903 17.7169 238.969 18.2451C243.058 18.9252 247.257 18.3223 250.99 16.5192C252.049 16.0072 253.062 15.4051 254.018 14.7193L253.866 14.456ZM257.885 44.9857C256.388 29.874 255.219 23.8268 255.082 23.1621C255.646 22.8549 256.174 22.5437 256.637 22.2406C256.92 22.0659 257.192 21.8871 257.452 21.7083L257.332 21.4288C257.057 21.6157 256.772 21.8172 256.477 21.9887C253.368 23.9511 248.373 26.2954 242.357 26.2954C237.616 26.2978 232.987 24.8433 229.1 22.1293C228.459 21.6864 227.887 21.2395 227.378 20.8112C227.335 20.9047 227.293 21.0014 227.254 21.0989C227.748 21.5109 228.303 21.9383 228.917 22.3698C229.305 22.642 229.745 22.9256 230.207 23.2051C230.04 24.0445 228.886 30.143 227.417 44.9703C226.251 56.5529 227.316 68.0762 228.396 75.7056C229.037 80.3877 229.922 85.0332 231.047 89.6236C231.063 89.6853 231.119 89.7284 231.182 89.7284H231.217C231.291 89.7072 231.336 89.6325 231.318 89.5577C230.196 84.9764 229.314 80.3397 228.676 75.6674C227.595 68.0575 226.55 56.5602 227.696 45.006C229.119 30.6484 230.246 24.4882 230.463 23.3498C234.067 25.4885 238.181 26.6164 242.372 26.6147C246.725 26.5595 250.997 25.43 254.809 23.3262C255.003 24.3135 256.143 30.4388 257.588 45.0328C258.735 56.5878 257.689 68.0843 256.609 75.695C255.97 80.3682 255.088 85.0048 253.966 89.5862C253.949 89.6609 253.993 89.7365 254.066 89.7568H254.101C254.166 89.7568 254.222 89.7137 254.237 89.652C255.362 85.0617 256.247 80.4161 256.888 75.734C257.986 68.0916 259.035 56.5683 257.885 44.9857ZM253.186 50.2131C253.186 50.2106 253.186 50.2082 253.186 50.205C253.183 44.2308 248.339 39.3902 242.365 39.3927C236.391 39.3951 231.55 44.2389 231.553 50.2131C231.555 56.1872 236.399 61.0278 242.373 61.0254C248.342 61.0197 253.179 56.1823 253.186 50.2131ZM252.906 50.2131C252.906 56.0304 248.191 60.7458 242.373 60.7458C236.556 60.7458 231.841 56.0304 231.841 50.2131C231.841 44.3958 236.556 39.6803 242.373 39.6803C248.187 39.6868 252.9 44.399 252.906 50.2131Z" fill="#80B3E5"/>
<path d="M250.562 50.2094C250.562 54.7323 246.896 58.3987 242.373 58.3987H242.183C240.796 58.3711 239.441 57.9883 238.246 57.2871C237.321 56.7459 236.511 56.0308 235.859 55.1809C234.768 53.7548 234.179 52.0085 234.184 50.2135C234.185 49.895 234.203 49.5772 234.239 49.2612C234.685 45.4964 237.653 42.5289 241.417 42.0828C241.735 42.047 242.054 42.0291 242.373 42.0283C246.818 42.0332 250.449 45.5793 250.559 50.0234C250.562 50.0843 250.562 50.1469 250.562 50.2094Z" fill="#80B3E5"/>
<path opacity="0.1" d="M247.337 43.7141L235.86 55.1911C234.769 53.7658 234.18 52.0188 234.185 50.2238C234.186 49.9052 234.204 49.5875 234.239 49.2714L241.418 42.093C241.736 42.0573 242.055 42.0394 242.374 42.0386C244.167 42.037 245.911 42.6253 247.337 43.7141ZM249.443 46.0885L238.245 57.2819C239.442 57.9832 240.797 58.3659 242.182 58.3935L250.558 50.0182C250.529 48.6343 250.146 47.2814 249.443 46.0885Z" fill="white"/>
<path d="M154.368 19.6436C142.52 19.5046 132.803 28.9957 132.664 40.844C132.588 47.2732 135.4 53.3976 140.325 57.5305C141.232 58.278 142.616 59.1825 142.585 61.0563C142.584 61.114 142.68 65.7449 142.68 65.7449H165.245C165.245 65.7449 165.341 60.9336 165.341 60.8783C165.341 59.2288 166.618 58.5169 167.559 57.7734C172.55 53.7714 175.489 47.7461 175.567 41.3486C175.706 29.5003 166.215 19.7825 154.368 19.6436Z" fill="#80B3E5"/>
<path opacity="0.4" d="M154.368 19.6436C142.52 19.5046 132.803 28.9957 132.664 40.844C132.588 47.2732 135.4 53.3976 140.325 57.5305C141.232 58.278 142.616 59.1825 142.585 61.0563C142.584 61.114 142.68 65.7449 142.68 65.7449H165.245C165.245 65.7449 165.341 60.9336 165.341 60.8783C165.341 59.2288 166.618 58.5169 167.559 57.7734C172.55 53.7714 175.489 47.7461 175.567 41.3486C175.706 29.5003 166.215 19.7825 154.368 19.6436Z" fill="white"/>
<path opacity="0.2" d="M165.032 28.8876C165.032 33.0643 160.144 36.4585 154.083 36.4585C148.021 36.4585 143.133 33.0643 143.133 28.8876C143.133 24.7109 148.021 21.3086 154.083 21.3086C160.144 21.3086 165.032 24.7036 165.032 28.8876Z" fill="white"/>
<path d="M137.594 49.3531C135.693 46.0938 134.949 42.243 135.5 38.5108C136.051 34.7786 137.875 31.3072 140.637 28.7354L140.914 29.0328C138.219 31.5412 136.44 34.9289 135.903 38.5701C135.365 42.2113 136.09 45.9679 137.945 49.1483L137.594 49.3531Z" fill="white"/>
<path d="M160.292 61.1825C159.208 58.3271 158.304 55.3904 157.586 52.3952C156.489 53.3297 155.292 53.7986 154.13 53.7498C153.202 53.7043 152.275 53.3289 151.323 52.6089C151.169 55.5107 150.683 58.3905 149.865 61.1712L149.086 60.942C149.943 58.024 150.429 54.9939 150.54 51.9442C150.389 51.802 150.236 51.6509 150.083 51.4916C147.669 48.9775 146.541 45.8604 147.065 43.1537C147.267 42.1079 147.903 41.0629 148.877 41.0889C149.76 41.1108 150.409 41.9657 150.703 43.4958C151.215 46.1659 151.434 48.8857 151.364 51.5948C152.346 52.4537 153.27 52.895 154.17 52.9388C155.519 53.0063 156.667 52.171 157.375 51.49C156.854 49.1904 156.442 46.8583 156.142 44.505C156.032 43.6445 155.949 42.8034 156.138 41.9811C156.372 40.9621 157.032 40.1942 157.82 40.026C159.183 39.7286 160.285 41.171 160.659 42.7425C161.393 45.8287 160.468 49.3472 158.301 51.7061C158.289 51.7183 158.279 51.7297 158.267 51.7419C158.995 54.8647 159.927 57.9249 161.054 60.8957L160.292 61.1825ZM148.845 41.9007C148.383 41.9007 147.995 42.6222 147.862 43.3072C147.396 45.7158 148.404 48.5135 150.563 50.8164C150.577 48.416 150.358 46.0115 149.904 43.6477C149.743 42.8116 149.383 41.9128 148.856 41.9007C148.852 41.9007 148.848 41.9007 148.845 41.9007ZM158.161 40.8012C158.103 40.8012 158.046 40.8069 157.989 40.8191C157.443 40.9361 157.063 41.5781 156.929 42.1615C156.77 42.8538 156.846 43.616 156.946 44.401C157.219 46.5405 157.586 48.6614 158.043 50.7562C159.758 48.6248 160.49 45.5484 159.867 42.9294C159.607 41.8373 158.915 40.8012 158.161 40.8012Z" fill="#263238"/>
<path d="M166.524 64.3823H141.518C140.798 64.3823 140.215 64.9658 140.215 65.6857V65.8027C140.215 66.43 140.659 66.9534 141.249 67.0777C140.896 67.3109 140.663 67.7099 140.663 68.1649V68.1934C140.663 68.7784 141.05 69.2676 141.581 69.4325C141.245 69.6682 141.023 70.0574 141.023 70.4995V70.5279C141.023 71.2479 141.607 71.8313 142.327 71.8313H142.876C142.525 72.0653 142.294 72.4635 142.294 72.9161V72.9446C142.294 73.6645 142.877 74.2479 143.597 74.2479H146.156C148.005 77.0075 151.178 79.5899 154.324 79.4046C157.365 79.225 160.241 76.9677 161.818 74.2479H164.445C165.165 74.2479 165.749 73.6645 165.749 72.9446V72.9161C165.749 72.4627 165.517 72.0645 165.166 71.8313H165.716C166.436 71.8313 167.019 71.2479 167.019 70.5279V70.4995C167.019 70.0574 166.798 69.6682 166.462 69.4325C166.992 69.2676 167.38 68.7784 167.38 68.1934V68.1649C167.38 67.7107 167.147 67.3109 166.794 67.0777C167.384 66.9534 167.827 66.43 167.827 65.8027V65.6857C167.827 64.9658 167.244 64.3823 166.524 64.3823Z" fill="#263238"/>
<path opacity="0.3" d="M166.524 64.3823H141.518C140.798 64.3823 140.215 64.9658 140.215 65.6857V65.8027C140.215 66.43 140.659 66.9534 141.249 67.0777C140.896 67.3109 140.663 67.7099 140.663 68.1649V68.1934C140.663 68.7784 141.05 69.2676 141.581 69.4325C141.245 69.6682 141.023 70.0574 141.023 70.4995V70.5279C141.023 71.2479 141.607 71.8313 142.327 71.8313H142.876C142.525 72.0653 142.294 72.4635 142.294 72.9161V72.9446C142.294 73.6645 142.877 74.2479 143.597 74.2479H164.445C165.165 74.2479 165.749 73.6645 165.749 72.9446V72.9161C165.749 72.4627 165.517 72.0645 165.166 71.8313H165.716C166.436 71.8313 167.019 71.2479 167.019 70.5279V70.4995C167.019 70.0574 166.798 69.6682 166.462 69.4325C166.992 69.2676 167.38 68.7784 167.38 68.1934V68.1649C167.38 67.7107 167.147 67.3109 166.794 67.0777C167.384 66.9534 167.827 66.43 167.827 65.8027V65.6857C167.827 64.9658 167.244 64.3823 166.524 64.3823Z" fill="white"/>
<path d="M142.177 11.8984C141.899 11.6204 142.331 11.1898 142.608 11.4677C144.239 13.0985 145.869 14.7286 147.5 16.3595C147.778 16.6374 147.346 17.068 147.069 16.7901C145.439 15.1593 143.808 13.5284 142.177 11.8984ZM155.013 14.8326C155.013 11.7472 155.013 8.66263 155.013 5.57805C155.013 5.18557 154.403 5.18557 154.403 5.57805C154.403 8.66344 154.403 11.748 154.403 14.8326C154.403 15.2243 155.013 15.2251 155.013 14.8326ZM161.784 17.1867C163.547 15.4242 165.31 13.6609 167.072 11.8984C167.35 11.6204 166.919 11.1898 166.642 11.4677C164.879 13.2302 163.116 14.9935 161.353 16.756C161.075 17.0331 161.506 17.4646 161.784 17.1867Z" fill="#263238"/>
<path d="M74.1387 102.109L24.5652 93.2303C22.8742 92.9272 21.7496 91.3118 22.0519 89.6208L35.4157 15.0009C35.7188 13.3099 37.3342 12.1853 39.0252 12.4876L88.5987 21.3659C90.2897 21.669 91.4143 23.2844 91.112 24.9754L77.7482 99.5953C77.4451 101.286 75.8297 102.412 74.1387 102.109Z" fill="#263238"/>
<path d="M88.6639 23.9416L38.0579 14.8774L24.509 90.5221L75.115 99.5863L88.6639 23.9416Z" fill="white"/>
<path opacity="0.3" d="M50.3518 14.5293C50.1162 14.8836 48.1318 21.7581 48.1318 21.7581C48.1318 21.7581 78.109 27.6404 77.7547 27.5697C77.4004 27.499 78.2577 19.5275 78.1325 19.5048C78.0082 19.482 50.3518 14.5293 50.3518 14.5293Z" fill="black"/>
<path d="M15.7022 37.6359C9.37292 32.8294 8.13779 23.8024 12.9442 17.4723C17.7507 11.1423 26.7777 9.90797 33.1078 14.7144C37.9939 18.4247 39.8287 24.6483 38.2068 30.2072L40.495 33.8736L36.0006 34.6805C35.9535 34.7447 35.9145 34.8138 35.8657 34.8779C31.0592 41.208 22.0322 42.4423 15.7022 37.6359ZM8.29868 26.1938C8.41082 26.1841 8.49371 26.0858 8.48396 25.9736C8.0866 21.3979 10.1839 16.6337 13.8259 13.836C13.9145 13.7678 13.9315 13.6402 13.8633 13.5508C13.7942 13.4614 13.6666 13.446 13.5781 13.5134C9.82879 16.3932 7.66974 21.298 8.07847 26.0077C8.08741 26.1134 8.1768 26.1938 8.28 26.1938C8.2865 26.1946 8.29218 26.1946 8.29868 26.1938ZM9.08771 30.3827C9.19009 30.3364 9.2356 30.2161 9.18847 30.1138C8.90731 29.4921 8.75373 28.803 8.74561 28.1197C8.74398 28.0075 8.66435 27.9035 8.54002 27.9198C8.42789 27.9214 8.3385 28.0132 8.33931 28.1254C8.34907 28.864 8.51483 29.6091 8.81874 30.2811C8.85287 30.3559 8.926 30.4006 9.00401 30.4006C9.03164 30.4006 9.06089 30.3949 9.08771 30.3827Z" fill="#80B3E5"/>
<path opacity="0.5" d="M15.7022 37.6359C9.37292 32.8294 8.13779 23.8024 12.9442 17.4723C17.7507 11.1423 26.7777 9.90797 33.1078 14.7144C37.9939 18.4247 39.8287 24.6483 38.2068 30.2072L40.495 33.8736L36.0006 34.6805C35.9535 34.7447 35.9145 34.8138 35.8657 34.8779C31.0592 41.208 22.0322 42.4423 15.7022 37.6359ZM8.29868 26.1938C8.41082 26.1841 8.49371 26.0858 8.48396 25.9736C8.0866 21.3979 10.1839 16.6337 13.8259 13.836C13.9145 13.7678 13.9315 13.6402 13.8633 13.5508C13.7942 13.4614 13.6666 13.446 13.5781 13.5134C9.82879 16.3932 7.66974 21.298 8.07847 26.0077C8.08741 26.1134 8.1768 26.1938 8.28 26.1938C8.2865 26.1946 8.29218 26.1946 8.29868 26.1938ZM9.08771 30.3827C9.19009 30.3364 9.2356 30.2161 9.18847 30.1138C8.90731 29.4921 8.75373 28.803 8.74561 28.1197C8.74398 28.0075 8.66435 27.9035 8.54002 27.9198C8.42789 27.9214 8.3385 28.0132 8.33931 28.1254C8.34907 28.864 8.51483 29.6091 8.81874 30.2811C8.85287 30.3559 8.926 30.4006 9.00401 30.4006C9.03164 30.4006 9.06089 30.3949 9.08771 30.3827Z" fill="white"/>
<path d="M23.4828 32.4591L16.8878 27.5478L18.6016 25.2457L23.0245 28.5391L29.101 21.29L31.2999 23.133L23.4828 32.4591Z" fill="white"/>
<path d="M78.4803 53.0712L40.2782 45.7588L40.5293 44.4448L78.7314 51.7573L78.4803 53.0712ZM71.6221 83.6383L33.3354 76.7817L33.0998 78.0981L71.3864 84.9547L71.6221 83.6383ZM72.6988 78.5158L34.4121 71.6592L34.1765 72.9756L72.4631 79.8322L72.6988 78.5158ZM73.7763 73.3932L35.4896 66.5366L35.254 67.853L73.5406 74.7096L73.7763 73.3932ZM74.8538 68.2715L36.5671 61.4149L36.3314 62.7313L74.6181 69.5879L74.8538 68.2715ZM75.9304 63.1489L37.6438 56.2923L37.4081 57.6087L75.6948 64.4653L75.9304 63.1489ZM70.7616 88.5268L32.4749 81.6702L32.2393 82.9866L70.5259 89.8432L70.7616 88.5268ZM78.1439 55.7016L39.9418 48.3891L39.6907 49.7023L77.8928 57.0147L78.1439 55.7016ZM76.6057 59.5809L38.4035 52.2684L38.1525 53.5815L76.3546 60.894L76.6057 59.5809ZM81.3975 34.8823L43.1954 27.5698L42.9443 28.883L81.1464 36.1954L81.3975 34.8823ZM79.5586 43.0902L41.3565 35.7778L41.1054 37.0909L79.3075 44.4034L79.5586 43.0902ZM55.9197 34.4224L42.4624 31.8465L42.2113 33.1596L55.6686 35.7355L55.9197 34.4224ZM80.5094 39.0874L57.3393 34.6523L57.0882 35.9655L80.2583 40.4006L80.5094 39.0874ZM54.3571 42.7506L40.8998 40.1747L40.6487 41.4878L54.106 44.0637L54.3571 42.7506ZM78.9468 47.4156L55.7766 42.9805L55.5256 44.2937L78.6957 48.7288L78.9468 47.4156Z" fill="#263238"/>
<path d="M67.5998 14.0881L69.0121 10.3161L62.2871 9.11182L62.218 13.1244L51.6755 11.2367L49.952 20.8634L76.7398 25.661L78.4641 16.0342L67.5998 14.0881Z" fill="#263238"/>
<path d="M378.022 165.217H282.118V199.137H378.022V165.217Z" fill="#80B3E5"/>
<path d="M308.256 180.5H306.344V179.373H311.554V180.5H309.641V185.352H308.257V180.5H308.256ZM316.926 184.242V185.352H312.297V179.373H316.815V180.483H313.672V181.781H316.448V182.857H313.672V184.241L316.926 184.242ZM318.621 185.263C318.18 185.135 317.826 184.968 317.557 184.763L318.027 183.721C318.283 183.909 318.588 184.06 318.941 184.174C319.295 184.288 319.647 184.345 320.001 184.345C320.393 184.345 320.684 184.287 320.872 184.17C321.059 184.053 321.154 183.898 321.154 183.705C321.154 183.562 321.098 183.444 320.987 183.351C320.876 183.257 320.733 183.181 320.561 183.125C320.387 183.068 320.152 183.005 319.856 182.937C319.4 182.829 319.027 182.72 318.737 182.613C318.447 182.505 318.198 182.331 317.99 182.091C317.781 181.852 317.677 181.534 317.677 181.135C317.677 180.787 317.771 180.472 317.959 180.191C318.147 179.908 318.431 179.686 318.809 179.521C319.188 179.356 319.65 179.273 320.197 179.273C320.579 179.273 320.952 179.318 321.316 179.409C321.68 179.5 322 179.631 322.273 179.802L321.847 180.853C321.293 180.539 320.742 180.383 320.189 180.383C319.802 180.383 319.516 180.446 319.331 180.571C319.145 180.696 319.053 180.861 319.053 181.065C319.053 181.27 319.16 181.422 319.374 181.523C319.588 181.622 319.913 181.72 320.352 181.817C320.808 181.925 321.181 182.034 321.471 182.141C321.761 182.249 322.01 182.421 322.218 182.654C322.426 182.887 322.53 183.203 322.53 183.602C322.53 183.944 322.434 184.256 322.243 184.537C322.053 184.819 321.766 185.042 321.384 185.207C321.003 185.372 320.539 185.455 319.993 185.455C319.52 185.454 319.062 185.39 318.621 185.263ZM324.63 180.5H322.717V179.373H327.927V180.5H326.014V185.352H324.63V180.5ZM328.669 179.374H330.053V185.353H328.669V179.374ZM336.954 179.374V185.353H335.818L332.837 181.723V185.353H331.47V179.374H332.615L335.587 183.004V179.374H336.954ZM342.412 182.268H343.676V184.694C343.352 184.939 342.977 185.127 342.549 185.258C342.122 185.388 341.692 185.453 341.259 185.453C340.638 185.453 340.081 185.321 339.586 185.057C339.09 184.792 338.702 184.425 338.42 183.955C338.137 183.485 337.997 182.955 337.997 182.362C337.997 181.77 338.138 181.239 338.42 180.77C338.702 180.3 339.092 179.933 339.593 179.667C340.094 179.402 340.658 179.271 341.285 179.271C341.809 179.271 342.283 179.358 342.711 179.535C343.137 179.712 343.497 179.968 343.787 180.303L342.899 181.123C342.472 180.673 341.956 180.449 341.353 180.449C340.971 180.449 340.632 180.528 340.336 180.688C340.041 180.847 339.81 181.073 339.644 181.363C339.479 181.653 339.396 181.986 339.396 182.362C339.396 182.731 339.479 183.061 339.644 183.352C339.809 183.642 340.038 183.87 340.332 184.031C340.625 184.194 340.96 184.275 341.335 184.275C341.733 184.275 342.092 184.19 342.411 184.019V182.268H342.412Z" fill="white"/>
<path opacity="0.3" d="M378.022 165.176H370.575V199.096H378.022V165.176Z" fill="black"/>
<path d="M289.673 126.618H185.899V160.539H289.673V126.618Z" fill="#80B3E5"/>
<path d="M195.878 139.503H197.262V145.482H195.878V139.503ZM204.12 145.482L204.111 141.894L202.352 144.85H201.728L199.977 141.971V145.482H198.678V139.503H199.823L202.061 143.219L204.264 139.503H205.4L205.417 145.482H204.12ZM210.804 139.768C211.193 139.945 211.494 140.195 211.704 140.52C211.915 140.844 212.021 141.229 212.021 141.673C212.021 142.111 211.915 142.495 211.704 142.821C211.493 143.149 211.193 143.4 210.804 143.573C210.413 143.747 209.954 143.834 209.425 143.834H208.22V145.482H206.836V139.503H209.425C209.954 139.503 210.413 139.592 210.804 139.768ZM210.295 142.437C210.512 142.257 210.619 142.003 210.619 141.672C210.619 141.336 210.511 141.079 210.295 140.899C210.079 140.72 209.763 140.63 209.347 140.63H208.22V142.706H209.347C209.763 142.706 210.079 142.616 210.295 142.437ZM213.002 139.503H214.386V144.355H217.385V145.482H213.002V139.503ZM222.791 144.372V145.482H218.162V139.503H222.68V140.613H219.537V141.912H222.313V142.988H219.537V144.372H222.791ZM229.334 145.482L229.325 141.894L227.566 144.85H226.942L225.19 141.971V145.482H223.892V139.503H225.037L227.275 143.219L229.478 139.503H230.614L230.631 145.482H229.334ZM236.679 144.372V145.482H232.049V139.503H236.567V140.613H233.424V141.912H236.2V142.988H233.424V144.372H236.679ZM243.263 139.503V145.482H242.128L239.147 141.852V145.482H237.78V139.503H238.925L241.896 143.133V139.503H243.263ZM245.92 140.63H244.007V139.503H249.218V140.63H247.305V145.482H245.921L245.92 140.63ZM253.599 144.201H250.823L250.294 145.482H248.876L251.541 139.503H252.908L255.581 145.482H254.13L253.599 144.201ZM253.163 143.15L252.215 140.861L251.267 143.15H253.163ZM257.144 140.63H255.231V139.503H260.441V140.63H258.528V145.482H257.145V140.63H257.144ZM261.184 139.503H262.568V145.482H261.184V139.503ZM265.202 145.183C264.704 144.915 264.314 144.546 264.033 144.077C263.75 143.607 263.609 143.08 263.609 142.493C263.609 141.906 263.75 141.378 264.033 140.908C264.315 140.439 264.704 140.071 265.202 139.802C265.7 139.535 266.26 139.402 266.88 139.402C267.5 139.402 268.058 139.535 268.555 139.802C269.05 140.071 269.44 140.439 269.724 140.908C270.009 141.378 270.151 141.907 270.151 142.493C270.151 143.08 270.009 143.607 269.724 144.077C269.439 144.546 269.05 144.915 268.555 145.183C268.059 145.451 267.501 145.584 266.88 145.584C266.259 145.584 265.7 145.451 265.202 145.183ZM267.837 144.163C268.122 144.001 268.345 143.774 268.507 143.483C268.669 143.193 268.751 142.863 268.751 142.493C268.751 142.123 268.669 141.792 268.507 141.502C268.345 141.211 268.121 140.985 267.837 140.823C267.552 140.661 267.234 140.579 266.88 140.579C266.527 140.579 266.208 140.661 265.924 140.823C265.639 140.985 265.415 141.211 265.253 141.502C265.091 141.792 265.01 142.123 265.01 142.493C265.01 142.863 265.091 143.193 265.253 143.483C265.415 143.774 265.639 144.001 265.924 144.163C266.208 144.325 266.527 144.407 266.88 144.407C267.234 144.406 267.552 144.325 267.837 144.163ZM276.677 139.503V145.482H275.541L272.559 141.852V145.482H271.193V139.503H272.337L275.309 143.133V139.503H276.677Z" fill="white"/>
<path opacity="0.3" d="M289.673 126.618H282.226V160.539H289.673V126.618Z" fill="black"/>
<path d="M201.387 120.444H105.484V86.8779H201.387V120.444ZM127.336 123.234C136.532 123.234 145.727 123.234 154.923 123.234C155.708 123.234 155.709 122.015 154.923 122.015C145.727 122.015 136.532 122.015 127.336 122.015C126.552 122.015 126.55 123.234 127.336 123.234Z" fill="#80B3E5"/>
<path d="M133.461 100.49H136.178C136.827 100.49 137.401 100.613 137.899 100.861C138.397 101.109 138.785 101.457 139.061 101.907C139.337 102.357 139.475 102.88 139.475 103.479C139.475 104.076 139.337 104.601 139.061 105.051C138.785 105.501 138.398 105.849 137.899 106.097C137.4 106.345 136.827 106.469 136.178 106.469H133.461V100.49ZM136.11 105.332C136.707 105.332 137.184 105.166 137.541 104.833C137.897 104.5 138.074 104.048 138.074 103.479C138.074 102.909 137.896 102.458 137.541 102.125C137.185 101.792 136.708 101.626 136.11 101.626H134.845V105.332H136.11ZM145.146 105.358V106.468H140.516V100.49H145.035V101.6H141.892V102.898H144.668V103.974H141.892V105.358H145.146ZM146.841 106.378C146.399 106.251 146.045 106.084 145.777 105.879L146.247 104.837C146.503 105.025 146.807 105.176 147.161 105.29C147.514 105.404 147.867 105.461 148.22 105.461C148.613 105.461 148.904 105.402 149.092 105.285C149.278 105.168 149.374 105.014 149.374 104.821C149.374 104.678 149.318 104.56 149.207 104.466C149.096 104.373 148.953 104.297 148.78 104.24C148.606 104.184 148.372 104.121 148.076 104.053C147.62 103.945 147.247 103.836 146.957 103.729C146.667 103.62 146.417 103.447 146.209 103.207C146.001 102.968 145.897 102.649 145.897 102.25C145.897 101.903 145.991 101.589 146.179 101.307C146.367 101.024 146.651 100.802 147.029 100.637C147.408 100.472 147.87 100.389 148.417 100.389C148.799 100.389 149.172 100.434 149.536 100.525C149.9 100.616 150.219 100.747 150.493 100.918L150.067 101.969C149.513 101.655 148.962 101.499 148.409 101.499C148.021 101.499 147.736 101.561 147.551 101.687C147.365 101.812 147.273 101.977 147.273 102.182C147.273 102.387 147.379 102.539 147.594 102.64C147.808 102.739 148.133 102.837 148.571 102.934C149.027 103.042 149.4 103.151 149.69 103.258C149.981 103.366 150.23 103.538 150.438 103.771C150.646 104.004 150.75 104.32 150.75 104.719C150.75 105.06 150.654 105.372 150.464 105.654C150.274 105.936 149.987 106.159 149.605 106.324C149.223 106.489 148.76 106.572 148.213 106.572C147.739 106.57 147.282 106.506 146.841 106.378ZM151.696 100.49H153.08V106.468H151.696V100.49ZM158.537 103.384H159.801V105.81C159.477 106.055 159.102 106.243 158.674 106.374C158.247 106.504 157.817 106.569 157.384 106.569C156.763 106.569 156.206 106.437 155.711 106.173C155.215 105.908 154.827 105.541 154.545 105.071C154.262 104.601 154.121 104.071 154.121 103.478C154.121 102.886 154.262 102.355 154.545 101.886C154.827 101.416 155.218 101.049 155.718 100.784C156.22 100.519 156.783 100.387 157.41 100.387C157.934 100.387 158.409 100.475 158.836 100.651C159.263 100.828 159.622 101.084 159.912 101.42L159.024 102.24C158.597 101.79 158.081 101.565 157.478 101.565C157.096 101.565 156.757 101.645 156.462 101.804C156.166 101.964 155.935 102.19 155.769 102.48C155.604 102.77 155.522 103.103 155.522 103.479C155.522 103.849 155.604 104.179 155.769 104.47C155.934 104.76 156.163 104.987 156.458 105.149C156.75 105.311 157.085 105.393 157.46 105.393C157.859 105.393 158.218 105.307 158.536 105.137L158.537 103.384ZM166.565 100.49V106.468H165.43L162.449 102.838V106.468H161.082V100.49H162.227L165.199 104.119V100.49H166.565Z" fill="white"/>
<path opacity="0.3" d="M201.387 86.8779H193.941V120.444H201.387V86.8779Z" fill="black"/>
<path d="M101.701 83.8299L5.79755 83.4829V50.2627H101.701V83.8299Z" fill="#80B3E5"/>
<path d="M19.4149 69.9616L18.2618 68.2958H18.1936H16.9893V69.9616H15.6055V63.9826H18.1936C18.7234 63.9826 19.1833 64.0712 19.5733 64.2475C19.9634 64.4238 20.264 64.6741 20.4745 64.9991C20.6849 65.3242 20.7906 65.7085 20.7906 66.1522C20.7906 66.5967 20.6841 66.9794 20.4704 67.3012C20.2567 67.623 19.9536 67.8692 19.5603 68.0398L20.9011 69.9616H19.4149ZM19.0655 65.3786C18.8485 65.199 18.5332 65.1096 18.1172 65.1096H16.9901V67.1931H18.1172C18.5332 67.1931 18.8485 67.1021 19.0655 66.9201C19.2816 66.7373 19.3897 66.4813 19.3897 66.1514C19.3897 65.8166 19.2816 65.5582 19.0655 65.3786ZM26.5128 68.8508V69.9608H21.8835V63.9818H26.4015V65.0926H23.2584V66.3911H26.035V67.467H23.2584V68.8508H26.5128ZM34.0634 70.6019C33.87 70.8408 33.6351 71.0237 33.3589 71.1488C33.0826 71.2739 32.7795 71.3365 32.4496 71.3365C32.0051 71.3365 31.6045 71.2406 31.2453 71.0505C30.887 70.8595 30.4766 70.5223 30.0159 70.038C29.4747 69.9697 28.992 69.7958 28.5679 69.5171C28.1437 69.2384 27.813 68.8776 27.5773 68.4372C27.3408 67.996 27.223 67.5076 27.223 66.9721C27.223 66.3854 27.3636 65.8572 27.6456 65.3875C27.9275 64.9179 28.3176 64.549 28.8157 64.2816C29.3138 64.0143 29.8737 63.8802 30.4937 63.8802C31.1137 63.8802 31.6727 64.0143 32.1676 64.2816C32.6633 64.5498 33.0533 64.9179 33.3377 65.3875C33.623 65.8572 33.7652 66.3854 33.7652 66.9721C33.7652 67.6669 33.5701 68.2763 33.1801 68.7996C32.7901 69.3237 32.2732 69.6878 31.6297 69.8933C31.7719 70.0412 31.91 70.1477 32.0441 70.2135C32.1782 70.2793 32.322 70.3118 32.4756 70.3118C32.8453 70.3118 33.1703 70.1631 33.4491 69.8673L34.0634 70.6019ZM28.8661 67.9626C29.0286 68.2527 29.2521 68.4794 29.5365 68.6411C29.8217 68.8037 30.1402 68.8849 30.4929 68.8849C30.8455 68.8849 31.1649 68.8037 31.4493 68.6411C31.7345 68.4786 31.9572 68.2527 32.1197 67.9626C32.2822 67.6725 32.3626 67.3418 32.3626 66.9721C32.3626 66.6024 32.2814 66.2716 32.1197 65.9815C31.9572 65.6915 31.7337 65.4647 31.4493 65.3022C31.1641 65.1397 30.8455 65.0593 30.4929 65.0593C30.1402 65.0593 29.8209 65.1405 29.5365 65.3022C29.2512 65.4647 29.0286 65.6915 28.8661 65.9815C28.7036 66.2716 28.6231 66.6024 28.6231 66.9721C28.6223 67.3418 28.7036 67.6725 28.8661 67.9626ZM35.4683 69.3546C34.993 68.8825 34.7557 68.2072 34.7557 67.3304V63.9818H36.1395V67.2793C36.1395 68.3494 36.5832 68.8849 37.4722 68.8849C37.9045 68.8849 38.2352 68.7549 38.4627 68.4957C38.6903 68.2365 38.804 67.831 38.804 67.2784V63.981H40.1708V67.3296C40.1708 68.2064 39.9335 68.8817 39.4581 69.3538C38.9828 69.8267 38.3181 70.0624 37.4632 70.0624C36.6084 70.0632 35.9437 69.8275 35.4683 69.3546ZM41.5367 63.9826H42.9206V69.9616H41.5367V63.9826ZM48.1471 69.9616L46.9941 68.2958H46.9258H45.7216V69.9616H44.3377V63.9826H46.9258C47.4556 63.9826 47.9156 64.0712 48.3056 64.2475C48.6956 64.4238 48.9963 64.6741 49.2067 64.9991C49.4172 65.3242 49.5228 65.7085 49.5228 66.1522C49.5228 66.5967 49.4164 66.9794 49.2027 67.3012C48.989 67.623 48.6859 67.8692 48.2926 68.0398L49.6334 69.9616H48.1471ZM47.7969 65.3786C47.58 65.199 47.2647 65.1096 46.8486 65.1096H45.7216V67.1931H46.8486C47.2647 67.1931 47.58 67.1021 47.7969 66.9201C48.0131 66.7373 48.1211 66.4813 48.1211 66.1514C48.1211 65.8166 48.0131 65.5582 47.7969 65.3786ZM55.2443 68.8508V69.9608H50.615V63.9818H55.1329V65.0926H51.9899V66.3911H54.7665V67.467H51.9899V68.8508H55.2443ZM61.7872 69.9616L61.7791 66.374L60.019 69.3294H59.3958L57.6447 66.4512V69.9616H56.3461V63.9826H57.4903L59.7281 67.6977L61.9319 63.9826H63.0679L63.0849 69.9616H61.7872ZM69.1322 68.8508V69.9608H64.5029V63.9818H69.0209V65.0926H65.8778V66.3911H68.6536V67.467H65.8778V68.8508H69.1322ZM75.7174 63.9826V69.9616H74.5814L71.6008 66.3318V69.9616H70.2341V63.9826H71.3782L74.3506 67.6124V63.9826H75.7174ZM78.3729 65.1096H76.4593V63.9818H81.6696V65.1096H79.7568V69.9608H78.3729V65.1096ZM82.9641 69.8714C82.5228 69.743 82.1677 69.5764 81.9004 69.3717L82.37 68.3291C82.626 68.5168 82.9307 68.668 83.2834 68.7817C83.6369 68.8963 83.9895 68.9524 84.3422 68.9524C84.7355 68.9524 85.0256 68.8939 85.2133 68.7777C85.401 68.6607 85.4953 68.5054 85.4953 68.312C85.4953 68.1698 85.44 68.052 85.3295 67.9578C85.2182 67.8635 85.076 67.7879 84.9021 67.7319C84.7282 67.675 84.4933 67.6116 84.1976 67.5433C83.7417 67.4353 83.3687 67.3272 83.0786 67.2191C82.7885 67.111 82.5391 66.9372 82.3319 66.6983C82.1238 66.4594 82.0198 66.1408 82.0198 65.7418C82.0198 65.3949 82.1141 65.0804 82.3018 64.7976C82.4895 64.5156 82.7731 64.2922 83.1518 64.1272C83.5304 63.9623 83.9936 63.8794 84.5396 63.8794C84.9216 63.8794 85.2945 63.9249 85.6586 64.0167C86.0234 64.1077 86.342 64.2386 86.615 64.4092L86.1884 65.4599C85.6358 65.1462 85.0841 64.9902 84.5315 64.9902C84.1439 64.9902 83.8579 65.0528 83.6726 65.1779C83.4874 65.303 83.3955 65.468 83.3955 65.6736C83.3955 65.8784 83.502 66.0303 83.7157 66.1303C83.9294 66.2302 84.2552 66.3285 84.694 66.4252C85.1499 66.5333 85.5229 66.6422 85.813 66.7494C86.1031 66.8575 86.3525 67.0282 86.5598 67.2622C86.7678 67.4954 86.8718 67.8115 86.8718 68.2105C86.8718 68.5518 86.7767 68.8638 86.5858 69.1458C86.3948 69.4277 86.1088 69.6512 85.7277 69.8162C85.3457 69.9811 84.8818 70.064 84.3357 70.064C83.862 70.0632 83.4053 69.9998 82.9641 69.8714Z" fill="white"/>
<path opacity="0.3" d="M101.701 50.2627H94.2543V83.829H101.701V50.2627Z" fill="black"/>
<path d="M92.5551 98.2337L96.6059 102.175L92.5551 106.116L88.5044 110.057V105.653C87.8332 105.681 87.0661 105.702 86.2064 105.702C84.7307 105.702 83.0227 105.642 81.2358 105.461C76.2449 104.953 70.9964 104.105 66.4979 99.893C64.1893 97.7299 62.6674 95.1458 61.8458 91.9922L68.5123 90.2549C69.0096 92.1628 69.8409 93.5849 71.2068 94.8647C73.8762 97.3642 77.0363 98.1085 81.933 98.6067C84.5316 98.8716 86.9475 98.8334 88.5036 98.7578V94.2934L92.5551 98.2337ZM174.83 133.883V138.348C173.273 138.424 170.858 138.462 168.259 138.197C163.362 137.698 160.202 136.953 157.533 134.455C156.166 133.175 155.336 131.753 154.838 129.845L148.172 131.582C148.993 134.736 150.515 137.32 152.824 139.483C157.322 143.695 162.571 144.543 167.562 145.051C169.349 145.233 171.058 145.292 172.532 145.292C173.392 145.292 174.159 145.271 174.83 145.243V149.647L178.881 145.706L182.932 141.765L178.881 137.824L174.83 133.883ZM261.155 173.475V177.94C259.599 178.016 257.183 178.053 254.584 177.788C249.688 177.289 246.527 176.545 243.858 174.046C242.491 172.767 241.661 171.345 241.163 169.437L234.497 171.174C235.319 174.328 236.84 176.912 239.149 179.075C243.647 183.286 248.896 184.135 253.887 184.643C255.674 184.825 257.383 184.884 258.858 184.884C259.717 184.884 260.484 184.863 261.156 184.834V189.239L265.206 185.297L269.257 181.356L265.206 177.415L261.155 173.475ZM377.29 214.157L373.239 210.215V214.68C371.682 214.755 369.267 214.794 366.668 214.529C361.772 214.03 358.612 213.285 355.942 210.787C354.575 209.507 353.745 208.085 353.248 206.177L346.581 207.914C347.403 211.068 348.925 213.652 351.233 215.815C355.731 220.027 360.98 220.875 365.97 221.383C367.757 221.565 369.466 221.624 370.941 221.624C371.801 221.624 372.568 221.603 373.239 221.575V225.979L377.29 222.038L381.34 218.097L377.29 214.157Z" fill="#80B3E5"/>
<path d="M483.198 191.191H384.442V226.121H483.198V191.191Z" fill="#80B3E5"/>
<path opacity="0.3" d="M483.198 191.191H475.583V226.121H483.198V191.191Z" fill="black"/>
<path d="M400.063 212.46L400.054 208.872L398.295 211.828H397.671L395.92 208.949V212.46H394.621V206.481H395.766L398.004 210.197L400.207 206.481H401.343L401.36 212.46H400.063ZM406.716 211.179H403.94L403.411 212.46H401.993L404.658 206.481H406.024L408.698 212.46H407.246L406.716 211.179ZM406.28 210.128L405.333 207.839L404.385 210.128H406.28ZM409.321 206.481H410.705V212.46H409.321V206.481ZM417.606 206.481V212.46H416.47L413.489 208.83V212.46H412.122V206.481H413.267L416.239 210.111V206.481H417.606ZM420.263 207.609H418.35V206.481H423.56V207.609H421.646V212.46H420.263V207.609ZM428.932 211.35V212.46H424.303V206.481H428.821V207.591H425.678V208.89H428.454V209.966H425.678V211.35H428.932ZM435.517 206.481V212.46H434.381L431.4 208.83V212.46H430.033V206.481H431.178L434.15 210.111V206.481H435.517ZM440.872 211.179H438.096L437.567 212.46H436.149L438.814 206.481H440.181L442.854 212.46H441.403L440.872 211.179ZM440.437 210.128L439.489 207.839L438.541 210.128H440.437ZM448.961 206.481V212.46H447.826L444.845 208.83V212.46H443.478V206.481H444.623L447.595 210.111V206.481H448.961ZM451.588 212.165C451.096 211.901 450.709 211.533 450.427 211.064C450.144 210.594 450.003 210.063 450.003 209.471C450.003 208.879 450.144 208.348 450.427 207.878C450.709 207.409 451.095 207.041 451.588 206.776C452.081 206.512 452.634 206.38 453.249 206.38C453.768 206.38 454.236 206.47 454.654 206.653C455.074 206.836 455.425 207.097 455.71 207.439L454.821 208.259C454.417 207.792 453.916 207.559 453.318 207.559C452.947 207.559 452.617 207.64 452.326 207.803C452.036 207.964 451.81 208.191 451.648 208.481C451.485 208.771 451.404 209.103 451.404 209.473C451.404 209.842 451.485 210.172 451.648 210.463C451.81 210.753 452.035 210.981 452.326 211.142C452.616 211.305 452.947 211.386 453.318 211.386C453.915 211.386 454.417 211.15 454.821 210.677L455.71 211.498C455.425 211.845 455.072 212.109 454.65 212.292C454.229 212.474 453.759 212.565 453.241 212.565C452.631 212.562 452.08 212.43 451.588 212.165ZM461.269 211.35V212.46H456.64V206.481H461.158V207.591H458.015V208.89H460.791V209.966H458.015V211.35H461.269Z" fill="white"/>
</svg>
