<svg width="471" height="379" viewBox="0 0 471 379" fill="none" xmlns="http://www.w3.org/2000/svg">
<path d="M421.368 169.553C419.734 168.237 418.089 166.921 416.446 165.598C398.508 151.166 381.083 135.775 377.021 112.015C372.962 88.2725 380.728 63.241 371.716 40.2127C362.347 16.2728 338.897 2.51971 314.144 0.467919C283.621 -2.06189 256.635 16.7897 234.274 35.5512C223.384 44.6889 211.727 54.3152 197.812 58.2781C180.838 63.1118 170.167 54.901 155.882 47.3481C146.811 42.552 137.814 37.546 128.442 33.3518C113.339 26.5932 93.8218 20.3047 80.3987 33.7172C68.4841 45.6226 65.9148 66.5655 69.6737 82.3012C73.695 99.1371 86.244 110.102 97.1288 122.654C103.578 130.091 109.082 138.107 112.737 147.295C119.743 164.903 123.893 179.472 111.041 195.547C98.2023 211.606 77.1571 219.321 65.7585 236.925C54.6887 254.021 56.3613 289.719 70.6125 304.767C86.4454 321.484 117.249 331.138 139.202 331.161C157.266 331.18 238.939 331.396 251.335 331.287C280.017 331.034 308.703 330.124 337.391 330.629C362.609 331.074 390.325 321.958 412.96 306.136C412.952 306.141 412.945 306.147 412.938 306.152C437.699 291.749 467.922 268.857 470.617 237.813C473.327 206.59 445.054 184.316 421.368 169.553ZM465.972 243.427C460.539 267.559 442.079 282.978 422.69 297.791C444.111 280.433 457.384 259.323 459.221 232.016C460.196 217.526 453.763 201.51 444.326 190.525C437.918 183.068 429.771 176.316 421.37 169.554C443.845 187.269 473.098 211.051 465.972 243.427Z" fill="#B3D1EF"/>
<path d="M66.9426 84.3881C66.7958 84.3298 66.7001 84.1788 66.7187 84.0145C66.7408 83.817 66.9182 83.675 67.1161 83.6971C67.1239 83.698 67.9338 83.789 69.3911 83.9715C69.5878 83.9961 69.7277 84.1758 69.7029 84.3732C69.6781 84.5699 69.4986 84.7096 69.3016 84.6851C67.8497 84.5028 67.0444 84.4127 67.0359 84.4118C67.0033 84.4079 66.972 84.3999 66.9426 84.3881Z" fill="#80B3E5"/>
<path d="M159.681 105.206C159.556 105.156 159.431 105.106 159.306 105.056C158.023 104.544 156.69 104.029 155.345 103.527C155.158 103.458 154.951 103.553 154.882 103.738C154.814 103.921 154.905 104.125 155.086 104.198C155.088 104.198 155.09 104.2 155.092 104.201C156.434 104.701 157.762 105.214 159.04 105.724C159.164 105.773 159.289 105.823 159.413 105.874C159.414 105.874 159.414 105.874 159.414 105.874C159.598 105.947 159.807 105.858 159.881 105.674C159.954 105.49 159.865 105.28 159.681 105.206ZM168.21 108.921C166.85 108.277 165.425 107.63 163.973 106.999C163.804 106.927 163.61 106.992 163.521 107.147C163.513 107.159 163.506 107.172 163.501 107.185C163.421 107.368 163.505 107.579 163.687 107.658C163.966 107.781 164.246 107.903 164.524 108.026H164.524C165.68 108.536 166.812 109.054 167.903 109.571C167.909 109.574 167.917 109.577 167.923 109.58C168.098 109.649 168.3 109.572 168.381 109.4C168.466 109.22 168.389 109.006 168.21 108.921ZM150.969 101.948C149.538 101.449 148.057 100.949 146.564 100.46C146.375 100.398 146.172 100.501 146.111 100.69C146.051 100.87 146.144 101.065 146.318 101.134C146.326 101.137 146.333 101.14 146.34 101.143C147.828 101.63 149.306 102.129 150.733 102.627C150.92 102.692 151.125 102.593 151.19 102.406C151.256 102.219 151.157 102.014 150.969 101.948ZM142.126 99.0505C140.675 98.6042 139.176 98.1556 137.67 97.7173C137.479 97.6615 137.28 97.7716 137.224 97.9621C137.172 98.1414 137.266 98.3282 137.435 98.396C137.446 98.4004 137.457 98.404 137.469 98.4079C138.972 98.8446 140.467 99.2918 141.915 99.7381C142.105 99.7963 142.306 99.6899 142.364 99.5C142.422 99.3102 142.317 99.1103 142.126 99.0505ZM176.459 113.236C175.164 112.484 173.791 111.729 172.379 110.992C172.203 110.9 171.985 110.969 171.893 111.145C171.802 111.32 171.87 111.538 172.045 111.63C173.45 112.361 174.812 113.11 176.098 113.857C176.114 113.866 176.129 113.875 176.146 113.881C176.309 113.946 176.499 113.884 176.589 113.727C176.689 113.556 176.631 113.336 176.459 113.236ZM133.197 96.4527C131.73 96.0486 130.22 95.6446 128.71 95.251C128.518 95.2011 128.321 95.3158 128.271 95.5084C128.225 95.6855 128.319 95.8662 128.486 95.9324C128.499 95.9377 128.513 95.9429 128.528 95.9466C130.035 96.3396 131.541 96.7427 133.007 97.1453C133.198 97.1982 133.395 97.0858 133.448 96.8946C133.5 96.7027 133.388 96.5046 133.197 96.4527ZM184.235 118.375C183.049 117.473 181.767 116.567 180.424 115.684C180.259 115.575 180.036 115.621 179.927 115.786C179.818 115.953 179.863 116.176 180.03 116.284C181.358 117.158 182.627 118.054 183.8 118.947C183.826 118.967 183.855 118.983 183.884 118.994C184.031 119.053 184.203 119.009 184.304 118.878C184.423 118.721 184.393 118.495 184.235 118.375ZM124.204 94.1067C122.724 93.7399 121.204 93.3731 119.686 93.016C119.493 92.9705 119.3 93.0905 119.254 93.284C119.213 93.4596 119.308 93.6351 119.47 93.6997C119.487 93.7064 119.504 93.7117 119.522 93.7163C121.036 94.0725 122.554 94.4386 124.031 94.8047C124.224 94.8525 124.419 94.7348 124.467 94.5422C124.515 94.3494 124.398 94.1545 124.204 94.1067ZM115.157 91.9768C113.664 91.6428 112.137 91.3094 110.615 90.9851C110.421 90.9442 110.231 91.0679 110.189 91.2618C110.152 91.4358 110.248 91.607 110.407 91.6704C110.426 91.6778 110.446 91.6838 110.466 91.6881C111.985 92.0117 113.51 92.3449 114.999 92.6784C115.193 92.7216 115.385 92.6 115.428 92.4061C115.472 92.2128 115.35 92.02 115.157 91.9768ZM191.117 124.683C190.919 124.46 190.715 124.234 190.51 124.012C189.692 123.122 188.789 122.229 187.83 121.357C187.683 121.223 187.456 121.234 187.322 121.381C187.189 121.528 187.2 121.755 187.347 121.889C188.29 122.747 189.177 123.625 189.982 124.499C190.183 124.718 190.385 124.941 190.58 125.16C190.619 125.204 190.665 125.236 190.715 125.255C190.837 125.304 190.982 125.284 191.087 125.19C191.235 125.058 191.249 124.831 191.117 124.683ZM106.065 90.0394C105.699 89.9652 105.33 89.8907 104.961 89.8163C104.577 89.7395 104.193 89.663 103.808 89.5872C103.724 89.5708 103.642 89.5545 103.559 89.538C102.875 89.4026 102.19 89.2686 101.506 89.1369C101.311 89.099 101.123 89.2261 101.085 89.421C101.052 89.5929 101.147 89.7602 101.304 89.8229C101.325 89.831 101.348 89.8379 101.37 89.8422C101.98 89.9606 102.593 90.0796 103.204 90.2003C103.288 90.2166 103.372 90.2339 103.455 90.2499C103.835 90.3251 104.215 90.4002 104.593 90.4761C105.038 90.5655 105.482 90.6546 105.922 90.7438C106.117 90.7826 106.306 90.6569 106.346 90.4628C106.386 90.2686 106.26 90.0787 106.065 90.0394ZM96.9384 88.2761C95.426 87.9977 93.8867 87.722 92.3637 87.4563C92.1681 87.4223 91.9822 87.5528 91.9479 87.7479C91.919 87.9182 92.0141 88.0821 92.1688 88.1437C92.1911 88.1526 92.2156 88.1593 92.2402 88.1637C93.7607 88.4291 95.298 88.7047 96.809 88.983C97.0039 89.0186 97.1914 88.8892 97.2273 88.6941C97.2631 88.4985 97.1342 88.3119 96.9384 88.2761ZM87.7823 86.6758C86.8722 86.5249 85.955 86.3752 85.0406 86.2286C84.7096 86.176 84.3792 86.1231 84.0496 86.071C83.9662 86.0576 83.8837 86.0443 83.8009 86.0317C83.598 85.9988 83.3956 85.9675 83.1938 85.9356C82.9975 85.9053 82.8139 86.039 82.7831 86.2353C82.7564 86.4035 82.8516 86.5632 83.0042 86.6244C83.0288 86.634 83.0547 86.6416 83.0823 86.646C83.2896 86.6788 83.4974 86.7115 83.7049 86.7443C83.7883 86.7574 83.8724 86.7703 83.9554 86.7836C84.2889 86.8365 84.6234 86.89 84.9578 86.9436C85.8608 87.0886 86.7658 87.2359 87.6644 87.3848C87.8602 87.4175 88.0452 87.2851 88.0781 87.0895C88.1105 86.8937 87.9778 86.7087 87.7823 86.6758ZM196.633 132.212C195.858 130.893 194.991 129.58 194.059 128.311C193.941 128.151 193.716 128.117 193.556 128.234C193.396 128.352 193.362 128.577 193.479 128.737C194.397 129.987 195.251 131.279 196.013 132.577C196.055 132.649 196.118 132.7 196.19 132.729C196.289 132.768 196.405 132.763 196.505 132.705C196.676 132.604 196.734 132.383 196.633 132.212ZM78.5984 85.2363C78.2831 85.1894 77.9682 85.1434 77.6536 85.0977C77.5688 85.0851 77.4833 85.0726 77.3985 85.0607C77.3687 85.0563 77.3397 85.0517 77.3098 85.0481C77.214 85.034 77.1182 85.0198 77.0226 85.0065C75.9996 84.8582 74.9861 84.7155 73.9952 84.5785C73.7989 84.5517 73.6176 84.6895 73.5905 84.8858C73.5891 84.8948 73.5884 84.903 73.5875 84.9111C73.5845 84.9587 73.5911 85.0055 73.6054 85.0487C73.6229 85.1032 73.6544 85.1522 73.6953 85.1924C73.7279 85.225 73.7681 85.2512 73.8127 85.2691C73.8396 85.2795 73.8681 85.2868 73.8975 85.2914C74.1721 85.3294 74.4488 85.3673 74.7271 85.4068H74.7292C75.6726 85.5385 76.633 85.6755 77.5998 85.8168C77.6233 85.8198 77.6474 85.8235 77.6711 85.8271C77.945 85.8664 78.2187 85.9066 78.4931 85.9476C78.6896 85.9758 78.8719 85.8405 78.9018 85.644C78.9312 85.4475 78.7949 85.2652 78.5984 85.2363ZM200.433 140.745C199.974 139.272 199.417 137.8 198.777 136.369C198.696 136.188 198.484 136.107 198.303 136.188C198.122 136.268 198.041 136.481 198.121 136.662C198.749 138.068 199.297 139.513 199.747 140.959C199.781 141.066 199.86 141.147 199.957 141.186C200.032 141.216 200.116 141.221 200.198 141.195C200.387 141.136 200.493 140.934 200.433 140.745ZM201.551 145.289C201.516 145.095 201.329 144.965 201.133 145C200.938 145.036 200.808 145.223 200.844 145.418C201.116 146.921 201.298 148.456 201.383 149.98C201.39 150.124 201.482 150.244 201.608 150.293C201.655 150.312 201.707 150.322 201.76 150.319C201.959 150.307 202.111 150.138 202.099 149.94C202.014 148.387 201.83 146.822 201.551 145.289ZM201.735 154.238C201.537 154.224 201.365 154.375 201.351 154.572C201.248 156.085 201.05 157.617 200.763 159.127C200.73 159.299 200.826 159.465 200.982 159.528C201.003 159.536 201.026 159.543 201.048 159.547C201.244 159.584 201.432 159.456 201.469 159.261C201.761 157.724 201.963 156.162 202.069 154.621C202.082 154.423 201.932 154.251 201.735 154.238ZM200.096 163.347C199.907 163.288 199.705 163.394 199.646 163.583C199.325 164.614 198.957 165.652 198.55 166.669C198.388 167.076 198.216 167.488 198.04 167.893C197.961 168.075 198.044 168.286 198.226 168.366C198.229 168.367 198.233 168.369 198.237 168.37C198.416 168.442 198.622 168.358 198.699 168.18C198.878 167.768 199.052 167.349 199.217 166.936C199.63 165.902 200.005 164.845 200.332 163.797C200.391 163.608 200.285 163.406 200.096 163.347ZM196.481 171.876C196.308 171.779 196.089 171.84 195.992 172.014C195.251 173.332 194.429 174.645 193.547 175.916C193.435 176.078 193.476 176.302 193.638 176.415C193.661 176.431 193.685 176.444 193.71 176.454C193.863 176.515 194.041 176.465 194.138 176.325C195.033 175.035 195.867 173.704 196.619 172.365C196.715 172.192 196.654 171.973 196.481 171.876ZM191.26 179.533C191.108 179.406 190.881 179.426 190.754 179.578C189.783 180.741 188.74 181.889 187.653 182.988C187.514 183.13 187.515 183.357 187.656 183.497C187.692 183.532 187.732 183.558 187.776 183.575C187.906 183.628 188.06 183.6 188.165 183.494C189.265 182.379 190.322 181.217 191.306 180.039C191.433 179.886 191.412 179.66 191.26 179.533ZM184.791 186.173C184.662 186.023 184.435 186.007 184.285 186.136C183.135 187.129 181.922 188.098 180.681 189.016C180.522 189.134 180.489 189.36 180.606 189.519C180.647 189.575 180.702 189.615 180.762 189.639C180.873 189.684 181.005 189.672 181.109 189.594C182.364 188.665 183.591 187.684 184.754 186.68C184.904 186.551 184.921 186.324 184.791 186.173ZM177.373 191.737C177.265 191.569 177.044 191.52 176.876 191.626C175.592 192.441 174.254 193.227 172.897 193.964C172.723 194.058 172.658 194.277 172.753 194.451C172.795 194.528 172.859 194.583 172.935 194.613C173.031 194.651 173.142 194.648 173.24 194.596C174.611 193.851 175.964 193.057 177.262 192.233C177.429 192.126 177.479 191.904 177.373 191.737ZM169.246 196.207C169.164 196.026 168.95 195.947 168.77 196.03C167.386 196.668 165.955 197.273 164.516 197.828C164.332 197.899 164.24 198.108 164.311 198.293C164.348 198.39 164.424 198.462 164.513 198.497C164.595 198.53 164.688 198.533 164.776 198.498C166.228 197.938 167.673 197.328 169.07 196.684C169.251 196.6 169.329 196.387 169.246 196.207ZM160.611 199.592C160.552 199.404 160.349 199.3 160.16 199.359C158.707 199.821 157.213 200.248 155.719 200.627C155.527 200.676 155.41 200.872 155.459 201.065C155.489 201.18 155.572 201.268 155.675 201.309C155.743 201.337 155.82 201.344 155.896 201.324C157.404 200.941 158.912 200.51 160.377 200.045C160.567 199.984 160.672 199.781 160.611 199.592Z" fill="#80B3E5"/>
<path d="M148.939 202.722C148.826 202.677 148.738 202.575 148.717 202.447C148.684 202.251 148.817 202.066 149.012 202.033C149.76 201.909 150.514 201.772 151.253 201.628C151.448 201.591 151.637 201.717 151.675 201.912C151.713 202.107 151.585 202.296 151.391 202.334C150.645 202.479 149.885 202.616 149.13 202.742C149.063 202.753 148.998 202.745 148.939 202.722Z" fill="#80B3E5"/>
<path d="M77.1947 67.0244L77.6769 86.0194L4.87854 70.9007L77.1947 67.0244Z" fill="black"/>
<path d="M6.84521 71.0495L76.9475 67.292L77.4152 85.7058L6.84521 71.0495Z" fill="white"/>
<path d="M4.88037 70.9003L80.1425 58.6626L77.2726 69.9047L4.88037 70.9003Z" fill="black"/>
<path d="M79.8004 58.9756L77.0748 69.6533L8.31641 70.599L79.8004 58.9756Z" fill="white"/>
<path d="M74.4972 77.6025L77.6769 86.0191L53.137 81.7231L74.4972 77.6025Z" fill="black"/>
<path d="M54.5409 81.7107L74.3354 77.8926L77.2819 85.6921L54.5409 81.7107Z" fill="white"/>
<path d="M4.87854 70.9004L58.196 98.9055L74.4971 77.6025L4.87854 70.9004Z" fill="black"/>
<path d="M6.14221 71.2773L74.0174 77.8115L58.1247 98.5813L6.14221 71.2773Z" fill="white"/>
<path d="M9.61487 72.2329L58.0389 97.2955L70.5135 78.13L9.61487 72.2329Z" fill="#B3D1EF"/>
<path d="M19.0276 71.2775C19.5948 71.326 75.8438 70.9004 75.8438 70.9004V77.2231L19.0276 71.2775Z" fill="#B3D1EF"/>
<path d="M16.5857 69.254L78.5654 59.8716L75.8437 68.6039L16.5857 69.254Z" fill="#B3D1EF"/>
<path d="M70.5137 83.6949L73.5872 78.7915L76.3034 84.903L70.5137 83.6949Z" fill="#B3D1EF"/>
<path d="M95.9993 147.811C88.6693 124.566 66.3236 104.816 46.1846 119.162C38.4348 124.682 39.6645 140.694 43.8745 148.328C49.314 158.191 61.6666 159.496 59.1858 174.003C57.2383 185.39 45.4632 190.893 47.9574 204.328C50.5594 218.342 65.4648 222.631 75.7877 215.195C90.8751 204.328 105.46 177.812 95.9993 147.811Z" fill="#B3D1EF"/>
<path d="M412.938 331.77C412.938 331.964 412.392 332.122 411.718 332.122H84.6348C83.9617 332.122 83.4161 331.964 83.4161 331.77V330.553C83.4161 330.359 83.9619 330.201 84.6348 330.201H411.718C412.392 330.201 412.938 330.359 412.938 330.553V331.77Z" fill="#80B3E5"/>
<path d="M382.837 368.171C382.837 368.365 382.621 368.523 382.355 368.523H253.242C252.976 368.523 252.76 368.365 252.76 368.171V366.953C252.76 366.759 252.976 366.602 253.242 366.602H382.355C382.621 366.602 382.837 366.759 382.837 366.953V368.171Z" fill="#80B3E5"/>
<path d="M267.758 378.636C267.758 378.819 267.558 378.966 267.311 378.966H147.178C146.93 378.966 146.73 378.819 146.73 378.636V377.493C146.73 377.311 146.93 377.163 147.178 377.163H267.311C267.558 377.163 267.758 377.311 267.758 377.493V378.636Z" fill="#80B3E5"/>
<path d="M385.192 344.479C385.192 344.661 385.138 344.809 385.071 344.809H352.545C352.478 344.809 352.423 344.661 352.423 344.479V343.336C352.423 343.154 352.478 343.006 352.545 343.006H385.071C385.138 343.006 385.192 343.154 385.192 343.336V344.479Z" fill="#80B3E5"/>
<path d="M165.534 367.211C165.534 367.405 165.395 367.563 165.223 367.563H81.8327C81.661 367.563 81.5217 367.405 81.5217 367.211V365.994C81.5217 365.799 81.6608 365.642 81.8327 365.642H165.223C165.395 365.642 165.534 365.799 165.534 365.994V367.211Z" fill="#80B3E5"/>
<path d="M183.015 347.659C183.015 347.853 182.876 348.011 182.704 348.011H99.3135C99.1418 348.011 99.0026 347.853 99.0026 347.659V346.442C99.0026 346.247 99.1418 346.09 99.3135 346.09H182.704C182.876 346.09 183.015 346.247 183.015 346.442V347.659Z" fill="#80B3E5"/>
<path d="M239.526 293.315C246.231 293.315 251.667 290.573 251.667 287.191C251.667 283.809 246.231 281.068 239.526 281.068C232.82 281.068 227.385 283.809 227.385 287.191C227.385 290.573 232.82 293.315 239.526 293.315Z" fill="black"/>
<path d="M239.526 292.776C233.236 292.776 227.923 290.219 227.923 287.191C227.923 284.163 233.236 281.605 239.526 281.605C245.815 281.605 251.128 284.163 251.128 287.191C251.128 290.219 245.815 292.776 239.526 292.776Z" fill="#454545"/>
<path d="M282.253 213.473C282.253 189.875 263.123 170.746 239.526 170.746C215.928 170.746 196.798 189.875 196.798 213.473C196.798 232.077 218.676 248.738 218.676 248.738C222.31 251.505 225.283 257.505 225.283 262.073V265.936C225.283 270.503 225.482 274.683 225.724 275.225C225.967 275.767 230.99 276.21 235.558 276.21H243.493C248.061 276.21 252.24 276.012 252.783 275.769C253.325 275.526 253.768 270.503 253.768 265.936V262.073C253.768 257.505 256.741 251.505 260.375 248.738C260.375 248.738 282.253 232.077 282.253 213.473Z" fill="#DEECFF"/>
<path d="M282.253 213.473C282.253 189.875 263.123 170.746 239.526 170.746C215.928 170.746 196.798 189.875 196.798 213.473C196.798 232.077 218.676 248.738 218.676 248.738C222.31 251.505 225.283 257.505 225.283 262.073V265.936C225.283 270.503 225.482 274.683 225.724 275.225C225.967 275.767 230.99 276.21 235.558 276.21H243.493C248.061 276.21 252.24 276.012 252.783 275.769C253.325 275.526 253.768 270.503 253.768 265.936V262.073C253.768 257.505 256.741 251.505 260.375 248.738C260.375 248.738 282.253 232.077 282.253 213.473Z" fill="black"/>
<path d="M235.558 275.672C230.804 275.672 226.916 275.228 226.189 274.912C226.031 274.205 225.821 270.826 225.821 265.936V262.073C225.821 257.347 222.762 251.173 219.002 248.309C218.785 248.145 197.336 231.592 197.336 213.473C197.336 190.209 216.262 171.284 239.526 171.284C262.789 171.284 281.715 190.209 281.715 213.473C281.715 231.592 260.265 248.144 260.049 248.31C256.289 251.173 253.229 257.347 253.229 262.073V265.935C253.229 270.689 252.786 274.577 252.469 275.304C251.762 275.462 248.383 275.672 243.493 275.672H235.558Z" fill="white"/>
<path d="M242.084 246.594H236.909C235.586 246.594 234.509 245.517 234.509 244.193V207.583C228.105 206.558 223.843 203.679 223.843 200.331C223.843 198.669 225.313 197.636 227.68 197.636C229.456 197.636 231.419 198.214 232.93 199.182C234.765 200.357 235.776 201.997 235.776 203.803V206.482C236.984 206.629 238.234 206.704 239.496 206.704C240.76 206.704 242.009 206.629 243.217 206.482V203.813C243.192 202.95 243.59 202.088 244.4 201.25C246.114 199.477 249.58 198.034 252.126 198.034C254.019 198.034 255.15 198.893 255.15 200.331C255.15 203.679 250.887 206.557 244.484 207.583V244.193C244.485 245.517 243.408 246.594 242.084 246.594ZM235.776 207.767V244.193C235.776 244.818 236.284 245.326 236.909 245.326H242.084C242.709 245.326 243.218 244.818 243.218 244.193V207.758C242.006 207.899 240.757 207.97 239.497 207.97C238.236 207.97 236.987 207.899 235.776 207.758L235.776 207.767ZM252.126 199.301C249.915 199.301 246.794 200.597 245.31 202.131C244.922 202.533 244.463 203.146 244.485 203.781L244.485 203.803V206.299C247.129 205.853 249.48 205.049 251.165 204.006C252.405 203.238 253.883 201.978 253.883 200.331C253.883 200.077 253.883 199.301 252.126 199.301ZM227.68 198.902C227.077 198.902 225.11 199.005 225.11 200.331C225.11 201.978 226.588 203.238 227.828 204.006C229.514 205.049 231.865 205.853 234.509 206.299V203.803C234.509 202.063 233.279 200.909 232.248 200.249C230.951 199.418 229.201 198.902 227.68 198.902Z" fill="black"/>
<path d="M245.085 268.201C245.085 269.289 244.202 270.171 243.115 270.171H235.937C234.848 270.171 233.966 269.289 233.966 268.201V233.154C233.966 232.066 234.848 231.184 235.937 231.184H243.115C244.202 231.184 245.085 232.066 245.085 233.154V268.201Z" fill="black"/>
<path d="M235.937 269.902C234.998 269.902 234.234 269.139 234.234 268.201V233.154C234.234 232.216 234.998 231.453 235.937 231.453H243.115C244.053 231.453 244.816 232.216 244.816 233.154V268.201C244.816 269.139 244.053 269.902 243.115 269.902H235.937Z" fill="#B3D1EF"/>
<path d="M254.699 268.059C254.699 268.059 254.276 268.755 254.276 268.986C254.276 269.256 254.699 270.063 254.699 270.063V274.02C254.699 274.02 254.276 274.731 254.276 274.968C254.276 275.231 254.699 276.024 254.699 276.024V279.498C254.699 279.498 254.276 280.208 254.276 280.445C254.276 280.709 254.699 281.503 254.699 281.503V284.763C254.699 284.926 254.679 285.086 254.641 285.237C253.712 285.383 253.478 285.324 252.704 285.911C252.542 286.033 252.446 286.733 252.446 286.733H226.265C225.176 286.733 224.295 285.852 224.295 284.763V281.572C224.295 281.572 224.717 280.832 224.717 280.586C224.717 280.331 224.295 279.567 224.295 279.567V275.823C224.295 275.823 224.717 275.094 224.717 274.85C224.717 274.592 224.295 273.818 224.295 273.818V270.345C224.295 270.345 224.646 269.584 224.646 269.33C224.646 269.083 224.295 268.34 224.295 268.34V264.384C224.295 264.384 224.718 263.969 224.718 263.52C224.718 262.993 224.322 262.57 224.374 262.394C224.51 261.922 224.819 261.524 225.227 261.27C225.528 261.083 225.883 260.975 226.265 260.975H252.729C253.11 260.975 253.465 261.082 253.766 261.27C254.326 261.617 254.699 262.237 254.699 262.946V268.059Z" fill="black"/>
<path d="M226.265 286.195C225.475 286.195 224.832 285.553 224.832 284.763V281.713C225.113 281.204 225.254 280.825 225.254 280.586C225.254 280.293 225.038 279.817 224.832 279.431V275.965C225.113 275.463 225.254 275.088 225.254 274.85C225.254 274.555 225.038 274.074 224.832 273.683V270.461C225.003 270.08 225.184 269.61 225.184 269.33C225.184 269.054 225.003 268.594 224.832 268.221V264.585C225.007 264.365 225.256 263.972 225.256 263.52C225.256 263.09 225.082 262.735 224.966 262.5C224.954 262.474 224.941 262.449 224.929 262.426C225.042 262.137 225.244 261.893 225.511 261.727C225.736 261.586 225.997 261.513 226.265 261.513H252.729C252.997 261.513 253.257 261.586 253.481 261.726C253.907 261.99 254.161 262.446 254.161 262.946V267.911C253.88 268.392 253.738 268.753 253.738 268.986C253.738 269.288 253.956 269.788 254.161 270.194V273.875C253.88 274.366 253.738 274.733 253.738 274.968C253.738 275.266 253.955 275.758 254.161 276.157V279.353C253.88 279.843 253.738 280.211 253.738 280.446C253.738 280.744 253.955 281.236 254.161 281.635V284.763C253.472 284.859 253.105 284.932 252.379 285.483C252.305 285.538 252.131 285.669 251.999 286.196H226.265V286.195Z" fill="#454545"/>
<path d="M254.67 285.274C253.741 285.419 253.507 285.36 252.733 285.947C252.572 286.069 252.475 286.77 252.475 286.77L251.613 286.612L230.999 282.832L224.323 281.609C224.323 281.609 224.745 280.869 224.745 280.622C224.745 280.367 224.323 279.604 224.323 279.604L234.772 281.556L250.411 284.477H250.413L254.67 285.274Z" fill="black"/>
<path d="M254.305 280.48C254.305 280.745 254.728 281.539 254.728 281.539L224.323 275.858C224.323 275.858 224.745 275.13 224.745 274.886C224.745 274.628 224.323 273.854 224.323 273.854L225.543 274.082L236.935 276.209L254.728 279.534C254.728 279.534 254.305 280.245 254.305 280.48Z" fill="black"/>
<path d="M254.305 275.003C254.305 275.267 254.728 276.06 254.728 276.06L252.853 275.709L225.353 270.572L224.323 270.38C224.323 270.38 224.675 269.619 224.675 269.366C224.675 269.118 224.323 268.376 224.323 268.376L225.305 268.559L253.326 273.794L254.728 274.055C254.728 274.055 254.305 274.767 254.305 275.003Z" fill="black"/>
<path d="M254.305 269.022C254.305 269.292 254.728 270.099 254.728 270.099L253.664 269.901L225.283 264.599L224.323 264.419C224.323 264.419 224.747 264.005 224.747 263.556C224.747 263.028 224.351 262.605 224.402 262.43L225.283 262.594L253.742 267.911L254.728 268.095C254.728 268.095 254.305 268.791 254.305 269.022Z" fill="black"/>
<path d="M239.526 163.791C239.303 163.791 239.122 163.61 239.122 163.388V141.058C239.122 140.835 239.303 140.654 239.526 140.654C239.748 140.654 239.929 140.834 239.929 141.058V163.388C239.929 163.611 239.748 163.791 239.526 163.791Z" fill="#222221"/>
<path d="M212.735 170.882C212.595 170.882 212.46 170.81 212.385 170.681L201.22 151.342C201.109 151.149 201.174 150.902 201.367 150.791C201.56 150.68 201.808 150.745 201.919 150.939L213.084 170.278C213.195 170.47 213.129 170.717 212.936 170.829C212.873 170.865 212.803 170.882 212.735 170.882Z" fill="#222221"/>
<path d="M193.078 190.419C193.009 190.419 192.94 190.402 192.876 190.365L173.538 179.199C173.345 179.088 173.279 178.841 173.39 178.648C173.502 178.455 173.749 178.389 173.941 178.5L193.28 189.666C193.473 189.777 193.539 190.024 193.428 190.217C193.353 190.346 193.217 190.419 193.078 190.419Z" fill="#222221"/>
<path d="M185.824 217.166H163.493C163.271 217.166 163.09 216.986 163.09 216.763C163.09 216.54 163.271 216.359 163.493 216.359H185.824C186.047 216.359 186.228 216.54 186.228 216.763C186.228 216.986 186.047 217.166 185.824 217.166Z" fill="#222221"/>
<path d="M265.869 170.938C265.8 170.938 265.731 170.92 265.667 170.883C265.474 170.772 265.409 170.525 265.52 170.332L276.685 150.993C276.796 150.8 277.043 150.734 277.236 150.846C277.429 150.958 277.495 151.204 277.384 151.397L266.219 170.736C266.144 170.865 266.009 170.938 265.869 170.938Z" fill="#222221"/>
<path d="M285.111 190.299C284.972 190.299 284.836 190.226 284.762 190.097C284.65 189.904 284.716 189.657 284.909 189.546L304.248 178.381C304.44 178.27 304.688 178.335 304.799 178.528C304.91 178.721 304.844 178.968 304.651 179.08L285.313 190.245C285.249 190.281 285.18 190.299 285.111 190.299Z" fill="#222221"/>
<path d="M314.424 216.687L292.094 216.686C291.871 216.686 291.691 216.506 291.691 216.283C291.691 216.06 291.871 215.879 292.094 215.879H314.424C314.647 215.879 314.828 216.06 314.828 216.283C314.828 216.506 314.647 216.687 314.424 216.687Z" fill="#222221"/>
<path d="M210.576 231.857C210.449 231.857 210.324 231.797 210.245 231.686C204.398 223.376 202.209 214.871 203.74 206.409C206.558 190.832 221.23 180.643 221.378 180.542C221.562 180.417 221.813 180.464 221.938 180.647C222.065 180.832 222.018 181.083 221.833 181.209C221.689 181.308 207.287 191.316 204.533 206.558C203.044 214.798 205.188 223.096 210.905 231.221C211.034 231.403 210.99 231.655 210.807 231.783C210.737 231.833 210.656 231.857 210.576 231.857Z" fill="#222221"/>
<path d="M271.398 283.665L260.843 346.079C260.838 346.103 260.834 346.127 260.828 346.151C260.817 346.21 260.804 346.269 260.789 346.327C260.789 346.33 260.788 346.333 260.787 346.336C260.569 347.205 259.996 347.974 259.254 348.491C258.646 348.915 257.923 349.168 257.187 349.168H221.879C220.155 349.168 218.51 347.778 218.223 346.079L210.051 297.755L207.668 283.665C207.38 281.965 208.555 280.576 210.278 280.576H268.787C270.511 280.576 271.685 281.965 271.398 283.665Z" fill="black"/>
<path d="M270.588 283.529L260.032 345.941L260.026 345.966L260.021 345.999C260.013 346.035 260.005 346.07 259.996 346.103L259.988 346.136C259.827 346.782 259.388 347.396 258.785 347.816C258.335 348.131 257.818 348.314 257.319 348.342C257.275 348.348 257.231 348.348 257.187 348.348H221.877C220.556 348.348 219.255 347.246 219.033 345.941L210.886 297.754L208.48 283.528C208.381 282.948 208.513 282.41 208.847 282.013C209.184 281.615 209.691 281.396 210.277 281.396H268.787C269.374 281.396 269.884 281.615 270.218 282.013C270.555 282.41 270.684 282.948 270.588 283.529Z" fill="#80B3E5"/>
<path d="M270.588 283.529L260.032 345.941L260.027 345.966L260.021 345.999C260.013 346.035 260.005 346.07 259.996 346.103L259.988 346.136C259.827 346.782 259.388 347.396 258.785 347.816C258.336 348.131 257.818 348.314 257.319 348.342C261.32 322.856 261.523 311.717 253.874 305.304C245.393 298.195 216.21 297.77 210.886 297.754L208.48 283.528C208.381 282.948 208.512 282.41 208.847 282.013C209.183 281.615 209.691 281.396 210.277 281.396H268.787C269.374 281.396 269.884 281.615 270.218 282.013C270.555 282.41 270.684 282.948 270.588 283.529Z" fill="#99C2EA"/>
<path d="M273.696 279.523C273.639 278.834 273.062 278.292 272.358 278.292H205.559C204.857 278.292 204.279 278.834 204.221 279.523C204.218 279.56 204.217 279.597 204.217 279.636V295.244C204.217 295.282 204.218 295.319 204.221 295.356C204.279 296.045 204.857 296.587 205.559 296.587H272.358C273.062 296.587 273.639 296.045 273.696 295.356C273.699 295.319 273.701 295.282 273.701 295.244V279.636C273.701 279.597 273.7 279.56 273.696 279.523Z" fill="black"/>
<path d="M205.56 295.764C205.291 295.764 205.063 295.555 205.04 295.287C205.04 295.274 205.039 295.259 205.039 295.243V279.635C205.039 279.619 205.04 279.604 205.041 279.589C205.063 279.324 205.291 279.114 205.56 279.114H272.358C272.627 279.114 272.855 279.324 272.877 279.591C272.878 279.608 272.878 279.621 272.878 279.635V295.244C272.878 295.257 272.878 295.271 272.878 295.284C272.855 295.555 272.627 295.764 272.358 295.764L205.56 295.764Z" fill="#80B3E5"/>
<path opacity="0.3" d="M273.153 279.232V295.647C273.153 295.687 273.153 295.725 273.152 295.764H259.352C259.351 295.725 259.351 295.687 259.351 295.647V279.232C259.351 279.192 259.351 279.153 259.352 279.114H273.152C273.153 279.153 273.153 279.192 273.153 279.232Z" fill="black"/>
<path opacity="0.3" d="M173.768 67.7635C172.622 68.8264 170.941 68.8749 170.012 67.8731C169.082 66.8714 169.256 65.1983 170.402 64.1359L207.433 29.7752C208.577 28.7123 210.258 28.6645 211.187 29.666C212.117 30.6682 211.943 32.3401 210.798 33.403L173.768 67.7635Z" fill="white"/>
<path d="M358.141 335.614C358.191 337.084 359.423 338.234 360.893 338.184C362.362 338.134 363.513 336.903 363.463 335.433L363.273 329.865C363.224 328.396 361.993 327.244 360.523 327.294C359.053 327.344 357.902 328.576 357.952 330.045L358.141 335.614Z" fill="black"/>
<path d="M360.88 337.785C362.127 337.743 363.107 336.694 363.065 335.446L362.875 329.878C362.833 328.632 361.783 327.651 360.537 327.694C359.29 327.736 358.31 328.785 358.351 330.032L358.541 335.6C358.583 336.847 359.632 337.827 360.88 337.785Z" fill="white"/>
<path d="M346.087 342.204C346.106 343.011 346.806 343.622 348.163 343.576L364.923 343.007C367.205 342.93 368.176 341.382 367.241 339.488C367.18 339.366 367.112 339.245 367.036 339.119C367.028 339.107 367.024 339.096 367.015 339.084L364.488 335.03C363.841 333.993 361.712 335.663 360.671 335.371C357.379 334.443 357.825 332.646 356.993 333.542C356.338 334.244 355.44 334.989 354.457 335.714C354.348 335.797 354.239 335.877 354.13 335.953C353.817 336.179 353.502 336.401 353.181 336.62C353.068 336.696 352.959 336.767 352.845 336.844C352.431 337.121 352.016 337.387 351.61 337.641C351.497 337.717 351.383 337.788 351.27 337.856C349.144 339.171 347.346 340.119 347.346 340.119C346.653 340.65 346.25 341.256 346.129 341.807C346.098 341.944 346.082 342.076 346.087 342.204Z" fill="black"/>
<path d="M346.486 342.211C346.488 342.303 346.504 342.39 346.534 342.473C346.706 342.947 347.294 343.207 348.148 343.178L364.908 342.608C365.943 342.573 366.69 342.217 367.016 341.606C367.31 341.057 367.241 340.339 366.827 339.566C358.326 341.165 351.931 342.046 347.739 342.189C347.297 342.204 346.881 342.21 346.486 342.211Z" fill="white"/>
<path d="M346.486 342.21C346.881 342.21 347.297 342.204 347.739 342.189C351.931 342.046 358.326 341.165 366.827 339.566C366.784 339.476 366.729 339.386 366.674 339.295L366.615 339.198L364.147 335.242C364.096 335.156 364.01 335.079 363.758 335.087C363.415 335.098 362.953 335.262 362.498 335.421C361.997 335.602 361.472 335.788 361.013 335.803C360.85 335.809 360.701 335.794 360.564 335.754C358.623 335.209 357.883 334.355 357.484 333.894C357.442 333.847 357.392 333.788 357.351 333.746C357.335 333.762 357.312 333.783 357.286 333.812C354.606 336.693 348.133 340.157 347.561 340.456C347.028 340.873 346.668 341.362 346.54 341.809C346.497 341.947 346.477 342.083 346.486 342.21Z" fill="#0F4A6E"/>
<path d="M346.086 342.204C346.218 342.208 346.35 342.207 346.486 342.21C346.881 342.21 347.297 342.203 347.74 342.188C351.931 342.046 358.326 341.165 366.827 339.566C366.962 339.541 367.101 339.513 367.24 339.488C367.18 339.367 367.112 339.245 367.036 339.12C366.893 339.149 366.754 339.173 366.615 339.198C357.34 340.943 350.608 341.82 346.54 341.809C346.4 341.81 346.264 341.811 346.129 341.807L346.086 342.204Z" fill="black"/>
<path d="M354.13 335.954C355.148 337.362 357.41 337.333 357.721 337.322L357.753 337.321C357.861 337.317 357.945 337.223 357.941 337.111C357.938 337.003 357.846 336.926 357.731 336.922C357.703 336.923 355.412 337.017 354.457 335.715C354.348 335.798 354.239 335.878 354.13 335.954Z" fill="white"/>
<path d="M352.845 336.844C353.823 338.349 356.184 338.321 356.503 338.31L356.535 338.309C356.643 338.305 356.728 338.211 356.724 338.099C356.72 337.991 356.63 337.914 356.513 337.91C356.486 337.911 354.1 338.008 353.181 336.62C353.068 336.697 352.959 336.768 352.845 336.844Z" fill="white"/>
<path d="M351.27 337.857C352.284 339.261 354.545 339.236 354.856 339.226L354.888 339.224C354.996 339.216 355.08 339.122 355.077 339.014C355.074 338.902 354.983 338.83 354.867 338.825C354.839 338.822 352.576 338.915 351.61 337.641C351.497 337.717 351.383 337.789 351.27 337.857Z" fill="white"/>
<path d="M371.376 323.124C372.326 324.247 374.006 324.388 375.129 323.438C376.251 322.489 376.392 320.809 375.442 319.686L371.845 315.432C370.896 314.309 369.216 314.168 368.094 315.118C366.97 316.067 366.83 317.747 367.779 318.869L371.376 323.124Z" fill="black"/>
<path d="M374.871 323.133C375.824 322.327 375.944 320.896 375.138 319.943L371.541 315.689C370.735 314.736 369.304 314.617 368.351 315.422C367.398 316.228 367.278 317.659 368.084 318.612L371.681 322.866C372.487 323.819 373.918 323.939 374.871 323.133Z" fill="white"/>
<path d="M365.995 335.765C366.509 336.386 367.437 336.432 368.474 335.556L381.28 324.728C383.024 323.254 382.828 321.438 380.92 320.53C380.798 320.471 380.669 320.418 380.532 320.367C380.517 320.363 380.507 320.356 380.493 320.352L375.998 318.735C374.848 318.321 374.211 320.951 373.213 321.367C370.054 322.677 369.291 320.991 369.192 322.209C369.112 323.166 368.869 324.307 368.547 325.485C368.513 325.618 368.477 325.748 368.438 325.875C368.332 326.246 368.222 326.616 368.106 326.987C368.064 327.116 368.023 327.24 367.98 327.371C367.827 327.845 367.667 328.31 367.504 328.761C367.462 328.891 367.417 329.018 367.37 329.141C366.516 331.49 365.692 333.348 365.692 333.348C365.477 334.194 365.535 334.919 365.782 335.427C365.842 335.554 365.912 335.667 365.995 335.765Z" fill="black"/>
<path d="M366.312 335.523C366.371 335.593 366.437 335.652 366.512 335.698C366.941 335.964 367.563 335.803 368.216 335.252L381.021 324.425C381.812 323.756 382.178 323.013 382.056 322.332C381.946 321.719 381.448 321.199 380.644 320.848C374.96 327.369 370.485 332.021 367.282 334.729C366.944 335.014 366.621 335.277 366.312 335.523Z" fill="white"/>
<path d="M366.312 335.523C366.621 335.277 366.944 335.015 367.282 334.728C370.485 332.021 374.96 327.369 380.644 320.848C380.554 320.803 380.455 320.766 380.356 320.73L380.249 320.69L375.861 319.112C375.768 319.077 375.652 319.069 375.46 319.232C375.197 319.453 374.937 319.868 374.678 320.275C374.397 320.727 374.099 321.198 373.749 321.494C373.624 321.6 373.498 321.68 373.366 321.734C371.504 322.508 370.395 322.296 369.795 322.181C369.733 322.17 369.658 322.155 369.599 322.147C369.597 322.17 369.592 322.201 369.589 322.239C369.269 326.161 366.333 332.889 366.069 333.479C365.909 334.137 365.929 334.742 366.105 335.174C366.157 335.308 366.226 335.428 366.312 335.523Z" fill="#0F4A6E"/>
<path d="M365.994 335.765C366.1 335.686 366.203 335.604 366.312 335.522C366.621 335.277 366.944 335.014 367.282 334.728C370.485 332.021 374.96 327.368 380.644 320.847C380.735 320.745 380.826 320.636 380.92 320.53C380.798 320.472 380.669 320.418 380.531 320.367C380.437 320.479 380.343 320.584 380.249 320.689C374.048 327.805 369.306 332.662 366.105 335.174C365.996 335.261 365.89 335.346 365.781 335.427L365.994 335.765Z" fill="black"/>
<path d="M368.438 325.875C370.109 326.35 371.866 324.926 372.104 324.725L372.128 324.705C372.211 324.635 372.219 324.509 372.146 324.423C372.077 324.34 371.958 324.336 371.864 324.405C371.843 324.423 370.103 325.915 368.546 325.485C368.513 325.618 368.477 325.748 368.438 325.875Z" fill="white"/>
<path d="M367.98 327.371C369.681 327.946 371.517 326.462 371.761 326.255L371.785 326.235C371.868 326.165 371.875 326.038 371.803 325.953C371.733 325.87 371.615 325.866 371.52 325.935C371.499 325.953 369.687 327.507 368.106 326.987C368.064 327.116 368.023 327.24 367.98 327.371Z" fill="white"/>
<path d="M367.37 329.14C369.036 329.615 370.796 328.195 371.034 327.994L371.058 327.973C371.139 327.901 371.146 327.774 371.076 327.692C371.005 327.606 370.888 327.605 370.794 327.674C370.771 327.689 369.052 329.163 367.504 328.761C367.463 328.89 367.417 329.017 367.37 329.14Z" fill="white"/>
<path d="M374.2 316.735L372.87 317.905L369.899 320.529L368.333 321.907C368.333 321.907 366.967 320.848 364.75 319.051C364.623 318.947 364.495 318.84 364.363 318.731C364.359 318.731 364.359 318.728 364.359 318.728C361.687 316.547 357.922 313.4 353.86 309.778C353.856 309.774 353.856 309.774 353.851 309.77C353.704 309.638 353.556 309.506 353.408 309.374C343.64 300.616 332.349 289.218 330.477 281.874C326.71 267.133 344.47 223.901 344.47 223.901L352.418 224.104L363.353 224.38L362.906 225.627L351.396 257.684L351.384 257.724L350.968 258.886L343.952 278.435L351.396 287.865L351.831 288.412L351.843 288.428L364.707 304.718L364.71 304.722L365.098 305.213L374.2 316.735Z" fill="#0F4A6E"/>
<path d="M372.179 242.903C369.899 260.159 365.366 278.059 365.366 278.059L364.707 304.717L364.551 311.147L364.363 318.731L364.339 319.622L364.052 331.319H356.264C356.264 331.319 355.086 321.407 353.86 309.777C353.117 302.676 352.354 294.932 351.831 288.41C351.488 284.106 351.252 280.335 351.193 277.632C351.096 273.179 351.2 265.703 351.384 257.723C351.684 244.875 352.179 230.729 352.359 225.841C352.391 224.87 352.415 224.264 352.419 224.104C352.423 224.076 352.423 224.064 352.423 224.064C352.423 224.064 365.642 223.321 366.916 225.002C367.211 225.394 367.515 225.853 367.811 226.364C368.901 228.205 369.995 230.749 370.826 233.409C371.884 236.788 372.519 240.354 372.179 242.903Z" fill="#0F4A6E"/>
<path d="M380.151 207.982C380.254 209.552 378.916 212.143 378.358 213.477C374.847 221.896 372.422 227.132 372.422 227.132C372.422 227.132 370.877 232.291 369.919 234.025C369.128 235.458 368.588 237.683 366.524 239.217C366.248 239.42 365.937 239.548 365.617 239.612C365.473 239.644 365.326 239.664 365.182 239.668C364.954 239.68 364.731 239.664 364.515 239.62C364.391 239.6 364.272 239.568 364.16 239.532C363.968 239.472 363.789 239.392 363.636 239.3C363.525 239.232 363.425 239.16 363.341 239.081C363.142 238.889 363.029 238.669 363.049 238.446C363.145 237.387 365.733 233.541 365.187 232.088C364.871 231.249 363.493 234.228 362.762 233.709C362.055 233.202 365.286 228.457 366.224 227.966C367.327 227.387 368.577 226.664 369.052 225.973C370.625 223.692 371.696 221.309 372.747 215.769C373.473 211.943 375.242 208.72 375.082 208.141C371.847 196.571 368.728 188.923 368.305 186.878C368.125 186.016 367.287 183.44 367.878 181.874C368.193 181.047 368.621 179.075 370.514 180.033C371.077 180.321 375.446 188.771 377.674 198.751C378.222 201.212 379.348 203.636 379.883 206.108C379.883 206.108 380.354 207.303 380.151 207.982Z" fill="black"/>
<path d="M365.055 239.273C364.367 239.273 363.802 238.999 363.57 238.744C363.509 238.677 363.438 238.577 363.447 238.481C363.476 238.166 363.864 237.366 364.24 236.592C365.049 234.922 365.967 233.028 365.561 231.946C365.464 231.691 365.263 231.538 365.022 231.538C364.636 231.538 364.315 231.926 363.871 232.464C363.675 232.703 363.301 233.157 363.069 233.315C363.246 232.33 365.61 228.74 366.411 228.319C367.514 227.74 368.848 226.975 369.383 226.201C370.948 223.932 372.064 221.511 373.139 215.845C373.554 213.657 374.309 211.69 374.86 210.254C375.365 208.938 375.566 208.39 375.466 208.033C373.449 200.813 371.476 195.123 370.171 191.358C369.404 189.143 368.849 187.543 368.695 186.798C368.665 186.653 368.617 186.461 368.56 186.234C368.295 185.177 367.801 183.211 368.253 182.017C368.287 181.93 368.321 181.83 368.358 181.722C368.639 180.907 368.945 180.176 369.593 180.176C369.798 180.176 370.038 180.243 370.306 180.375C370.915 180.977 375.115 189.114 377.285 198.838C377.56 200.07 377.98 201.304 378.387 202.498C378.799 203.709 379.225 204.961 379.492 206.193L379.499 206.225L379.511 206.256C379.674 206.669 379.889 207.471 379.77 207.865L379.749 207.934L379.754 208.006C379.833 209.191 378.951 211.16 378.368 212.464C378.225 212.784 378.095 213.075 377.991 213.323C374.524 221.64 372.084 226.911 372.06 226.963L372.048 226.989L372.039 227.016C372.024 227.068 370.495 232.154 369.57 233.83C369.365 234.202 369.18 234.616 368.984 235.054C368.408 236.343 367.754 237.806 366.287 238.894C365.864 239.207 365.384 239.273 365.055 239.273Z" fill="white"/>
<path d="M345.621 200.625C344.95 202.586 343.453 209.319 342.925 209.794C342.749 210.134 341.551 210.933 341.024 210.817C339.734 210.545 338.113 208.508 337.306 207.366C335.121 204.279 329.938 194.893 329.938 194.893C329.938 194.893 325.756 190.84 324.698 189.107C323.843 187.705 322.49 186.231 322.377 184.618C322.349 184.226 322.394 183.803 322.497 183.396C322.533 183.26 322.573 183.128 322.621 182.996C322.729 182.701 322.869 182.421 323.037 182.174C323.1 182.074 323.172 181.981 323.248 181.895C323.428 181.69 323.631 181.523 323.851 181.407L323.871 181.399C323.975 181.347 324.087 181.311 324.203 181.287C324.642 181.187 325.133 181.299 325.656 181.722C326.483 182.389 328.069 185.82 329.59 186.131C330.469 186.311 328.68 183.555 329.506 183.216C330.313 182.884 332.957 188.26 332.873 189.315C332.777 190.556 333.408 193.332 333.408 193.332C333.408 193.332 335.254 197.378 339.383 201.215C339.59 201.407 339.795 201.607 339.99 201.807C342.202 193.184 343.221 187.246 343.804 185.608C344.104 184.777 344.727 182.145 346.049 181.119C346.751 180.572 348.277 179.198 349.391 181.004C349.723 181.543 348.916 190.948 345.621 200.625Z" fill="black"/>
<path d="M341.106 210.427C340.261 210.248 338.962 209.017 337.632 207.136C335.487 204.102 330.338 194.794 330.286 194.701L330.257 194.649L330.215 194.607C330.173 194.567 326.057 190.57 325.038 188.899C324.818 188.538 324.563 188.168 324.317 187.81C323.597 186.767 322.853 185.688 322.775 184.59C322.714 183.713 323.051 182.694 323.595 182.11C323.878 181.806 324.183 181.652 324.5 181.652C324.788 181.652 325.092 181.78 325.405 182.033C325.647 182.229 326.03 182.802 326.436 183.408C327.339 184.757 328.362 186.287 329.512 186.522C329.565 186.533 329.618 186.538 329.667 186.538C329.857 186.538 330.02 186.459 330.124 186.313C330.36 185.987 330.197 185.496 329.973 184.817C329.872 184.512 329.676 183.922 329.679 183.654C330.426 184.21 332.547 188.383 332.477 189.284C332.377 190.572 332.993 193.305 333.019 193.422L333.029 193.462L333.045 193.499C333.122 193.667 334.972 197.662 339.111 201.507C339.316 201.698 339.514 201.892 339.709 202.088L340.204 202.585L340.379 201.905C341.592 197.176 342.445 193.262 343.067 190.405C343.565 188.114 343.926 186.46 344.181 185.743C344.232 185.604 344.291 185.414 344.361 185.19C344.685 184.151 345.289 182.216 346.296 181.433L346.43 181.328C346.845 181 347.472 180.503 348.047 180.503C348.421 180.503 348.744 180.726 349.036 181.186C349.224 181.995 348.475 191.008 345.242 200.497C344.98 201.266 344.598 202.733 344.194 204.286C343.69 206.226 342.927 209.158 342.645 209.512L342.591 209.56L342.572 209.609C342.446 209.822 341.536 210.43 341.134 210.43C341.133 210.429 341.107 210.428 341.106 210.427Z" fill="white"/>
<path d="M369.027 191.223C369.924 192.922 370.806 194.426 370.806 194.426L375.979 192.524C375.979 192.524 373.593 182.636 371.431 180.413C370.657 179.617 367.692 179.235 367.692 179.235L367.691 179.237C365.333 178.882 362.107 178.764 359.419 178.728C356.624 178.691 352.199 179.456 349.692 179.776C348.936 179.873 348.037 179.85 346.757 180.596C346.693 180.631 346.635 180.665 346.596 180.698C345.213 181.598 343.735 183.365 343.014 186.83C341.683 193.23 342.113 191.899 341.161 195.134C340.979 195.751 346.606 197.496 346.606 197.496L347.278 196.101C347.694 199.39 348.071 202.468 348.126 204.474C348.421 215.121 344.47 223.899 344.47 223.899C344.47 223.899 347.419 225.973 355.912 225.973C363.004 225.973 366.917 225.003 366.917 225.003C366.917 225.003 364.831 216.831 365.919 204.741C366.183 201.791 367.723 196.293 369.027 191.223Z" fill="black"/>
<path d="M355.911 225.574C349.08 225.574 345.878 224.204 344.975 223.73C345.682 222.019 348.787 213.924 348.525 204.464C348.471 202.484 348.107 199.483 347.674 196.05L347.504 194.709L346.396 197.011C344.318 196.352 342.057 195.495 341.586 195.102C342.174 193.104 342.213 192.901 342.526 191.282C342.693 190.422 342.945 189.123 343.405 186.911C343.989 184.103 345.136 182.125 346.814 181.032L346.833 181.02L346.85 181.005C346.873 180.987 346.908 180.969 346.945 180.949C348.106 180.245 349.042 180.243 349.771 180.167C352.112 179.926 356.254 179.125 359.127 179.125L359.413 179.128C362.962 179.175 365.727 179.345 367.633 179.632L368.091 179.7V179.697C369.197 179.878 370.715 180.249 371.146 180.692C372.984 182.583 375.062 190.515 375.505 192.273L370.984 193.936C370.686 193.419 370.034 192.274 369.381 191.037L368.899 190.123L368.641 191.124C368.422 191.976 368.195 192.84 367.97 193.702C366.826 198.081 365.744 202.218 365.52 204.704C364.574 215.23 366.043 222.899 366.437 224.699C365.292 224.933 361.626 225.574 355.911 225.574Z" fill="#0066CB"/>
<path d="M353.852 309.769C353.705 309.637 353.557 309.505 353.409 309.374C353.077 306.522 352.354 300.164 352.163 297.672L351.396 287.863L351.843 288.427L352.558 297.64C352.762 300.268 353.557 307.197 353.852 309.769Z" fill="white"/>
<path d="M365.098 305.213L364.751 319.051C364.623 318.947 364.495 318.84 364.363 318.731L364.339 319.622H364.335L364.359 318.727L364.551 311.147L364.71 304.721L365.098 305.213Z" fill="white"/>
<path d="M351.724 245.011L351.396 257.684L351.384 257.723L350.969 258.886L351.324 245.004C351.324 244.892 351.432 244.804 351.527 244.808C351.64 244.811 351.724 244.904 351.724 245.011Z" fill="white"/>
<path d="M324.203 181.288L327.198 186.192L323.851 181.407L324.203 181.288Z" fill="black"/>
<path d="M326.104 186.567L323.037 182.174C323.1 182.074 323.172 181.981 323.248 181.895L326.104 186.567Z" fill="black"/>
<path d="M325.433 187.598L322.497 183.397C322.533 183.261 322.573 183.129 322.621 182.997L325.433 187.598Z" fill="black"/>
<path d="M366.656 233.925L363.636 239.3C363.525 239.232 363.425 239.16 363.341 239.081L366.656 233.925Z" fill="black"/>
<path d="M367.387 234.516L364.515 239.619C364.391 239.599 364.271 239.567 364.16 239.531L367.387 234.516Z" fill="black"/>
<path d="M368.389 234.684L365.618 239.612C365.474 239.644 365.326 239.664 365.182 239.668L368.389 234.684Z" fill="black"/>
<path d="M357.372 181.422C355.835 181.422 353.187 180.473 353.062 179.575C353 179.13 355.186 179.012 355.189 178.277C355.19 178.117 355.19 177.949 355.188 177.773V173.525C352.259 173.372 351.701 171.67 351.251 168.223C351.181 168.174 350.971 168.122 350.842 168.091C350.458 167.996 349.876 167.852 349.847 167.267C349.835 167.013 350.009 166.426 350.439 165.049C350.647 164.385 350.932 163.474 350.945 163.295C350.945 158.497 353.639 157.512 357.684 157.512C361.419 157.512 363.475 160.438 363.475 165.749C363.475 167.9 362.717 169.792 361.279 171.23C361.279 171.23 360.602 176.774 361.099 177.578C361.62 178.418 363.605 178.809 363.795 178.869C364.288 179.025 363.213 179.571 362.963 179.709C361.369 180.585 359.526 181.422 357.372 181.422Z" fill="black"/>
<path d="M360.879 177.93C359.854 176.553 360.879 171.063 360.879 171.063C362.207 169.792 363.076 167.983 363.076 165.75C363.076 161.173 361.489 157.912 357.684 157.912C353.879 157.912 351.344 158.727 351.344 163.304C351.344 163.701 350.226 166.846 350.246 167.247C350.274 167.819 351.571 167.585 351.644 168.146C352.107 171.707 352.63 173.12 355.587 173.137C355.587 173.137 355.619 176.545 355.587 178.13C355.578 178.587 354.909 179.242 353.545 179.509C352.874 179.64 355.691 181.306 357.577 181.187C360.786 180.986 362.386 179.632 363.069 179.232C363.618 178.911 361.275 178.463 360.879 177.93Z" fill="white"/>
<path d="M357.966 170.342C359.138 172.275 360.879 176.418 364.279 176.813C367.1 177.141 372.51 172.415 370.946 168.43C370.147 166.397 370.508 164.538 371.294 162.092C373.042 156.649 370.078 157.152 367.85 151.956C366.307 148.357 360.539 151.517 359.064 150.681C357.549 149.822 352.364 149.656 349.846 153.702C348.869 155.273 349.678 159.56 353.041 160.758C353.919 161.07 356.453 162.089 356.811 163.287C357.167 164.485 357.039 168.815 357.966 170.342Z" fill="#232C53"/>
<path d="M356.716 166.995C356.479 168.17 356.165 169.099 356.808 169.229C357.45 169.358 358.807 168.64 359.044 167.465C359.281 166.289 358.952 165.231 358.309 165.101C357.667 164.972 356.953 165.819 356.716 166.995Z" fill="white"/>
<path d="M355.359 173.553C355.487 173.553 356.869 173.521 357.498 172.175C357.545 172.075 357.502 171.957 357.402 171.91C357.303 171.864 357.183 171.906 357.136 172.006C356.6 173.153 355.405 173.153 355.356 173.154C355.244 173.139 355.156 173.241 355.154 173.352C355.153 173.462 355.241 173.552 355.351 173.553C355.352 173.553 355.355 173.553 355.359 173.553Z" fill="black"/>
<path d="M135.194 338.899C135.194 340.296 133.941 341.428 132.397 341.428C130.852 341.428 129.599 340.296 129.599 338.899V331.781C129.599 330.384 130.852 329.251 132.397 329.251C133.941 329.251 135.194 330.384 135.194 331.781V338.899Z" fill="black"/>
<path d="M132.397 341.028C131.076 341.028 130.001 340.073 130.001 338.899V331.782C130.001 330.608 131.076 329.653 132.397 329.653C133.718 329.653 134.793 330.608 134.793 331.782V338.899C134.793 340.073 133.718 341.028 132.397 341.028Z" fill="white"/>
<path d="M139.107 345.046C139.095 344.917 139.072 344.781 139.034 344.645C138.982 344.436 138.902 344.22 138.794 343.991L135.882 335.618C135.689 335.209 135.542 335.502 135.193 335.971C135.085 336.119 134.952 336.283 134.792 336.448C134.29 336.969 133.504 337.494 132.193 337.494C131.211 337.494 130.517 337.149 129.999 336.801C129.851 336.705 129.719 336.604 129.598 336.516C129.254 336.251 129.013 336.059 128.817 336.135C128.817 336.135 126.338 342.122 125.355 344.056C125.279 344.207 125.215 344.352 125.166 344.488C125.115 344.625 125.079 344.753 125.054 344.873C124.77 346.205 125.804 346.942 127.496 347.432C130.569 348.318 133.777 347.917 136.616 347.432C138.26 347.151 139.239 346.329 139.107 345.046ZM138.565 345.92C138.277 346.474 137.579 346.859 136.548 347.035C135.045 347.292 133.272 347.556 131.503 347.556C130.072 347.556 128.796 347.388 127.609 347.047C126.419 346.702 125.729 346.281 125.5 345.747C125.4 345.519 125.38 345.259 125.445 344.961C127.421 345.415 130.06 345.844 132.904 345.844C134.797 345.844 136.777 345.656 138.714 345.15C138.733 345.438 138.686 345.695 138.565 345.92Z" fill="black"/>
<path d="M138.565 345.92C138.277 346.474 137.579 346.859 136.548 347.035C135.045 347.292 133.272 347.557 131.503 347.557C130.072 347.557 128.796 347.388 127.609 347.047C126.419 346.702 125.729 346.281 125.5 345.748C125.4 345.519 125.38 345.259 125.445 344.961C127.421 345.415 130.06 345.844 132.904 345.844C134.797 345.844 136.777 345.656 138.714 345.15C138.733 345.439 138.686 345.696 138.565 345.92Z" fill="white"/>
<path d="M138.714 345.15C136.777 345.656 134.796 345.844 132.903 345.844C130.06 345.844 127.421 345.415 125.444 344.961C125.468 344.841 125.504 344.713 125.56 344.58C125.6 344.472 125.652 344.356 125.713 344.24C126.57 342.547 128.523 337.883 129.053 336.608C129.137 336.665 129.237 336.74 129.318 336.805C129.406 336.869 129.498 336.941 129.598 337.013C129.719 337.097 129.855 337.189 129.999 337.277C130.536 337.603 131.239 337.896 132.193 337.896C133.416 337.896 134.234 337.467 134.791 336.993C134.943 336.865 135.076 336.732 135.193 336.604C135.37 336.408 135.506 336.218 135.618 336.07L138.425 344.147L138.433 344.163C138.529 344.367 138.601 344.56 138.646 344.749C138.682 344.886 138.706 345.022 138.714 345.15Z" fill="#0F4A6E"/>
<path d="M139.108 345.046C138.979 345.082 138.846 345.118 138.714 345.15C136.777 345.656 134.796 345.844 132.903 345.844C130.06 345.844 127.421 345.415 125.444 344.961C125.311 344.933 125.183 344.905 125.055 344.873C125.08 344.753 125.115 344.625 125.166 344.488C125.295 344.52 125.428 344.548 125.56 344.58C128.828 345.319 133.874 345.996 138.646 344.749C138.778 344.717 138.907 344.681 139.034 344.645C139.071 344.782 139.095 344.917 139.108 345.046Z" fill="black"/>
<path d="M132.303 340.181C131.801 340.181 131.343 340.112 130.954 340.018C129.78 339.732 128.883 339.128 128.814 338.989C128.764 338.889 128.805 338.769 128.904 338.72C128.99 338.678 129.09 338.701 129.148 338.771C129.268 338.864 132.269 340.995 135.338 338.756C135.427 338.691 135.553 338.71 135.618 338.8C135.683 338.889 135.664 339.015 135.575 339.08C134.42 339.922 133.276 340.181 132.303 340.181Z" fill="black"/>
<path d="M132.16 341.474C131.657 341.474 131.199 341.405 130.81 341.31C129.636 341.024 128.739 340.421 128.669 340.281C128.62 340.182 128.66 340.062 128.76 340.012C128.846 339.97 128.946 339.993 129.004 340.064C129.124 340.156 132.124 342.287 135.194 340.049C135.284 339.984 135.409 340.003 135.474 340.092C135.54 340.182 135.52 340.308 135.431 340.373C134.276 341.214 133.132 341.474 132.16 341.474Z" fill="black"/>
<path d="M132.16 342.854C131.657 342.854 131.199 342.785 130.81 342.69C129.636 342.405 128.739 341.801 128.669 341.661C128.62 341.562 128.66 341.442 128.76 341.392C128.846 341.35 128.946 341.373 129.004 341.444C129.124 341.537 132.124 343.667 135.194 341.429C135.284 341.364 135.409 341.384 135.474 341.473C135.54 341.563 135.52 341.688 135.431 341.753C134.276 342.594 133.132 342.854 132.16 342.854Z" fill="black"/>
<path d="M168.717 337.245C168.717 338.721 167.52 339.918 166.043 339.918C164.567 339.918 163.37 338.721 163.37 337.245V331.651C163.37 330.174 164.567 328.977 166.043 328.977C167.52 328.977 168.717 330.174 168.717 331.651V337.245Z" fill="black"/>
<path d="M166.043 339.517C164.79 339.517 163.771 338.497 163.771 337.245V331.651C163.771 330.397 164.79 329.377 166.043 329.377C167.297 329.377 168.316 330.397 168.316 331.651V337.245C168.316 338.498 167.297 339.517 166.043 339.517Z" fill="white"/>
<path d="M180.984 343.051C180.843 342.502 180.418 341.908 179.704 341.399C179.704 341.399 177.868 340.508 175.69 339.261C175.574 339.197 175.457 339.129 175.34 339.057C174.924 338.816 174.498 338.564 174.074 338.299C173.958 338.227 173.845 338.159 173.729 338.086C173.399 337.878 173.075 337.665 172.755 337.448C172.642 337.376 172.53 337.3 172.418 337.22C171.406 336.526 170.481 335.808 169.798 335.126C169.31 334.633 169.257 334.994 168.716 335.588C168.604 335.708 168.476 335.836 168.315 335.968C167.874 336.345 167.216 336.755 166.17 337.088C165.58 337.276 164.61 336.831 163.771 336.614C163.635 336.582 163.499 336.55 163.371 336.534C162.917 336.462 162.533 336.518 162.328 336.875L159.929 341.03C159.922 341.042 159.918 341.053 159.909 341.066C159.837 341.194 159.773 341.318 159.717 341.443C158.842 343.375 159.87 344.896 162.163 344.896H179.003C180.365 344.896 181.048 344.258 181.04 343.448C181.04 343.319 181.02 343.187 180.984 343.051ZM180.598 343.732C180.443 344.217 179.86 344.495 179.003 344.495H162.163C161.125 344.495 160.363 344.162 160.013 343.56C159.701 343.023 159.744 342.301 160.134 341.507C168.72 342.822 175.169 343.488 179.38 343.488C179.824 343.488 180.242 343.48 180.64 343.468C180.639 343.56 180.626 343.648 180.598 343.732Z" fill="black"/>
<path d="M180.639 343.468C180.639 343.56 180.626 343.648 180.598 343.732C180.443 344.217 179.86 344.494 179.002 344.494H162.163C161.125 344.494 160.363 344.161 160.013 343.56C159.701 343.023 159.744 342.3 160.134 341.507C168.72 342.822 175.169 343.487 179.38 343.487C179.824 343.487 180.242 343.479 180.639 343.468Z" fill="white"/>
<path d="M180.639 343.468C180.242 343.479 179.824 343.487 179.38 343.487C175.169 343.487 168.72 342.822 160.134 341.507C160.174 341.414 160.226 341.322 160.278 341.23L160.334 341.13L162.676 337.075C162.728 336.987 162.809 336.906 163.065 336.906C163.158 336.906 163.262 336.919 163.37 336.939C163.495 336.959 163.631 336.992 163.771 337.031C163.955 337.084 164.148 337.143 164.337 337.203C164.85 337.364 165.379 337.532 165.841 337.532C166.009 337.532 166.153 337.512 166.289 337.468C167.208 337.175 167.854 336.823 168.315 336.482C168.467 336.369 168.599 336.257 168.716 336.153C168.988 335.904 169.177 335.671 169.317 335.498C169.357 335.447 169.406 335.387 169.445 335.342C169.465 335.359 169.49 335.383 169.514 335.411C170.208 336.109 171.137 336.83 172.152 337.532C172.265 337.609 172.382 337.685 172.497 337.765C172.818 337.982 173.151 338.194 173.484 338.406C173.599 338.479 173.716 338.551 173.836 338.623C174.249 338.88 174.663 339.129 175.067 339.365C175.188 339.436 175.312 339.509 175.432 339.577C177.466 340.748 179.214 341.607 179.5 341.748C180.048 342.148 180.425 342.626 180.57 343.067C180.619 343.207 180.642 343.339 180.639 343.468Z" fill="#0F4A6E"/>
<path d="M181.04 343.447C180.908 343.455 180.775 343.46 180.639 343.468C180.242 343.479 179.824 343.487 179.38 343.487C175.169 343.487 168.72 342.822 160.134 341.507C159.997 341.487 159.857 341.463 159.717 341.443C159.773 341.318 159.837 341.194 159.908 341.066C160.054 341.09 160.194 341.109 160.334 341.13C169.702 342.566 176.487 343.214 180.571 343.067C180.711 343.063 180.847 343.058 180.984 343.051L181.04 343.447Z" fill="black"/>
<path d="M172.754 337.449C171.78 338.896 169.51 338.945 169.198 338.945H169.166C169.058 338.945 168.969 338.853 168.969 338.74C168.969 338.632 169.058 338.552 169.173 338.544C169.202 338.544 171.504 338.56 172.418 337.221C172.53 337.3 172.643 337.376 172.754 337.449Z" fill="black"/>
<path d="M174.074 338.298C173.144 339.843 170.773 339.895 170.453 339.895H170.421C170.313 339.895 170.224 339.802 170.224 339.69C170.224 339.582 170.313 339.502 170.428 339.494C170.456 339.494 172.855 339.51 173.729 338.086C173.846 338.158 173.958 338.226 174.074 338.298Z" fill="black"/>
<path d="M175.691 339.262C174.72 340.706 172.45 340.758 172.138 340.758H172.105C171.996 340.753 171.909 340.662 171.909 340.553C171.909 340.441 171.996 340.365 172.113 340.357C172.141 340.352 174.415 340.369 175.342 339.058C175.458 339.13 175.574 339.198 175.691 339.262Z" fill="black"/>
<path d="M182.855 156.381C182.855 161.402 181.264 163.852 179.525 163.852C178.099 163.852 175.773 160.582 175.385 156.831C175.299 156.006 176.375 155.667 176.375 154.761C176.375 149.74 176.075 145.4 177.815 145.4C178.61 145.4 178.25 150.931 178.805 152.331C179.155 153.216 181.048 152.61 181.235 153.861C181.401 154.965 182.855 155.102 182.855 156.381Z" fill="black"/>
<path d="M179.524 163.452C179.069 163.452 178.237 162.86 177.404 161.535C176.544 160.166 175.953 158.437 175.782 156.79C175.758 156.558 175.901 156.379 176.155 156.082C176.431 155.761 176.774 155.36 176.774 154.762C176.774 154.097 176.77 153.444 176.764 152.813C176.739 149.669 176.715 146.699 177.456 145.954C177.531 145.878 177.61 145.832 177.702 145.812C177.748 145.922 177.825 146.188 177.892 146.812C177.956 147.417 177.993 148.188 178.028 148.934C178.098 150.409 178.165 151.802 178.433 152.478C178.67 153.078 179.318 153.211 179.84 153.318C180.492 153.451 180.784 153.549 180.84 153.921C180.939 154.581 181.378 154.957 181.765 155.29C182.193 155.655 182.455 155.905 182.455 156.382C182.455 158.66 182.12 160.541 181.484 161.822C180.963 162.873 180.266 163.452 179.524 163.452Z" fill="white"/>
<path d="M113.194 249.12C113.194 250.748 110.335 247.099 110.095 248.454C109.556 251.458 108.863 256.175 107.752 256.443C107.668 256.467 107.58 256.463 107.491 256.427C107.447 256.411 107.407 256.395 107.363 256.375C106.994 256.231 106.665 256.058 106.376 255.865C106.239 255.777 106.111 255.685 105.991 255.58C105.678 255.332 105.418 255.043 105.197 254.722C105.069 254.542 104.957 254.353 104.856 254.149C104.002 252.425 104.002 249.906 104.002 246.461C104.002 244.183 104.84 242.138 104.72 240.405C104.442 236.496 106.36 236.496 107.491 236.496C108.362 236.496 110.094 237.049 109.649 240.594C109.293 243.454 113.194 246.1 113.194 249.12Z" fill="black"/>
<path d="M107.633 256.051C104.401 254.821 104.401 251.852 104.401 246.461C104.401 245.371 104.601 244.335 104.793 243.332C104.994 242.289 105.183 241.304 105.119 240.377C105.018 238.937 105.215 237.941 105.706 237.415C106.189 236.897 106.909 236.897 107.489 236.897C107.772 236.897 108.309 236.968 108.725 237.44C109.249 238.033 109.43 239.106 109.251 240.543C109.048 242.163 110.059 243.678 111.036 245.142C111.895 246.432 112.783 247.764 112.791 249.101C112.566 248.995 112.182 248.718 111.935 248.539C111.346 248.112 110.837 247.744 110.394 247.744C110.029 247.744 109.768 247.983 109.697 248.384C109.641 248.702 109.582 249.041 109.521 249.391C109.205 251.214 108.365 256.056 107.652 256.056C107.648 256.056 107.64 256.055 107.633 256.051Z" fill="white"/>
<path d="M108.185 250.396C108.153 250.848 108.012 254.017 107.808 255.986C107.789 256.146 107.772 256.303 107.752 256.443C107.668 256.467 107.58 256.463 107.492 256.427C107.447 256.411 107.407 256.395 107.363 256.375C107.371 256.243 107.382 256.106 107.395 255.958C107.571 253.988 108.117 250.836 108.185 250.396Z" fill="black"/>
<path d="M106.773 250.071C106.745 250.504 106.616 253.431 106.424 255.404C106.408 255.565 106.392 255.721 106.376 255.865C106.24 255.777 106.112 255.685 105.991 255.58C106.007 255.42 106.023 255.252 106.039 255.08C106.256 253.118 106.713 250.467 106.773 250.071Z" fill="black"/>
<path d="M105.514 249.789C105.49 250.146 105.398 252.199 105.257 254.016C105.237 254.257 105.218 254.493 105.197 254.722C105.069 254.541 104.957 254.353 104.856 254.148C104.889 253.883 104.924 253.615 104.965 253.343C105.189 251.722 105.466 250.098 105.514 249.789Z" fill="black"/>
<path d="M167.325 263.502C165.485 256.911 159.969 237.14 159.969 237.14L158.78 232.878L154.469 233.062L128.003 234.199L123.191 234.406L123.395 239.015L127.607 334.054L136.821 333.646L142.505 249.356L159.444 286.672L160.101 333.444L169.438 332.569C169.438 332.569 170.979 315.18 171.542 308.822C172.051 303.092 173.607 291.347 173.079 285.619C172.546 279.829 168.887 269.102 167.325 263.502Z" fill="black"/>
<path d="M123.609 234.788L154.486 233.462L158.48 233.291L159.584 237.247C159.584 237.247 165.1 257.018 166.939 263.608C167.33 265.012 167.861 266.763 168.423 268.617C170.144 274.29 172.285 281.351 172.681 285.655C173.088 290.066 172.232 298.223 171.607 304.18C171.427 305.89 171.258 307.504 171.145 308.785L169.07 332.201L160.496 333.004L159.844 286.582L142.87 249.19L142.106 249.328L136.446 333.262L127.988 333.636L123.609 234.788Z" fill="#0F4A6E"/>
<path d="M185.857 190.066C185.947 185.184 185.748 180.037 184.917 175.225C184.175 170.932 183.369 166.654 182.415 162.403C182.415 162.403 177.1 162.842 177.076 162.844C176.883 162.863 177.041 172.297 177.037 173.124C177.024 176.357 176.953 179.595 176.65 182.815C170.467 180.322 164.281 177.829 158.097 175.336C157.545 175.113 156.993 174.89 156.44 174.668C156.212 174.571 155.977 174.477 155.738 174.385C155.73 174.382 155.721 174.379 155.712 174.375V174.376C150.679 172.452 143.352 171.726 139.393 171.726C135.621 171.726 128.819 172.664 124.288 174.671C121.674 175.496 117.714 178.098 116.508 179.499C113.997 182.416 111.661 191.796 110.602 195.497C109.732 198.536 108.07 204.517 107.461 207.618C106.706 211.459 105.845 219.325 105.42 223.216C104.954 227.468 103.56 240.224 103.56 240.224L110.828 241.405C110.828 241.405 117.104 217.646 119.554 209.883C119.845 208.962 120.324 207.752 120.87 206.459C120.999 207.629 121.08 208.714 121.08 209.674C121.08 217.079 120.625 234.042 121.08 236.276C122.119 241.384 137.789 240.955 143.002 240.955C148.015 240.955 159.109 238.618 160.246 233.736C161.791 227.108 159.177 215.541 159.177 207.535C159.177 203.491 160.796 197.102 161.661 191.049C163.934 191.592 166.085 192.092 167.398 192.363C170.304 192.964 173.237 193.439 176.163 193.936C178.682 194.364 183.235 195.537 184.809 194.065C186.29 192.681 185.836 191.207 185.857 190.066Z" fill="black"/>
<path d="M103.999 239.89C104.234 237.748 105.399 227.076 105.817 223.259C106.233 219.455 107.098 211.541 107.853 207.695C108.52 204.303 110.42 197.585 110.986 195.606C111.125 195.125 111.28 194.559 111.462 193.903C112.588 189.824 114.685 182.231 116.811 179.76C118.003 178.375 121.902 175.844 124.409 175.053L124.43 175.046L124.451 175.037C128.719 173.146 135.335 172.125 139.393 172.125C143.136 172.125 150.533 172.824 155.569 174.75L155.674 174.789C155.893 174.874 156.093 174.955 156.283 175.036C156.283 175.036 163.769 178.054 166.68 179.227C169.954 180.547 173.228 181.866 176.501 183.187L176.999 183.387L177.049 182.853C177.369 179.429 177.425 176.015 177.437 173.125C177.437 172.951 177.431 172.405 177.423 171.651C177.4 169.608 177.341 164.465 177.419 163.218C178.346 163.141 181.12 162.911 182.1 162.83C182.918 166.504 183.689 170.476 184.522 175.293C185.257 179.539 185.561 184.369 185.457 190.058C185.453 190.291 185.466 190.527 185.48 190.776C185.538 191.761 185.597 192.78 184.536 193.772C184.102 194.179 183.304 194.384 182.165 194.384C182.165 194.384 182.165 194.384 182.164 194.384C180.693 194.384 178.903 194.043 177.464 193.768C177.022 193.684 176.605 193.604 176.23 193.541C175.797 193.467 175.364 193.394 174.931 193.321C172.481 192.907 169.948 192.48 167.479 191.97C166.324 191.732 164.398 191.291 161.753 190.659L161.327 190.557L161.265 190.991C160.947 193.216 160.527 195.483 160.122 197.675C159.43 201.414 158.777 204.944 158.777 207.535C158.777 210.605 159.149 214.103 159.542 217.806C160.16 223.607 160.797 229.607 159.856 233.644C159.613 234.69 158.836 235.683 157.545 236.597C156.383 237.42 154.837 238.16 152.949 238.796C149.348 240.011 145.359 240.554 143.002 240.554C142.662 240.554 142.278 240.556 141.857 240.558C141.353 240.56 140.781 240.563 140.173 240.563C137.025 240.563 132.395 240.49 128.552 239.864C124.205 239.156 121.822 237.922 121.471 236.195C121.167 234.705 121.284 226.216 121.387 218.726C121.434 215.267 121.479 212.001 121.479 209.674C121.479 208.775 121.41 207.708 121.266 206.414L121.097 204.885L120.5 206.303C119.866 207.806 119.432 208.938 119.172 209.763C116.909 216.93 111.323 237.97 110.533 240.951L103.999 239.89Z" fill="#0066CB"/>
<path d="M139.668 174.812C142.143 174.812 144.393 173.562 144.915 173.04C145.064 172.891 145.113 172.691 145.047 172.505C144.982 172.323 144.852 171.955 142.727 171.696V167.43C145.668 167.277 146.227 165.568 146.68 162.107C146.75 162.057 146.961 162.006 147.09 161.973C147.477 161.879 148.06 161.734 148.089 161.147C148.102 160.891 147.928 160.303 147.495 158.92C147.286 158.253 147 157.338 146.986 157.159C146.987 152.341 144.281 151.352 140.22 151.352C136.47 151.352 134.405 154.289 134.405 159.623C134.405 161.783 135.166 163.682 136.61 165.127V171.49C134.335 171.727 134.2 172.109 134.133 172.297C134.066 172.488 134.119 172.693 134.276 172.845C135.59 174.113 137.506 174.812 139.668 174.812Z" fill="black"/>
<path d="M137.012 171.854V164.957C135.678 163.681 134.807 161.865 134.807 159.622C134.807 155.026 136.399 151.752 140.22 151.752C144.04 151.752 146.586 152.57 146.586 157.166C146.586 157.565 147.709 160.723 147.689 161.126C147.66 161.7 146.358 161.465 146.285 162.028C145.819 165.605 145.295 167.024 142.325 167.04V172.054C142.325 172.054 145.047 172.34 144.631 172.756C144.161 173.226 142.025 174.411 139.668 174.411C136.61 174.411 135.034 173.017 134.556 172.556C134.096 172.111 137.012 171.854 137.012 171.854Z" fill="white"/>
<path d="M139.937 164.235C139.937 164.235 136.595 166.908 135.391 166.24C134.188 165.571 131.694 157.977 132.05 155.546C132.584 151.886 134.6 149.925 136.461 148.862C138.333 147.793 142.075 147.703 143.679 147.525C144.53 147.43 147.153 145.921 148.09 147.525C149.026 149.129 148.259 153.406 144.883 154.61C144.001 154.924 141.456 155.947 141.098 157.149C140.738 158.353 139.937 164.235 139.937 164.235Z" fill="#232C53"/>
<path d="M106.507 57.3622C97.9218 62.1013 96.3423 73.7274 89.0149 66.027C81.6872 58.3258 81.3804 46.7227 88.3291 40.1113C97.9557 30.952 120.735 34.9409 125.134 45.9627C131.107 60.9306 114.457 52.9748 106.507 57.3622Z" fill="white"/>
<path d="M414.508 114.654L414.548 114.42C415.232 110.251 415.139 106.033 414.268 101.883L414.22 101.654L421.666 98.3757L416.146 85.8388H414.19L410.796 87.8667L408.701 89.1178L408.563 88.9278C408.549 88.9075 408.535 88.8887 408.521 88.8687C408.423 88.7329 408.326 88.5996 408.226 88.4663C405.887 85.319 403.057 82.6239 399.804 80.4558C399.707 80.3844 399.307 80.1281 399.307 80.1281L402.253 72.5472L389.485 67.5854H387.529L387.263 69.623L386.577 74.8826L386.539 75.1659L386.47 75.1547L386.308 75.1259C385.935 75.0646 385.561 75.0085 385.188 74.9598C385.022 74.937 384.854 74.9182 384.688 74.8982C383.068 74.7123 381.443 74.6419 379.819 74.6865C377.797 74.7451 375.775 74.9858 373.77 75.4068L373.54 75.4555L373.39 75.1147L370.264 68.0095H368.308L361.739 71.4346L357.725 73.5296L358.125 74.4346L361.009 80.9759L360.816 81.1119C360.657 81.225 360.5 81.3411 360.344 81.4569C357.103 83.8654 354.344 86.7953 352.143 90.1704L352.014 90.3708L350.923 89.947L350.455 89.7636L344.434 87.4238H342.477L341.67 90.8536L339.582 99.7185L339.472 100.19L347.054 103.136L347.014 103.368C346.994 103.484 346.975 103.604 346.959 103.724C346.335 107.776 346.449 111.873 347.295 115.903L347.344 116.135L346.722 116.411L341.617 118.657L339.896 119.414L340.169 120.374L340.782 122.528L341.487 125.006L342.487 128.525L343.461 131.948H345.418L351.382 129.321L351.84 129.119L352.042 129.03L352.862 128.669L352.999 128.86C355.474 132.309 358.52 135.223 362.058 137.529L362.254 137.658L361.935 138.48L360.431 142.351L359.307 145.243L362.691 146.795L370.12 150.205H372.076L374.92 142.885L375.023 142.62L375.255 142.657C376.764 142.906 378.278 143.053 379.794 143.098C381.937 143.161 384.083 143.019 386.215 142.67C386.381 142.646 386.548 142.617 386.713 142.587C386.884 142.558 387.054 142.527 387.225 142.491C387.414 142.455 387.601 142.419 387.79 142.379L387.93 142.351L388.02 142.332L388.024 142.351L388.611 145.654L388.98 147.741L389.343 149.778H391.297L403.834 144.261L402.993 142.351L401.289 138.48L400.555 136.813L400.747 136.674C404.057 134.299 406.881 131.392 409.148 128.025C409.24 127.891 409.33 127.755 409.419 127.617L409.423 127.61L409.545 127.42L411.304 128.34L415.171 130.365H417.127L420.173 122.528L421.676 118.657L422.087 117.601L414.508 114.654ZM401.111 116.795C400.893 117.356 400.654 117.902 400.395 118.436C400.359 118.509 400.323 118.584 400.286 118.657C399.589 120.053 398.755 121.348 397.809 122.528C394.603 126.527 390.099 129.231 385.177 130.252C383.416 130.617 381.603 130.766 379.776 130.683H379.775C377.472 130.578 375.148 130.103 372.884 129.224C369.177 127.783 366.085 125.433 363.765 122.528C362.805 121.325 361.975 120.026 361.291 118.657C358.63 113.339 358.135 106.961 360.453 100.995C363.678 92.694 371.462 87.4815 379.836 87.1065H379.838C381.65 87.0251 383.49 87.1694 385.318 87.5592C386.448 87.8001 387.572 88.1349 388.683 88.5658C399.892 92.9203 405.467 105.586 401.111 116.795Z" fill="#80B3E5"/>
<path d="M412.553 114.655L412.593 114.42C413.277 110.251 413.184 106.033 412.312 101.883L412.265 101.654L419.711 98.376L414.191 85.8391L408.226 88.4665L406.746 89.1181L406.608 88.928C404.206 85.5814 401.26 82.7303 397.849 80.4563C397.751 80.3848 397.352 80.1286 397.352 80.1286L400.299 72.5477L387.53 67.5859L384.689 74.8989L384.585 75.1666L384.353 75.1267C382.848 74.8789 381.334 74.733 379.82 74.6872C377.674 74.6268 375.524 74.7688 373.391 75.1152C372.865 75.1995 372.34 75.2956 371.816 75.4073L371.585 75.456L368.309 68.0099L355.771 73.5301L359.054 80.9764L358.861 81.1124C355.547 83.4908 352.721 86.3991 350.456 89.7643C350.366 89.9004 350.277 90.0348 350.189 90.1711L350.06 90.3715L342.479 87.4246L337.519 100.191L345.099 103.136L345.061 103.368C345.039 103.484 345.02 103.605 345.005 103.725C344.381 107.776 344.494 111.874 345.341 115.904L345.392 116.136L339.662 118.657L337.941 119.415L339.313 122.528L343.462 131.949L350.907 128.67L351.045 128.86C351.157 129.015 351.268 129.169 351.383 129.322C353.794 132.571 356.724 135.329 360.103 137.529L360.3 137.658L359.98 138.481L358.476 142.351L357.354 145.243L370.121 150.205L373.068 142.62L373.3 142.657C373.84 142.747 374.38 142.822 374.921 142.885C376.544 143.076 378.17 143.146 379.796 143.099C381.814 143.041 383.832 142.801 385.835 142.38L385.976 142.351L386.067 142.332L386.076 142.351L386.216 142.67L389.344 149.779L401.881 144.261L401.039 142.351L399.334 138.481L398.6 136.814L398.792 136.675C402.236 134.204 405.153 131.157 407.464 127.618L407.591 127.42L409.149 128.026L415.172 130.366L418.218 122.529L419.721 118.658L420.132 117.602L412.553 114.655ZM358.497 100.995C361.972 92.0498 370.739 86.6928 379.836 87.1067H379.838C382.139 87.2113 384.463 87.6868 386.726 88.5661C397.936 92.9208 403.511 105.587 399.155 116.796C398.907 117.434 398.631 118.056 398.33 118.657C397.633 120.054 396.799 121.348 395.853 122.528C391.911 127.445 386.008 130.404 379.776 130.683H379.775C376.842 130.816 373.837 130.354 370.928 129.224C367.221 127.783 364.129 125.434 361.809 122.528C360.849 121.325 360.019 120.026 359.335 118.657C356.674 113.339 356.179 106.961 358.497 100.995Z" fill="black"/>
<path d="M413.078 115.379L412.002 114.964L412.11 114.342C412.786 110.226 412.691 106.07 411.831 101.983L411.705 101.366L419.068 98.1239L414.457 87.662L413.938 86.4819L410.797 87.8668L408.522 88.8688L406.78 89.6366L406.58 89.7223L406.209 89.2112C405.28 87.9109 404.263 86.6881 403.167 85.5482C401.559 83.8673 399.775 82.3563 397.834 81.0403C397.746 80.9771 397.657 80.9144 397.564 80.8542C397.471 80.7868 397.085 80.5366 397.085 80.5366L396.752 80.3231L399.466 73.3449L399.667 72.8251L387.81 68.2212L387.264 69.6231L385.189 74.9601L384.896 75.7159L384.275 75.6086C382.476 75.3152 380.647 75.1635 378.838 75.1635C376.53 75.1635 374.197 75.4082 371.919 75.8867L371.802 75.9108L371.299 76.0138L368.575 69.8336L368.057 68.6551L361.741 71.4345L356.415 73.7802L359.661 81.1433L359.148 81.5101C355.906 83.8353 353.14 86.6706 350.925 89.9471C350.816 90.1073 350.707 90.2706 350.602 90.4338L350.259 90.9707L342.759 88.0566L341.672 90.8535L338.153 99.9091L339.332 100.369L345.648 102.823L345.551 103.385L345.541 103.453C345.521 103.561 345.506 103.674 345.488 103.796C344.87 107.786 344.983 111.829 345.82 115.8L345.952 116.42L340.871 118.656L338.589 119.662L339.85 122.527L342.489 128.524L343.713 131.304L344.172 131.103L351.071 128.062L351.442 128.576C351.571 128.759 351.707 128.939 351.842 129.118C351.845 129.121 351.846 129.125 351.849 129.128C352.928 130.569 354.113 131.915 355.399 133.152L355.516 133.27C357.007 134.698 358.631 135.983 360.375 137.123L360.899 137.469L360.796 137.729L360.504 138.479L359 142.349L357.985 144.964L359.164 145.424L362.693 146.794L369.842 149.571L372.65 142.349L372.756 142.076L373.382 142.173C373.781 142.239 374.182 142.298 374.584 142.349C375.993 142.531 377.417 142.623 378.829 142.623C380.241 142.623 381.66 142.531 383.073 142.349C383.965 142.235 384.854 142.084 385.738 141.899L386.358 141.772L386.612 142.349L386.716 142.586L386.832 142.852L388.983 147.74L389.596 149.13L390.054 148.929L401.238 144.011L400.506 142.35L398.802 138.479L397.996 136.647L398.508 136.277C401.902 133.841 404.777 130.84 407.056 127.353L407.398 126.82L409.425 127.609L411.307 128.34L414.893 129.734L417.694 122.527L419.198 118.656L419.299 118.396L419.499 117.878L413.078 115.379ZM363.568 125.164C362.703 124.353 361.905 123.473 361.181 122.528C360.263 121.335 359.463 120.04 358.789 118.657C358.666 118.401 358.546 118.141 358.43 117.878C356.024 112.419 355.887 106.364 358.043 100.819C361.348 92.3116 369.71 86.5952 378.853 86.5952C381.051 86.5952 383.219 86.9185 385.319 87.5588C385.852 87.722 386.382 87.9052 386.906 88.1099C390.08 89.3429 392.812 91.2304 395.007 93.5529C400.748 99.6203 402.835 108.686 399.614 116.974C399.39 117.549 399.144 118.11 398.876 118.657C398.2 120.039 397.387 121.333 396.456 122.527C393.596 126.195 389.633 128.908 385.178 130.252C383.137 130.869 380.993 131.197 378.805 131.197C376.047 131.197 373.339 130.684 370.751 129.682C368.047 128.625 365.621 127.094 363.568 125.164Z" fill="white"/>
<path d="M412.98 115.942L411.87 115.534L412.002 114.964L412.11 114.342C412.786 110.226 412.692 106.07 411.831 101.983L411.705 101.366L419.068 98.1239L414.457 87.662L407.558 90.702L407.187 90.1881C407.055 90.0031 406.918 89.8227 406.78 89.637C405.685 88.1689 404.478 86.8059 403.167 85.5483C401.745 84.1796 400.199 82.9379 398.542 81.8341C398.449 81.7637 398.064 81.5146 398.064 81.5146L397.73 81.3L396.632 80.6167L396.752 80.3233L399.466 73.3451L388.787 69.1997L386.578 74.883L386.472 75.1552L385.874 76.6945L385.252 76.5842C383.453 76.2934 381.625 76.142 379.816 76.142C377.508 76.142 375.175 76.3854 372.897 76.865L372.277 76.9925L371.756 77.1215L371.299 76.0142L368.576 69.834L358.127 74.4349L357.394 74.7571L360.346 81.4572L360.64 82.1216L360.126 82.4884C356.723 84.9281 353.848 87.9297 351.58 91.4107L351.237 91.9494L343.737 89.0351L339.584 99.7188L339.332 100.369L345.649 102.823L346.754 103.178L346.626 103.8L346.519 104.431C346.499 104.538 346.485 104.65 346.466 104.774C345.868 108.64 345.956 112.558 346.724 116.41C346.747 116.533 346.773 116.655 346.798 116.778L346.93 117.398L344.07 118.656L340.171 120.373L339.567 120.64L340.398 122.527L341.489 125.005L344.172 131.103L351.071 128.061L351.324 127.961L352.044 129.029L352.049 129.039L352.42 129.553C353.34 130.825 354.334 132.028 355.399 133.152L355.516 133.269C357.11 134.932 358.88 136.422 360.796 137.729C360.982 137.856 361.168 137.978 361.353 138.099L361.877 138.447L361.864 138.479L360.359 142.349L359.164 145.424L362.693 146.794L369.842 149.57L372.65 142.349L372.756 142.076L373.382 142.173C373.781 142.239 374.182 142.297 374.585 142.349C375.994 142.531 377.417 142.622 378.829 142.622C380.241 142.622 381.66 142.531 383.073 142.349C383.965 142.235 384.854 142.084 385.738 141.898L386.358 141.772L386.864 141.639L387.167 142.349L387.228 142.489L387.336 142.749L388.614 145.653L390.055 148.929L401.238 144.01L400.506 142.349L398.802 138.479L397.996 136.647L398.509 136.276C401.903 133.84 404.778 130.839 407.056 127.352L407.398 126.819L409.426 127.609L411.307 128.339L414.893 129.734L417.694 122.526L419.198 118.656L419.299 118.395L412.98 115.942ZM398.153 122.528C394.04 128.446 387.162 132.175 379.782 132.175C377.024 132.175 374.316 131.661 371.728 130.658C368.584 129.437 365.813 127.559 363.568 125.164C362.703 124.353 361.905 123.473 361.181 122.528C360.263 121.335 359.463 120.04 358.789 118.657C358.666 118.401 358.546 118.141 358.43 117.878C356.024 112.419 355.887 106.363 358.043 100.819C361.348 92.3116 369.71 86.5952 378.853 86.5952C381.051 86.5952 383.219 86.9185 385.319 87.5588C385.852 87.7219 386.382 87.9051 386.906 88.1099C390.08 89.3428 392.812 91.2303 395.007 93.5528C401.477 99.5958 403.99 109.209 400.592 117.951C400.529 118.114 400.462 118.276 400.395 118.436C400.365 118.509 400.334 118.584 400.301 118.657C399.712 120.029 398.991 121.323 398.153 122.528Z" fill="#80B3E5"/>
<path d="M406.877 96.5449C403.67 89.2563 397.886 83.6072 390.55 80.5757C390.344 80.4912 390.135 80.4066 389.929 80.3266C382.297 77.3611 373.968 77.5445 366.475 80.8437C358.983 84.1429 353.222 90.1627 350.256 97.7938C347.628 104.557 347.475 111.869 349.771 118.657C350.065 119.53 350.399 120.393 350.775 121.245C350.965 121.679 351.166 122.106 351.374 122.528C354.775 129.396 360.533 134.67 367.726 137.464C367.932 137.544 368.143 137.623 368.351 137.701C369.16 137.996 369.977 138.255 370.799 138.481C376.085 139.924 381.598 139.921 386.857 138.481C388.321 138.081 389.765 137.57 391.179 136.947C397.82 134.021 403.102 128.958 406.282 122.528C406.687 121.707 407.059 120.862 407.396 119.997C407.568 119.553 407.73 119.106 407.881 118.658C410.328 111.399 409.983 103.6 406.877 96.5449ZM405.476 118.657C405.413 118.831 405.348 119.004 405.281 119.176C404.828 120.341 404.305 121.46 403.721 122.528C397.096 134.648 382.432 140.385 369.174 135.586C368.965 135.51 368.754 135.432 368.545 135.351C362.071 132.837 357.043 128.192 353.947 122.528C353.265 121.284 352.678 119.989 352.188 118.657C349.89 112.397 349.769 105.306 352.37 98.6142C358.039 84.028 374.52 76.7711 389.107 82.4402C389.315 82.5218 389.523 82.6048 389.727 82.6907C403.728 88.5103 410.701 104.408 405.476 118.657Z" fill="black"/>
<path d="M406.431 96.7389C403.282 89.5875 397.576 84.0074 390.364 81.0276C390.161 80.9428 389.954 80.8614 389.751 80.781C386.225 79.4108 382.546 78.7163 378.817 78.7163C374.637 78.7163 370.552 79.5825 366.672 81.2912C359.298 84.5373 353.63 90.4615 350.713 97.9689C348.107 104.676 347.974 111.93 350.288 118.656C350.564 119.461 350.877 120.259 351.223 121.047C351.444 121.548 351.677 122.042 351.923 122.527C355.283 129.18 360.903 134.288 367.903 137.007C368.107 137.087 368.315 137.165 368.518 137.241C369.962 137.766 371.431 138.179 372.917 138.48C374.866 138.873 376.844 139.071 378.834 139.071C380.833 139.071 382.812 138.873 384.757 138.48C386.877 138.05 388.958 137.388 390.981 136.498C397.444 133.651 402.595 128.75 405.732 122.527C406.176 121.65 406.579 120.746 406.939 119.818C407.09 119.433 407.23 119.046 407.363 118.656C409.831 111.471 409.509 103.736 406.431 96.7389ZM405.996 118.656C405.912 118.889 405.826 119.12 405.736 119.351C405.311 120.447 404.82 121.508 404.269 122.527C399.293 131.765 389.452 137.765 378.794 137.765C375.456 137.765 372.164 137.188 369.006 136.045C368.795 135.968 368.581 135.889 368.369 135.806C361.695 133.213 356.53 128.394 353.391 122.527C352.724 121.282 352.148 119.987 351.67 118.656C349.39 112.329 349.294 105.185 351.916 98.4373C356.195 87.4227 367.023 80.0207 378.86 80.0207C382.427 80.0207 385.935 80.6824 389.284 81.9838C389.495 82.0654 389.708 82.1514 389.915 82.2373C404.044 88.1114 411.143 104.326 405.996 118.656Z" fill="#BEE0E1"/>
<path d="M45.7498 346.138V335.825C40.7853 334.731 36.094 332.787 31.7935 330.041L24.5006 337.333H22.1594L11.162 323.996L18.4559 316.703C15.7101 312.402 13.7649 307.711 12.6694 302.746H2.35962V283.883H12.6694C13.7649 278.917 15.7101 274.225 18.4557 269.925L11.162 262.632L22.1594 249.292H24.5006L31.7937 256.586C36.0947 253.841 40.786 251.896 45.75 250.8V240.491H64.6137V250.8C69.5782 251.896 74.2699 253.841 78.5716 256.586L83.5232 249.292H85.8644L99.2022 262.632L91.909 269.925C94.6534 274.223 96.5984 278.915 97.6948 283.883H108.005V302.746H97.6948C96.5982 307.713 94.6534 312.405 91.909 316.703L99.2022 323.996L85.8644 337.333H83.5232L78.5716 330.041C74.2704 332.787 69.5787 334.731 64.6137 335.825V346.138H45.7498V346.138ZM55.1823 267.021C40.6839 267.021 28.8889 278.817 28.8889 293.314C28.8889 307.812 40.6842 319.606 55.1823 319.606C69.68 319.606 81.4751 307.812 81.4751 293.314C81.4751 278.816 69.68 267.021 55.1823 267.021Z" fill="#80B3E5"/>
<path d="M43.4086 346.138V335.825C38.4439 334.731 33.7529 332.787 29.4521 330.041L22.1594 337.333L8.82086 323.996L16.115 316.703C13.3691 312.402 11.4235 307.711 10.3282 302.746H0.0186768V283.883H10.3282C11.424 278.917 13.3691 274.225 16.115 269.925L8.82108 262.632L22.1596 249.292L29.4528 256.586C33.7538 253.841 38.4448 251.896 43.409 250.8V240.491H62.2726V250.8C67.2371 251.896 71.9288 253.841 76.2302 256.586L83.5232 249.292L96.8613 262.632L89.5678 269.925C92.312 274.223 94.257 278.915 95.3539 283.883H105.664V302.746H95.3539C94.2572 307.713 92.3123 312.405 89.5678 316.703L96.8613 323.996L83.5232 337.333L76.2302 330.041C71.9292 332.787 67.2377 334.731 62.2726 335.825V346.138H43.4086V346.138ZM52.8411 267.021C38.3428 267.021 26.5477 278.817 26.5477 293.314C26.5477 307.812 38.3428 319.606 52.8411 319.606C67.3389 319.606 79.1337 307.812 79.1337 293.314C79.134 278.816 67.3391 267.021 52.8411 267.021Z" fill="black"/>
<path d="M94.9241 284.415C93.8144 279.14 91.7384 274.22 88.8875 269.852L96.1086 262.632L84.481 251.002L83.5234 250.044L76.3021 257.265C75.1358 256.504 73.9304 255.799 72.6885 255.152C69.6588 253.573 66.4187 252.344 63.0174 251.519C62.595 251.416 62.1682 251.32 61.7405 251.229V241.022H43.9409V251.229C38.8213 252.307 34.039 254.294 29.7688 257.015C29.639 257.097 29.5091 257.181 29.3804 257.265L23.117 251.002L22.1591 250.044L9.57374 262.632L16.795 269.852C13.9441 274.22 11.867 279.14 10.7579 284.415H0.550659V302.214H10.7579C10.8028 302.428 10.8494 302.641 10.8977 302.852C12.0362 307.884 14.059 312.582 16.795 316.776L9.57374 323.996L22.1591 336.58L22.4783 336.261L29.3804 329.36C29.7678 329.613 30.1604 329.86 30.5564 330.1C31.762 330.833 33.0057 331.506 34.2849 332.119C37.3231 333.575 40.5577 334.685 43.9411 335.396V345.605H61.7408V335.396C67.0164 334.287 71.934 332.21 76.3021 329.36L77.1906 330.248L83.5232 336.58L83.8424 336.261L96.1083 323.996L88.8873 316.776C91.7382 312.405 93.8141 307.487 94.9239 302.214H105.131V284.414L94.9241 284.415ZM41.5059 317.633C32.3556 313.361 26.0157 304.077 26.0157 293.314C26.0157 278.498 38.026 266.489 52.8411 266.489C57.3977 266.489 61.6904 267.626 65.4488 269.632C65.4498 269.632 65.4511 269.633 65.452 269.633C73.9095 274.146 79.6657 283.058 79.6657 293.314C79.6657 308.129 67.6546 320.139 52.8411 320.139C48.7908 320.139 44.9516 319.241 41.5089 317.635C41.5083 317.635 41.5071 317.633 41.5059 317.633Z" fill="white"/>
<path d="M105.131 302.215V285.053H96.2013L95.061 285.051L94.9245 284.415C93.8147 279.14 91.7387 274.221 88.8879 269.852L96.1089 262.632L84.4814 251.002L77.5793 257.904C77.1921 257.651 76.7993 257.405 76.4036 257.165C75.2021 256.435 73.9636 255.763 72.6888 255.153C69.6465 253.693 66.4059 252.582 63.0177 251.868L61.7186 251.601L61.7411 251.23V241.662H45.2183V251.869C39.9433 252.979 35.0262 255.056 30.6578 257.905L30.1658 258.184L29.3807 257.266L23.1173 251.003L10.8509 263.271L18.0722 270.491C15.2213 274.859 13.144 279.779 12.0352 285.054H1.82812V302.215H10.7581L11.9019 302.203L12.0352 302.853C13.144 308.126 15.2211 313.045 18.0722 317.415L10.8509 324.635L22.4787 336.262L29.3807 329.361C29.7682 329.615 30.1608 329.861 30.5567 330.101L30.9426 330.333C32.1142 331.097 33.0392 331.473 34.2852 332.121C37.3105 333.697 40.5466 334.924 43.9414 335.746C44.3648 335.85 44.7904 335.945 45.2183 336.036V345.606H61.7411V335.397C67.0168 334.289 71.9344 332.211 76.3025 329.362L76.6874 329.089L77.5793 330L83.8428 336.262L96.1087 323.997L88.8877 316.777C91.7385 312.407 93.8145 307.488 94.9242 302.216H105.131V302.215ZM54.1181 320.777C49.5607 320.777 45.2679 319.64 41.5093 317.635C41.5084 317.635 41.5072 317.633 41.5063 317.633C32.356 313.361 26.016 304.078 26.016 293.314C26.016 278.498 38.0264 266.49 52.8415 266.49C57.3981 266.49 61.6908 267.626 65.4492 269.632C65.4501 269.632 65.4515 269.633 65.4524 269.633C74.603 273.905 80.9431 283.188 80.9431 293.953C80.9429 308.767 68.9321 320.777 54.1181 320.777Z" fill="#80B3E5"/>
<path d="M52.8411 331.947C42.5215 331.947 32.8193 327.929 25.5218 320.631C18.2251 313.334 14.207 303.633 14.207 293.314C14.207 282.996 18.2253 273.294 25.5218 265.996C32.8186 258.699 42.5208 254.68 52.8411 254.68C53.09 254.68 53.3578 254.683 53.6846 254.69C63.6795 254.902 73.0815 258.918 80.16 265.996C87.4565 273.294 91.4748 282.996 91.4748 293.314C91.4748 303.633 87.4565 313.334 80.16 320.631C73.0808 327.71 63.6783 331.726 53.6855 331.939C53.4189 331.945 53.1348 331.947 52.8411 331.947ZM52.8411 258.359C33.5662 258.359 17.8852 274.04 17.8852 293.314C17.8852 312.589 33.5665 328.271 52.8411 328.271C53.0776 328.271 53.3325 328.268 53.6666 328.26C72.4853 327.822 87.7959 312.146 87.7959 293.315C87.7959 274.483 72.4856 258.807 53.6664 258.37C53.4065 258.362 53.1295 258.359 52.8411 258.359Z" fill="#222221"/>
<path d="M79.859 266.297C72.8399 259.278 63.5703 255.326 53.6761 255.115C53.3991 255.11 53.1194 255.106 52.8411 255.106C42.6343 255.106 33.0402 259.079 25.8228 266.297C18.608 273.513 14.6324 283.108 14.6324 293.314C14.6324 303.519 18.608 313.114 25.8228 320.33C33.0402 327.547 42.6343 331.522 52.8411 331.522C53.1197 331.522 53.3991 331.519 53.6761 331.514C63.5703 331.302 72.8397 327.349 79.859 320.33C87.0736 313.114 91.049 303.519 91.049 293.314C91.0492 283.108 87.0736 273.513 79.859 266.297ZM52.8411 328.696C33.3314 328.696 17.4594 312.824 17.4594 293.314C17.4594 273.805 33.3314 257.933 52.8411 257.933C53.1197 257.933 53.3991 257.936 53.6761 257.944C72.8011 258.388 88.2216 274.082 88.2216 293.314C88.2216 312.544 72.8011 328.24 53.6761 328.686C53.3994 328.692 53.1197 328.696 52.8411 328.696Z" fill="#BEE0E1"/>
<path d="M363.921 67.0107C363.099 67.0107 362.354 66.4474 362.157 65.612C356.455 41.4248 345.675 25.9842 330.116 19.719C315.681 13.9064 299.568 17.1197 288.593 20.8388C276.597 24.9036 268.003 30.4141 267.918 30.4693C267.076 31.0133 265.953 30.7717 265.409 29.9301C264.865 29.0885 265.107 27.9652 265.948 27.4215C266.312 27.1861 275.01 21.6099 287.428 17.4019C294.747 14.9215 301.833 13.4452 308.488 13.0134C316.883 12.4687 324.616 13.5923 331.472 16.3528C348.189 23.0841 359.701 39.3774 365.689 64.7796C365.919 65.755 365.315 66.7322 364.339 66.962C364.199 66.9948 364.059 67.0107 363.921 67.0107Z" fill="white"/>
</svg>
