<svg width="344" height="327" viewBox="0 0 344 327" fill="none" xmlns="http://www.w3.org/2000/svg">
<path d="M326.8 136.173C324.167 122.971 321.236 109.846 317.215 97.0096C305.543 59.7472 282.305 22.0433 242.398 9.36715C212.946 0.0115948 181.143 6.46816 156.248 25.5238C117.207 55.4054 88.7942 96.1616 46.0708 122.056C10.4017 143.676 -8.27233 178.597 3.72524 227.954C15.7228 277.311 55.7737 306.066 99.5916 302.532C136.033 299.593 174.123 302.733 205.623 320.419C233.769 336.221 283.511 322.503 324.657 279.305C348.623 254.144 346.302 222.153 338.492 192.236C333.677 173.795 330.537 154.906 326.8 136.173Z" fill="#66A3E0"/>
<path opacity="0.7" d="M326.8 136.173C324.167 122.971 321.236 109.846 317.215 97.0096C305.543 59.7472 282.305 22.0433 242.398 9.36715C212.946 0.0115948 181.143 6.46816 156.248 25.5238C117.207 55.4054 88.7942 96.1616 46.0708 122.056C10.4017 143.676 -8.27233 178.597 3.72524 227.954C15.7228 277.311 55.7737 306.066 99.5916 302.532C136.033 299.593 174.123 302.733 205.623 320.419C233.769 336.221 283.511 322.503 324.657 279.305C348.623 254.144 346.302 222.153 338.492 192.236C333.677 173.795 330.537 154.906 326.8 136.173Z" fill="white"/>
<path d="M70.2533 19.6572C70.2571 19.6544 74.7055 16.1425 75.8457 13.8868C76.8174 11.9653 77.5208 9.2481 76.5176 7.20187C75.5364 5.19847 73.079 4.23721 71.1042 5.46495C68.3632 7.17046 68.0691 12.9846 68.7676 15.7808C68.8286 16.0225 70.2067 19.6934 70.2533 19.6572Z" fill="#66A3E0"/>
<path d="M29.0917 48.9489C29.2754 49.1174 32.4504 51.4187 32.4685 51.3625C32.4694 51.3587 34.2425 45.9757 33.9494 43.465C33.6991 41.3265 32.7873 38.6721 30.822 37.5176C28.8985 36.3879 26.3184 36.9418 25.3495 39.0556C24.0047 41.9898 26.9665 47.0017 29.0917 48.9489Z" fill="#66A3E0"/>
<path d="M122.377 24.9829C122.377 24.9829 106.078 41.8067 106.167 62.4718C106.256 83.1377 122.7 99.8197 122.7 99.8197C122.7 99.8197 138.998 82.9959 138.909 62.3309C138.819 41.6659 122.377 24.9829 122.377 24.9829Z" fill="#66A3E0"/>
<path d="M99.1394 74.8491C99.3707 74.5959 99.5725 74.3466 99.7286 74.1096C100.914 72.3127 101.925 69.6935 101.165 67.5455C100.42 65.4421 98.0897 64.2058 95.9873 65.1985C93.7755 66.2435 92.6895 69.7925 92.4554 72.6944C91.5722 72.4916 90.7765 72.3384 90.0932 72.2232C89.801 71.5665 89.5069 70.9051 89.209 70.2351C88.8864 69.5489 88.6627 68.8569 88.381 68.1584C87.9908 67.1267 87.6396 66.0427 87.2875 64.9615C88.5771 64.3857 92.3307 62.6297 93.7288 61.0832C95.1736 59.4862 96.5688 57.0516 96.1424 54.8131C95.7246 52.6213 93.6089 51.0452 91.38 51.7086C88.2859 52.6289 86.4671 58.1595 86.4024 61.0413C86.4005 61.1346 86.45 61.7456 86.5156 62.4689C86.2035 61.403 85.8875 60.3399 85.6086 59.2492C84.813 56.1551 84.0992 52.9782 83.3701 49.7985C83.2188 49.1361 83.057 48.4765 82.9019 47.8141C83.9897 47.3344 88.0727 45.4681 89.5383 43.8482C90.9821 42.2512 92.3783 39.8157 91.9519 37.5772C91.5341 35.3854 89.4184 33.8093 87.1895 34.4727C84.0954 35.393 82.2766 40.9235 82.2119 43.8054C82.21 43.9082 82.2709 44.6372 82.3461 45.4519C81.9254 43.7302 81.4848 42.018 80.9946 40.3335C80.1409 37.3869 79.1397 34.5298 77.9519 31.8392C78.3374 31.6746 83.1684 29.5827 84.7978 27.782C86.2415 26.185 87.6377 23.7495 87.2113 21.511C86.7935 19.3192 84.6778 17.7431 82.4489 18.4064C79.3548 19.3277 77.536 24.8573 77.4713 27.7391C77.4665 27.9438 77.7064 30.5782 77.8225 31.5166C77.8082 31.4852 77.7977 31.45 77.7825 31.4176C76.5091 28.6052 74.9454 26.0765 73.3474 23.7514C71.7561 21.4292 70.0592 19.3772 68.4498 17.5308C66.8442 15.6788 65.2615 14.0837 63.8491 12.6837C63.0782 11.9318 62.3596 11.258 61.682 10.6365C61.6953 10.6355 61.7505 10.6298 61.7505 10.6298C61.8095 10.6241 60.243 7.0294 60.1183 6.81335C58.6726 4.31981 54.4127 0.351073 51.2586 1.03632C48.9859 1.52932 47.8914 3.93055 48.5823 6.05197C49.2876 8.21812 51.685 9.67998 53.7198 10.3824C55.805 11.1028 60.361 10.7545 61.4907 10.6546C62.1807 11.3141 62.9116 12.027 63.7016 12.8321C65.0797 14.2597 66.6225 15.8834 68.1814 17.7621C68.5983 18.2618 69.0256 18.8157 69.4501 19.3448C68.5497 18.6006 67.3001 17.5965 67.1678 17.5128C64.7361 15.9662 59.1266 14.4063 56.6426 16.4678C54.8523 17.9525 54.9875 20.5878 56.5788 22.1525C58.2034 23.7504 61.0034 23.9417 63.1334 23.6277C65.3557 23.3003 69.3263 20.8191 70.1896 20.2671C71.1108 21.4548 72.0302 22.6959 72.9125 24.0464C74.4362 26.3667 75.938 28.9193 77.1277 31.7088C77.1943 31.864 77.2438 32.0324 77.3085 32.1885C76.9269 31.7441 74.6608 29.4542 74.4838 29.3124C72.2367 27.5079 66.8328 25.3417 64.1375 27.1177C62.1959 28.3968 62.0399 31.0312 63.4494 32.7605C64.8884 34.5269 67.6513 35.0256 69.8022 34.9476C72.2815 34.8572 77.1667 32.3922 77.3504 32.2999C78.4306 34.9257 79.3405 37.7038 80.1066 40.579C80.6644 42.6614 81.1431 44.7933 81.6037 46.9375C81.0945 46.3703 78.9855 44.2432 78.817 44.1071C76.5691 42.3026 71.166 40.1365 68.4698 41.9133C66.5282 43.1925 66.3731 45.8269 67.7817 47.5562C69.2207 49.3226 71.9836 49.8213 74.1355 49.7433C76.5557 49.6557 81.2468 47.3144 81.6418 47.1165C81.8502 48.0901 82.0625 49.0609 82.2642 50.0392C82.9228 53.2304 83.5691 56.4321 84.3047 59.5718C84.5589 60.6597 84.8501 61.7218 85.1366 62.7887C84.3466 61.9616 82.8791 60.4855 82.7392 60.3732C80.4912 58.5687 75.0872 56.4026 72.3919 58.1785C70.4494 59.4586 70.2943 62.092 71.7038 63.8213C73.1428 65.5877 75.9057 66.0864 78.0566 66.0084C80.218 65.9304 84.2048 64.0469 85.3203 63.5006C85.8104 65.2699 86.3357 67.0153 86.9344 68.7085C87.2085 69.4328 87.4417 70.1903 87.7443 70.8708C87.8975 71.2353 88.047 71.5932 88.1983 71.9539C87.7976 71.9101 87.5759 71.8939 87.5759 71.8939C87.5759 71.8939 87.533 72.9028 87.6292 74.5436C85.2565 72.8542 81.8379 71.3981 79.6127 72.4202C77.4989 73.391 76.9469 75.9702 78.0775 77.8937C78.2213 78.1383 78.3888 78.3657 78.5753 78.5789C78.9265 81.1277 80.3855 83.96 81.6399 85.4076C81.7608 85.5466 83.3739 87.0341 84.2143 87.7765C83.4016 87.3358 82.5945 86.9009 81.756 86.4279C80.5454 85.7569 79.2882 85.0079 78.0642 84.2903C77.4437 83.8944 76.8175 83.4946 76.1845 83.0911C75.5374 82.6971 74.9692 82.2431 74.3477 81.8158C73.4531 81.1705 72.5622 80.4596 71.6714 79.7524C72.429 78.5608 74.5913 75.0251 74.9045 72.9646C75.2281 70.8366 75.0491 68.0347 73.4588 66.4034C71.9017 64.8054 69.2673 64.6588 67.7741 66.4414C65.7012 68.916 67.2354 74.5321 68.7705 76.9714C68.82 77.0504 69.1979 77.532 69.6518 78.0993C68.8038 77.3826 67.9539 76.6697 67.1183 75.9141C64.7475 73.7727 62.3996 71.5161 60.0374 69.2662C59.5454 68.797 59.0466 68.3363 58.5527 67.869C59.1951 66.8697 61.5716 63.0599 61.8999 60.9005C62.2235 58.7714 62.0446 55.9705 60.4543 54.3382C58.8972 52.7403 56.2628 52.5937 54.7696 54.3763C52.6976 56.8508 54.2309 62.467 55.766 64.9063C55.8212 64.9939 56.2743 65.5677 56.7853 66.2054C55.4843 65.0015 54.1728 63.8166 52.8347 62.6821C50.4963 60.6949 48.0855 58.8647 45.611 57.2762C45.8413 56.926 48.7175 52.5157 49.082 50.1154C49.4056 47.9873 49.2266 45.1854 47.6363 43.5532C46.0793 41.9552 43.4449 41.8087 41.9516 43.5913C39.8787 46.0667 41.4129 51.682 42.949 54.1213C43.0575 54.2945 44.7116 56.3597 45.3264 57.0783C45.2969 57.0592 45.2684 57.0364 45.2389 57.0183C42.6245 55.3747 39.9263 54.1289 37.31 53.0705C34.7013 52.0112 32.1544 51.2365 29.7932 50.5836C27.4319 49.925 25.2325 49.4673 23.2824 49.079C22.225 48.8772 21.2533 48.7116 20.3453 48.5669C20.3558 48.5584 20.3986 48.5241 20.3986 48.5241C20.4443 48.487 17.1541 46.3522 16.9314 46.2418C14.3494 44.9598 8.60755 43.9995 6.35479 46.3104C4.73113 47.9749 5.14324 50.5817 6.88967 51.9703C8.67322 53.3884 11.4789 53.2847 13.5632 52.7479C15.6999 52.1978 19.3079 49.3949 20.1949 48.6878C21.1343 48.8572 22.1374 49.0485 23.2405 49.2836C25.1773 49.7138 27.3605 50.2172 29.697 50.9244C30.3195 51.1119 30.9828 51.3374 31.6281 51.5449C30.467 51.4212 28.87 51.2727 28.7139 51.2756C25.8321 51.327 20.2939 53.121 19.3593 56.2103C18.6855 58.4364 20.252 60.5597 22.442 60.9871C24.6785 61.4229 27.1198 60.0382 28.7234 58.602C30.3966 57.103 32.3391 52.8431 32.754 51.9066C34.1778 52.3881 35.6292 52.9163 37.1101 53.5559C39.6608 54.6514 42.3218 55.9514 44.8525 57.6217C44.9933 57.714 45.1275 57.8273 45.2674 57.9225C44.704 57.7616 41.55 57.103 41.3244 57.0821C38.454 56.8166 32.7521 57.991 31.4844 60.9595C30.5707 63.098 31.8937 65.3803 34.0236 66.0455C36.1984 66.7251 38.7776 65.6172 40.5287 64.3648C42.5474 62.9219 45.2617 58.1709 45.3636 57.992C47.7134 59.5861 50.0052 61.402 52.2294 63.3769C53.8435 64.8064 55.4186 66.3196 56.9861 67.8538C56.2486 67.6616 53.3163 67.0506 53.1002 67.0306C50.2298 66.765 44.5279 67.9404 43.2602 70.9079C42.3466 73.0465 43.6695 75.3288 45.7994 75.994C47.9742 76.6736 50.5534 75.5657 52.3046 74.3132C54.2747 72.9047 56.8967 68.3639 57.1156 67.9813C57.8265 68.678 58.5394 69.3709 59.2475 70.0761C61.5573 72.3736 63.8624 74.6882 66.2075 76.901C67.0203 77.6681 67.8493 78.3943 68.6754 79.1252C67.5599 78.872 65.5223 78.4495 65.3433 78.4333C62.4729 78.1678 56.7711 79.3432 55.5024 82.3107C54.5887 84.4492 55.9116 86.7315 58.0416 87.3968C60.2163 88.0763 62.7955 86.9675 64.5467 85.716C66.3065 84.4578 68.5926 80.688 69.2217 79.6173C70.6064 80.8231 72.0074 81.989 73.4407 83.0702C74.0688 83.5232 74.6808 84.0267 75.309 84.4264C75.9323 84.8442 76.551 85.2572 77.1629 85.6655C78.4582 86.4669 79.6593 87.2169 80.8833 87.9316C81.5 88.298 82.0901 88.6283 82.6935 88.9766C81.6018 88.5512 79.8621 87.905 79.6964 87.8631C76.8993 87.1664 71.0851 87.4634 69.3825 90.2053C68.1548 92.1811 69.117 94.6376 71.1213 95.6178C73.1685 96.6191 75.8857 95.9138 77.8063 94.9421C79.9239 93.8695 83.1103 89.9265 83.4977 89.4411C84.9786 90.2843 86.429 91.0923 87.7995 91.8223C91.4561 93.781 94.6501 95.3418 97.1275 96.5058C105.175 103.465 116.505 104.232 116.505 104.232C116.505 104.232 117.103 90.6641 109.115 81.733C106.216 78.4971 102.588 76.3176 99.1394 74.8491ZM84.7654 88.0801C85.0186 87.5252 86.9468 83.2139 87.08 80.7822C87.5283 80.7003 87.9775 80.6061 88.4134 80.5052C89.1852 84.237 90.6509 88.6169 93.411 92.4524C91.9472 91.7576 90.3644 90.9857 88.6818 90.1301C87.4293 89.4972 86.1121 88.8044 84.7654 88.0801Z" fill="#66A3E0"/>
<path d="M158.506 72.2549C158.506 72.2549 144.931 72.6708 136.622 81.304C128.312 89.9372 128.415 103.518 128.415 103.518C128.415 103.518 141.99 103.103 150.3 94.4693C158.609 85.8361 158.506 72.2549 158.506 72.2549Z" fill="#66A3E0"/>
<g opacity="0.5">
<path d="M70.2533 19.6572C70.2571 19.6544 74.7055 16.1425 75.8457 13.8868C76.8174 11.9653 77.5208 9.2481 76.5176 7.20187C75.5364 5.19847 73.079 4.23721 71.1042 5.46495C68.3632 7.17046 68.0691 12.9846 68.7676 15.7808C68.8286 16.0225 70.2067 19.6934 70.2533 19.6572Z" fill="white"/>
<path d="M29.0917 48.9489C29.2754 49.1174 32.4504 51.4187 32.4685 51.3625C32.4694 51.3587 34.2425 45.9757 33.9494 43.465C33.6991 41.3265 32.7873 38.6721 30.822 37.5176C28.8985 36.3879 26.3184 36.9418 25.3495 39.0556C24.0047 41.9898 26.9665 47.0017 29.0917 48.9489Z" fill="white"/>
<path d="M122.377 24.9829C122.377 24.9829 106.078 41.8067 106.167 62.4718C106.256 83.1377 122.7 99.8197 122.7 99.8197C122.7 99.8197 138.998 82.9959 138.909 62.3309C138.819 41.6659 122.377 24.9829 122.377 24.9829Z" fill="white"/>
<path d="M99.1394 74.8491C99.3707 74.5959 99.5725 74.3466 99.7286 74.1096C100.914 72.3127 101.925 69.6935 101.165 67.5455C100.42 65.4421 98.0897 64.2058 95.9873 65.1985C93.7755 66.2435 92.6895 69.7925 92.4554 72.6944C91.5722 72.4916 90.7765 72.3384 90.0932 72.2232C89.801 71.5665 89.5069 70.9051 89.209 70.2351C88.8864 69.5489 88.6627 68.8569 88.381 68.1584C87.9908 67.1267 87.6396 66.0427 87.2875 64.9615C88.5771 64.3857 92.3307 62.6297 93.7288 61.0832C95.1736 59.4862 96.5688 57.0516 96.1424 54.8131C95.7246 52.6213 93.6089 51.0452 91.38 51.7086C88.2859 52.6289 86.4671 58.1595 86.4024 61.0413C86.4005 61.1346 86.45 61.7456 86.5156 62.4689C86.2035 61.403 85.8875 60.3399 85.6086 59.2492C84.813 56.1551 84.0992 52.9782 83.3701 49.7985C83.2188 49.1361 83.057 48.4765 82.9019 47.8141C83.9897 47.3344 88.0727 45.4681 89.5383 43.8482C90.9821 42.2512 92.3783 39.8157 91.9519 37.5772C91.5341 35.3854 89.4184 33.8093 87.1895 34.4727C84.0954 35.393 82.2766 40.9235 82.2119 43.8054C82.21 43.9082 82.2709 44.6372 82.3461 45.4519C81.9254 43.7302 81.4848 42.018 80.9946 40.3335C80.1409 37.3869 79.1397 34.5298 77.9519 31.8392C78.3374 31.6746 83.1684 29.5827 84.7978 27.782C86.2415 26.185 87.6377 23.7495 87.2113 21.511C86.7935 19.3192 84.6778 17.7431 82.4489 18.4064C79.3548 19.3277 77.536 24.8573 77.4713 27.7391C77.4665 27.9438 77.7064 30.5782 77.8225 31.5166C77.8082 31.4852 77.7977 31.45 77.7825 31.4176C76.5091 28.6052 74.9454 26.0765 73.3474 23.7514C71.7561 21.4292 70.0592 19.3772 68.4498 17.5308C66.8442 15.6788 65.2615 14.0837 63.8491 12.6837C63.0782 11.9318 62.3596 11.258 61.682 10.6365C61.6953 10.6355 61.7505 10.6298 61.7505 10.6298C61.8095 10.6241 60.243 7.0294 60.1183 6.81335C58.6726 4.31981 54.4127 0.351073 51.2586 1.03632C48.9859 1.52932 47.8914 3.93055 48.5823 6.05197C49.2876 8.21812 51.685 9.67998 53.7198 10.3824C55.805 11.1028 60.361 10.7545 61.4907 10.6546C62.1807 11.3141 62.9116 12.027 63.7016 12.8321C65.0797 14.2597 66.6225 15.8834 68.1814 17.7621C68.5983 18.2618 69.0256 18.8157 69.4501 19.3448C68.5497 18.6006 67.3001 17.5965 67.1678 17.5128C64.7361 15.9662 59.1266 14.4063 56.6426 16.4678C54.8523 17.9525 54.9875 20.5878 56.5788 22.1525C58.2034 23.7504 61.0034 23.9417 63.1334 23.6277C65.3557 23.3003 69.3263 20.8191 70.1896 20.2671C71.1108 21.4548 72.0302 22.6959 72.9125 24.0464C74.4362 26.3667 75.938 28.9193 77.1277 31.7088C77.1943 31.864 77.2438 32.0324 77.3085 32.1885C76.9269 31.7441 74.6608 29.4542 74.4838 29.3124C72.2367 27.5079 66.8328 25.3417 64.1375 27.1177C62.1959 28.3968 62.0399 31.0312 63.4494 32.7605C64.8884 34.5269 67.6513 35.0256 69.8022 34.9476C72.2815 34.8572 77.1667 32.3922 77.3504 32.2999C78.4306 34.9257 79.3405 37.7038 80.1066 40.579C80.6644 42.6614 81.1431 44.7933 81.6037 46.9375C81.0945 46.3703 78.9855 44.2432 78.817 44.1071C76.5691 42.3026 71.166 40.1365 68.4698 41.9133C66.5282 43.1925 66.3731 45.8269 67.7817 47.5562C69.2207 49.3226 71.9836 49.8213 74.1355 49.7433C76.5557 49.6557 81.2468 47.3144 81.6418 47.1165C81.8502 48.0901 82.0625 49.0609 82.2642 50.0392C82.9228 53.2304 83.5691 56.4321 84.3047 59.5718C84.5589 60.6597 84.8501 61.7218 85.1366 62.7887C84.3466 61.9616 82.8791 60.4855 82.7392 60.3732C80.4912 58.5687 75.0872 56.4026 72.3919 58.1785C70.4494 59.4586 70.2943 62.092 71.7038 63.8213C73.1428 65.5877 75.9057 66.0864 78.0566 66.0084C80.218 65.9304 84.2048 64.0469 85.3203 63.5006C85.8104 65.2699 86.3357 67.0153 86.9344 68.7085C87.2085 69.4328 87.4417 70.1903 87.7443 70.8708C87.8975 71.2353 88.047 71.5932 88.1983 71.9539C87.7976 71.9101 87.5759 71.8939 87.5759 71.8939C87.5759 71.8939 87.533 72.9028 87.6292 74.5436C85.2565 72.8542 81.8379 71.3981 79.6127 72.4202C77.4989 73.391 76.9469 75.9702 78.0775 77.8937C78.2213 78.1383 78.3888 78.3657 78.5753 78.5789C78.9265 81.1277 80.3855 83.96 81.6399 85.4076C81.7608 85.5466 83.3739 87.0341 84.2143 87.7765C83.4016 87.3358 82.5945 86.9009 81.756 86.4279C80.5454 85.7569 79.2882 85.0079 78.0642 84.2903C77.4437 83.8944 76.8175 83.4946 76.1845 83.0911C75.5374 82.6971 74.9692 82.2431 74.3477 81.8158C73.4531 81.1705 72.5622 80.4596 71.6714 79.7524C72.429 78.5608 74.5913 75.0251 74.9045 72.9646C75.2281 70.8366 75.0491 68.0347 73.4588 66.4034C71.9017 64.8054 69.2673 64.6588 67.7741 66.4414C65.7012 68.916 67.2354 74.5321 68.7705 76.9714C68.82 77.0504 69.1979 77.532 69.6518 78.0993C68.8038 77.3826 67.9539 76.6697 67.1183 75.9141C64.7475 73.7727 62.3996 71.5161 60.0374 69.2662C59.5454 68.797 59.0466 68.3363 58.5527 67.869C59.1951 66.8697 61.5716 63.0599 61.8999 60.9005C62.2235 58.7714 62.0446 55.9705 60.4543 54.3382C58.8972 52.7403 56.2628 52.5937 54.7696 54.3763C52.6976 56.8508 54.2309 62.467 55.766 64.9063C55.8212 64.9939 56.2743 65.5677 56.7853 66.2054C55.4843 65.0015 54.1728 63.8166 52.8347 62.6821C50.4963 60.6949 48.0855 58.8647 45.611 57.2762C45.8413 56.926 48.7175 52.5157 49.082 50.1154C49.4056 47.9873 49.2266 45.1854 47.6363 43.5532C46.0793 41.9552 43.4449 41.8087 41.9516 43.5913C39.8787 46.0667 41.4129 51.682 42.949 54.1213C43.0575 54.2945 44.7116 56.3597 45.3264 57.0783C45.2969 57.0592 45.2684 57.0364 45.2389 57.0183C42.6245 55.3747 39.9263 54.1289 37.31 53.0705C34.7013 52.0112 32.1544 51.2365 29.7932 50.5836C27.4319 49.925 25.2325 49.4673 23.2824 49.079C22.225 48.8772 21.2533 48.7116 20.3453 48.5669C20.3558 48.5584 20.3986 48.5241 20.3986 48.5241C20.4443 48.487 17.1541 46.3522 16.9314 46.2418C14.3494 44.9598 8.60755 43.9995 6.35479 46.3104C4.73113 47.9749 5.14324 50.5817 6.88967 51.9703C8.67322 53.3884 11.4789 53.2847 13.5632 52.7479C15.6999 52.1978 19.3079 49.3949 20.1949 48.6878C21.1343 48.8572 22.1374 49.0485 23.2405 49.2836C25.1773 49.7138 27.3605 50.2172 29.697 50.9244C30.3195 51.1119 30.9828 51.3374 31.6281 51.5449C30.467 51.4212 28.87 51.2727 28.7139 51.2756C25.8321 51.327 20.2939 53.121 19.3593 56.2103C18.6855 58.4364 20.252 60.5597 22.442 60.9871C24.6785 61.4229 27.1198 60.0382 28.7234 58.602C30.3966 57.103 32.3391 52.8431 32.754 51.9066C34.1778 52.3881 35.6292 52.9163 37.1101 53.5559C39.6608 54.6514 42.3218 55.9514 44.8525 57.6217C44.9933 57.714 45.1275 57.8273 45.2674 57.9225C44.704 57.7616 41.55 57.103 41.3244 57.0821C38.454 56.8166 32.7521 57.991 31.4844 60.9595C30.5707 63.098 31.8937 65.3803 34.0236 66.0455C36.1984 66.7251 38.7776 65.6172 40.5287 64.3648C42.5474 62.9219 45.2617 58.1709 45.3636 57.992C47.7134 59.5861 50.0052 61.402 52.2294 63.3769C53.8435 64.8064 55.4186 66.3196 56.9861 67.8538C56.2486 67.6616 53.3163 67.0506 53.1002 67.0306C50.2298 66.765 44.5279 67.9404 43.2602 70.9079C42.3466 73.0465 43.6695 75.3288 45.7994 75.994C47.9742 76.6736 50.5534 75.5657 52.3046 74.3132C54.2747 72.9047 56.8967 68.3639 57.1156 67.9813C57.8265 68.678 58.5394 69.3709 59.2475 70.0761C61.5573 72.3736 63.8624 74.6882 66.2075 76.901C67.0203 77.6681 67.8493 78.3943 68.6754 79.1252C67.5599 78.872 65.5223 78.4495 65.3433 78.4333C62.4729 78.1678 56.7711 79.3432 55.5024 82.3107C54.5887 84.4492 55.9116 86.7315 58.0416 87.3968C60.2163 88.0763 62.7955 86.9675 64.5467 85.716C66.3065 84.4578 68.5926 80.688 69.2217 79.6173C70.6064 80.8231 72.0074 81.989 73.4407 83.0702C74.0688 83.5232 74.6808 84.0267 75.309 84.4264C75.9323 84.8442 76.551 85.2572 77.1629 85.6655C78.4582 86.4669 79.6593 87.2169 80.8833 87.9316C81.5 88.298 82.0901 88.6283 82.6935 88.9766C81.6018 88.5512 79.8621 87.905 79.6964 87.8631C76.8993 87.1664 71.0851 87.4634 69.3825 90.2053C68.1548 92.1811 69.117 94.6376 71.1213 95.6178C73.1685 96.6191 75.8857 95.9138 77.8063 94.9421C79.9239 93.8695 83.1103 89.9265 83.4977 89.4411C84.9786 90.2843 86.429 91.0923 87.7995 91.8223C91.4561 93.781 94.6501 95.3418 97.1275 96.5058C105.175 103.465 116.505 104.232 116.505 104.232C116.505 104.232 117.103 90.6641 109.115 81.733C106.216 78.4971 102.588 76.3176 99.1394 74.8491ZM84.7654 88.0801C85.0186 87.5252 86.9468 83.2139 87.08 80.7822C87.5283 80.7003 87.9775 80.6061 88.4134 80.5052C89.1852 84.237 90.6509 88.6169 93.411 92.4524C91.9472 91.7576 90.3644 90.9857 88.6818 90.1301C87.4293 89.4972 86.1121 88.8044 84.7654 88.0801Z" fill="white"/>
<path d="M158.506 72.2549C158.506 72.2549 144.931 72.6708 136.622 81.304C128.312 89.9372 128.415 103.518 128.415 103.518C128.415 103.518 141.99 103.103 150.3 94.4693C158.609 85.8361 158.506 72.2549 158.506 72.2549Z" fill="white"/>
</g>
<path d="M123.049 80.9996L136.383 69.0116L135.81 68.3758L123.041 79.8556L122.973 64.1444L123.043 64.192L134.321 47.7022L133.614 47.2187L122.967 62.7872L122.804 24.9814L121.95 24.9853L122.06 50.645L113.572 43.2985L113.012 43.9457L122.065 51.7804L122.144 70.1279L109.276 58.7433L108.709 59.3829L122.149 71.2729L122.221 87.9787L112.551 80.3905L112.023 81.0634L122.226 89.0694L122.271 99.823L123.127 99.8192L123.046 80.9958L123.049 80.9996Z" fill="white"/>
<path d="M110.765 85.627L109.915 85.5299L108.838 95.0244L103.114 88.6259L103.123 88.624L101.672 77.1328L100.824 77.2403L102.123 87.5181L87.8909 71.6089L87.2542 72.1799L96.9095 82.9735L90.7965 83.0478L90.8079 83.9025L97.6661 83.8196L104.437 91.3888L94.8766 91.3993L94.8785 92.2549L105.201 92.2425L111.358 99.1254L104.615 99.5309L104.666 100.385L112.085 99.9373L116.185 104.521L116.823 103.951L109.602 95.8781L110.765 85.627Z" fill="white"/>
<path d="M142.983 89.0127L154.334 86.7076L154.163 85.8691L144.011 87.9305L158.813 72.5524L158.198 71.9595L148.154 82.3943L147.624 76.3022L146.773 76.3765L147.368 83.2109L140.325 90.5278L139.6 80.9952L138.747 81.06L139.53 91.3539L133.126 98.0066L132.219 91.3121L131.371 91.4282L132.369 98.7927L128.105 103.222L128.721 103.815L136.231 96.0127L146.542 96.4076L146.576 95.553L137.026 95.1866L142.981 89.0003L142.983 89.0127Z" fill="white"/>
<path d="M148.788 55.912C153.24 55.912 156.849 52.2658 156.849 47.768C156.849 43.2702 153.24 39.624 148.788 39.624C144.336 39.624 140.726 43.2702 140.726 47.768C140.726 52.2658 144.336 55.912 148.788 55.912Z" fill="#263238" stroke="#263238" stroke-width="0.889472" stroke-miterlimit="10" stroke-linecap="round" stroke-linejoin="round"/>
<path d="M171.162 70.0604C171.162 70.0604 174.946 69.8958 175.933 76.6417C176.92 83.3866 180.869 100.991 181.198 103.459C181.527 105.927 180.046 108.887 176.427 110.04C172.807 111.192 170.834 107.737 170.504 106.091C170.175 104.446 166.986 84.405 166.986 84.405L171.162 70.0604Z" fill="#263238" stroke="#263238" stroke-width="0.889472" stroke-miterlimit="10" stroke-linecap="round" stroke-linejoin="round"/>
<path d="M134.111 86.4638C134.111 86.4638 117.437 93.5181 117.437 96.084C117.437 98.6489 127.698 123.661 127.698 123.661L171.95 112.118L166.986 84.4043C166.986 84.4043 160.405 76.2022 134.111 86.4638Z" fill="#66A3E0" stroke="#263238" stroke-width="0.889472" stroke-miterlimit="10" stroke-linecap="round" stroke-linejoin="round"/>
<path d="M149.312 71.3287C149.312 71.3287 144.541 74.2896 140.757 76.4291C136.973 78.5676 131.215 81.5294 131.215 87.4521C131.215 93.3747 135.492 116.902 135.492 119.369C135.492 121.837 135.656 123.154 135.656 122.66C135.656 122.166 164.612 112.624 164.612 112.624C164.612 112.624 166.422 105.055 167.902 101.436C169.382 97.8165 167.902 94.691 169.548 88.7674C171.193 82.8447 174.319 78.896 173.003 74.4542C171.686 70.0125 171.357 70.1771 166.586 70.0125C161.816 69.8478 153.918 69.8478 149.312 71.3287Z" fill="#263238" stroke="#263238" stroke-width="0.889472" stroke-miterlimit="10" stroke-linecap="round" stroke-linejoin="round"/>
<path d="M147.142 68.7443C147.142 68.7443 145.004 69.8959 144.18 75.1609C143.358 80.4259 143.358 87.8295 143.358 87.8295C143.358 87.8295 152.242 82.8938 153.558 82.7291C154.874 82.5645 164.416 86.5132 164.416 86.5132C164.416 86.5132 163.1 78.945 161.126 73.681C159.152 68.415 149.116 66.4411 147.142 68.7443Z" fill="white" stroke="#263238" stroke-width="0.889472" stroke-miterlimit="10" stroke-linecap="round" stroke-linejoin="round"/>
<path d="M145.496 67.4277C145.496 67.4277 145.555 67.6305 145.658 67.9921C146.299 70.2163 148.688 78.4603 150.103 82.5641C151.748 87.3352 154.216 89.3091 154.216 89.3091L156.684 79.4377C156.684 79.4377 146.977 70.0602 145.496 67.4277Z" fill="white" stroke="#263238" stroke-width="0.889472" stroke-miterlimit="10" stroke-linecap="round" stroke-linejoin="round"/>
<path d="M154.216 46.3691C154.216 46.3691 146.155 45.0528 143.358 55.5819C140.561 66.1109 149.61 75.16 152.242 78.6148C154.875 82.0696 158.669 83.1726 160.798 79.7664C164.088 74.5014 165.075 71.8698 165.569 64.9593C166.063 58.0488 165.239 53.4433 162.114 49.8239C158.987 46.2044 154.216 46.3691 154.216 46.3691Z" fill="white" stroke="#263238" stroke-width="0.889472" stroke-miterlimit="10" stroke-linecap="round" stroke-linejoin="round"/>
<path d="M162.114 49.8239C158.988 46.2044 154.217 46.3691 154.217 46.3691C154.217 46.3691 146.156 45.0528 143.359 55.5819C142.509 58.7797 142.756 61.8395 143.581 64.65C143.873 63.8962 144.317 63.3147 145.004 63.3147C146.977 63.3147 147.142 66.1118 147.801 65.9472C148.458 65.7825 151.091 63.4793 150.598 61.3408C150.104 59.2023 150.762 58.2153 154.217 58.2153C157.672 58.2153 158.494 59.6962 159.646 59.3669C160.798 59.0376 161.62 56.7344 162.771 56.7344C163.5 56.7344 164.493 57.0009 165.499 57.9869C165.095 54.6825 164.047 52.0623 162.114 49.8239Z" fill="#263238" stroke="#263238" stroke-width="0.889472" stroke-miterlimit="10" stroke-linecap="round" stroke-linejoin="round"/>
<path d="M147.8 66.9337C147.8 66.9337 146.483 63.6436 145.003 63.3143C143.522 62.985 142.699 63.9719 143.522 66.7691C144.344 69.5662 145.496 70.7178 146.154 70.7178C146.812 70.7178 147.141 69.7309 147.141 69.7309" fill="white"/>
<path d="M147.8 66.9337C147.8 66.9337 146.483 63.6436 145.003 63.3143C143.522 62.985 142.699 63.9719 143.522 66.7691C144.344 69.5662 145.496 70.7178 146.154 70.7178C146.812 70.7178 147.141 69.7309 147.141 69.7309" stroke="#263238" stroke-width="0.889472" stroke-miterlimit="10" stroke-linecap="round" stroke-linejoin="round"/>
<path d="M135.79 100.66C135.79 100.66 136.612 105.925 140.232 108.228C143.851 110.532 148.787 109.38 148.787 109.38" stroke="#263238" stroke-width="0.889472" stroke-miterlimit="10" stroke-linecap="round" stroke-linejoin="round"/>
<path d="M154.216 89.3091C154.216 89.3091 156.52 98.0289 156.027 101.813" stroke="#263238" stroke-width="0.889472" stroke-miterlimit="10" stroke-linecap="round" stroke-linejoin="round"/>
<path d="M105.051 87.0928C105.051 87.0928 107.049 87.9256 108.548 93.0887C110.047 98.2519 114.045 107.745 115.044 111.41C116.043 115.074 115.71 119.737 111.38 120.903C107.049 122.069 102.386 110.244 101.72 109.244C101.053 108.245 99.3879 98.9181 100.221 93.9215C101.053 88.9249 103.219 86.4266 105.051 87.0928Z" fill="white" stroke="#263238" stroke-width="0.889472" stroke-miterlimit="10" stroke-linecap="round" stroke-linejoin="round"/>
<path d="M81.3287 104.391C81.3287 104.391 55.3149 129.771 55.3149 133.577C55.3149 137.384 70.6217 168.871 74.9045 168.157C79.1873 167.443 98.4599 146.902 98.4599 146.902L81.3287 104.391Z" fill="#66A3E0" stroke="#263238" stroke-width="0.889472" stroke-miterlimit="10" stroke-linecap="round" stroke-linejoin="round"/>
<path d="M82.0663 91.0898C82.0663 91.0898 73.9051 98.2516 68.0758 105.08C62.2464 111.909 62.7461 123.401 64.5782 131.229C66.4102 139.057 69.7413 161.21 73.9051 162.043C78.069 162.875 81.4001 154.048 88.7284 147.719C96.0568 141.39 101.886 136.06 102.386 131.896C102.885 127.733 102.219 114.408 102.552 113.409C102.885 112.41 103.885 103.416 103.885 98.5857C103.885 93.7556 100.221 88.4259 96.5564 87.26C92.8923 86.0932 83.5653 89.9239 82.0663 91.0898Z" fill="white" stroke="#263238" stroke-width="0.889472" stroke-miterlimit="10" stroke-linecap="round" stroke-linejoin="round"/>
<path d="M115.808 247.767C115.808 247.767 110.436 258.848 102.713 265.9C94.9898 272.951 82.9018 281.681 82.9018 281.681C82.9018 281.681 95.6617 285.711 98.3475 286.047C101.033 286.383 100.362 287.726 97.3406 289.069C94.3188 290.412 90.6252 291.42 82.2309 291.42C73.8366 291.42 68.464 291.42 68.1281 289.405C67.7921 287.39 73.1646 282.353 77.1943 278.324C81.2239 274.294 96.6696 249.111 98.0125 247.767C99.3554 246.423 108.757 242.059 115.808 247.767Z" fill="white" stroke="#263238" stroke-width="0.889472" stroke-miterlimit="10" stroke-linecap="round" stroke-linejoin="round"/>
<path d="M98.3476 286.046C96.1358 285.77 87.101 282.991 83.9755 282.018L81.558 287.389C81.558 287.389 75.9657 288.601 71.4021 284.204C69.4006 286.389 67.9473 288.328 68.1262 289.404C68.4622 291.419 73.8347 291.419 82.229 291.419C90.6233 291.419 94.317 290.412 97.3388 289.068C100.362 287.725 101.034 286.382 98.3476 286.046Z" fill="#263238" stroke="#263238" stroke-width="0.889472" stroke-miterlimit="10" stroke-linecap="round" stroke-linejoin="round"/>
<path d="M212.142 247.767C212.142 247.767 217.514 258.848 225.237 265.9C232.96 272.951 245.048 281.681 245.048 281.681C245.048 281.681 232.288 285.711 229.602 286.047C226.916 286.383 227.588 287.726 230.609 289.069C233.631 290.412 237.325 291.42 245.719 291.42C254.113 291.42 259.486 291.42 259.822 289.405C260.158 287.39 254.785 282.353 250.756 278.324C246.726 274.294 231.28 249.111 229.937 247.767C228.595 246.423 219.193 242.059 212.142 247.767Z" fill="white" stroke="#263238" stroke-width="0.889472" stroke-miterlimit="10" stroke-linecap="round" stroke-linejoin="round"/>
<path d="M229.602 286.046C231.814 285.77 240.849 282.991 243.974 282.017L246.391 287.389C246.391 287.389 251.983 288.6 256.547 284.203C258.549 286.388 260.002 288.327 259.823 289.404C259.487 291.418 254.114 291.418 245.72 291.418C237.326 291.418 233.632 290.411 230.61 289.068C227.588 287.725 226.917 286.382 229.602 286.046Z" fill="#263238" stroke="#263238" stroke-width="0.889472" stroke-miterlimit="10" stroke-linecap="round" stroke-linejoin="round"/>
<path d="M38.2427 252.468C38.2427 252.468 42.9433 261.198 42.6083 264.22C42.3342 266.688 36.4601 285.508 34.3168 292.323C33.9494 293.492 34.8907 294.654 36.1099 294.543C36.7932 294.481 37.3738 294.018 37.586 293.366L46.973 264.556C46.973 264.556 48.6518 262.541 54.0244 261.534C58.1406 260.762 78.6182 259.794 87.9689 259.382C91.5389 259.225 94.6739 261.868 94.9794 265.429C94.9832 265.474 94.987 265.518 94.9899 265.563C95.2878 269.439 101.678 289.471 103.103 293.906C103.265 294.409 103.77 294.712 104.291 294.624C104.893 294.524 105.29 293.946 105.158 293.35C104.014 288.157 99.1147 265.72 97.3407 254.482C97.3407 254.482 61.7477 256.161 53.6894 254.146C45.631 252.131 39.9225 248.438 39.9225 248.438C39.9225 248.438 37.9077 248.438 38.2427 252.468Z" fill="#263238" stroke="#263238" stroke-width="0.889472" stroke-miterlimit="10" stroke-linecap="round" stroke-linejoin="round"/>
<path d="M35.221 193.371C35.221 193.371 23.133 231.314 25.1478 238.03C27.1626 244.745 36.8998 254.147 40.5935 254.147C44.2872 254.147 47.309 217.211 47.309 213.854C47.309 210.496 40.9295 198.408 38.9146 193.371C36.8998 188.335 35.221 193.371 35.221 193.371Z" fill="#66A3E0" stroke="#263238" stroke-width="0.889472" stroke-miterlimit="10" stroke-linecap="round" stroke-linejoin="round"/>
<path d="M101.316 250.116C101.197 253.89 100.604 256.833 99.0195 256.833C95.9967 256.833 63.0905 260.19 55.3681 259.854C47.6458 259.518 41.9373 255.49 41.9373 249.781C41.9373 244.073 42.2732 218.89 47.9817 215.531C53.6902 212.173 83.9097 211.837 90.963 211.837C99.6428 211.838 100.02 228.608 100.386 234.293C100.494 235.969 101.506 244.098 101.316 250.116Z" fill="#66A3E0" stroke="#263238" stroke-width="0.889472" stroke-miterlimit="10" stroke-linecap="round" stroke-linejoin="round"/>
<path d="M92.639 250.453C92.639 250.453 114.129 251.125 115.808 247.766C117.487 244.409 115.808 237.357 111.442 236.014C107.077 234.671 88.9453 235.678 88.9453 235.678L92.639 250.453Z" fill="white" stroke="#263238" stroke-width="0.889472" stroke-miterlimit="10" stroke-linecap="round" stroke-linejoin="round"/>
<path d="M40.5934 218.89C40.5934 218.89 38.5785 225.269 38.9145 232.656C39.2505 240.044 41.2653 247.431 51.3384 253.475C61.4116 259.518 94.3178 252.467 94.3178 252.467L91.9671 208.48C91.9671 208.48 70.1409 205.794 58.0529 208.144C45.9659 210.495 40.9293 217.547 40.5934 218.89Z" fill="#263238" stroke="#263238" stroke-width="0.889472" stroke-miterlimit="10" stroke-linecap="round" stroke-linejoin="round"/>
<path d="M197.928 64.1182C197.928 64.1182 194.149 67.8976 192.349 72.9351C190.55 77.9736 184.612 93.0891 184.792 95.9681C184.972 98.8471 187.491 102.446 190.01 100.467C192.529 98.4873 198.647 87.8707 199.007 87.3311C199.367 86.7914 199.726 79.2337 199.726 74.555C199.727 69.8772 200.087 63.9384 197.928 64.1182Z" fill="white" stroke="#263238" stroke-width="0.889472" stroke-miterlimit="10" stroke-linecap="round" stroke-linejoin="round"/>
<path d="M203.786 80.279C205.757 79.903 250.737 89.7963 250.737 94.8719C250.737 99.9475 240.585 127.866 240.585 127.866L197.44 116.445C197.44 116.445 198.306 81.3259 203.786 80.279Z" fill="#66A3E0" stroke="#263238" stroke-width="0.889472" stroke-miterlimit="10" stroke-linecap="round" stroke-linejoin="round"/>
<path d="M218.981 58.3603C218.981 58.3603 209.264 57.281 202.426 60.6996C195.589 64.1183 195.588 69.8772 195.948 75.4553C196.308 81.0334 198.169 111.115 198.709 113.273C199.249 115.433 211.603 114.862 218.8 116.302C225.998 117.741 231.036 111.803 232.116 109.464C233.195 107.124 245.791 84.2722 245.791 79.4136C245.791 74.555 240.573 65.3784 233.195 61.0594C225.819 56.7414 218.981 58.3603 218.981 58.3603Z" fill="white" stroke="#263238" stroke-width="0.889472" stroke-miterlimit="10" stroke-linecap="round" stroke-linejoin="round"/>
<path d="M212.143 76.8942L214.122 81.2132L206.385 108.204L208.184 113.423L213.403 109.464L216.282 81.7528L220.24 77.4338L218.261 72.5762L212.143 76.8942Z" fill="#263238" stroke="#263238" stroke-width="0.889472" stroke-miterlimit="10" stroke-linecap="round" stroke-linejoin="round"/>
<path d="M212.683 65.7373C212.683 65.7373 210.704 69.5166 209.984 72.0349C209.265 74.5542 209.265 79.2329 209.265 79.2329C209.265 79.2329 215.023 76.5338 216.642 76.5338C218.262 76.5338 221.501 83.9116 221.501 83.9116C221.501 83.9116 226.36 76.7136 227.079 71.4953C227.799 66.2769 222.221 62.4985 218.262 62.4985C214.302 62.4985 212.683 65.7373 212.683 65.7373Z" fill="white" stroke="#263238" stroke-width="0.889472" stroke-miterlimit="10" stroke-linecap="round" stroke-linejoin="round"/>
<path d="M233.196 60.5194C233.196 60.5194 234.996 57.8203 235.356 60.3395C235.715 62.8587 233.556 64.8384 232.297 65.5579C231.038 66.2774 230.137 65.5579 230.137 65.5579" fill="white"/>
<path d="M233.196 60.5194C233.196 60.5194 234.996 57.8203 235.356 60.3395C235.715 62.8587 233.556 64.8384 232.297 65.5579C231.038 66.2774 230.137 65.5579 230.137 65.5579" stroke="#263238" stroke-width="0.889472" stroke-miterlimit="10" stroke-linecap="round" stroke-linejoin="round"/>
<path d="M214.842 50.0826C214.842 50.0826 213.042 48.6427 211.963 51.5226C210.884 54.4016 212.682 58.0001 212.682 58.0001L214.482 54.2217" fill="white"/>
<path d="M214.842 50.0826C214.842 50.0826 213.042 48.6427 211.963 51.5226C210.884 54.4016 212.682 58.0001 212.682 58.0001L214.482 54.2217" stroke="#263238" stroke-width="0.889472" stroke-miterlimit="10" stroke-linecap="round" stroke-linejoin="round"/>
<path d="M214.842 74.195C214.842 74.195 214.302 76.3545 216.642 76.5343C218.981 76.7142 223.84 71.6757 224.199 70.5965C224.559 69.5163 214.842 74.195 214.842 74.195Z" fill="white" stroke="#263238" stroke-width="0.889472" stroke-miterlimit="10" stroke-linecap="round" stroke-linejoin="round"/>
<path d="M223.3 39.1064C223.3 39.1064 217.002 41.9854 215.562 46.4842C214.122 50.9831 211.784 60.1597 211.784 63.5783C211.784 66.997 212.863 74.0151 215.203 75.0943C217.542 76.1736 225.28 71.1351 227.439 69.6961C229.598 68.2571 232.118 62.678 234.817 59.4392C237.516 56.2005 239.675 50.2617 238.595 45.404C237.515 40.5454 229.598 34.7874 223.3 39.1064Z" fill="white" stroke="#263238" stroke-width="0.889472" stroke-miterlimit="10" stroke-linecap="round" stroke-linejoin="round"/>
<path d="M238.594 45.4039C237.515 40.5453 229.598 34.7873 223.299 39.1053C223.299 39.1053 217.001 41.9843 215.561 46.4832C214.877 48.6217 213.991 51.8167 213.249 54.9479C214.479 53.0226 216.516 49.7534 216.642 49.0024C216.821 47.9232 216.821 47.7423 218.082 47.7423C219.342 47.7423 221.68 51.3408 224.92 52.0613C228.159 52.7818 232.477 52.2412 232.477 54.0409C232.477 55.8407 229.958 58.7197 231.578 59.619C232.837 60.3186 231.709 62.7531 231.819 63.8038C232.786 62.2477 233.788 60.6736 234.817 59.4392C237.515 56.2004 239.675 50.2625 238.594 45.4039Z" fill="#263238" stroke="#263238" stroke-width="0.889472" stroke-miterlimit="10" stroke-linecap="round" stroke-linejoin="round"/>
<path d="M215.022 56.5613C215.022 56.5613 221.319 59.6202 224.379 60.6994C227.438 61.7787 230.497 63.0388 229.418 65.0184C228.338 66.998 224.739 67.8974 222.579 66.998C220.42 66.0986 220.959 61.5998 219.7 61.4199C218.441 61.24 217.541 63.5794 215.201 63.5794C212.862 63.5794 210.343 59.9809 210.703 57.4616C211.063 54.9414 215.022 56.5613 215.022 56.5613Z" fill="white" stroke="#263238" stroke-width="0.889472" stroke-miterlimit="10" stroke-linecap="round" stroke-linejoin="round"/>
<path d="M229.957 63.2187L234.096 59.0796" stroke="#263238" stroke-width="0.889472" stroke-miterlimit="10" stroke-linecap="round" stroke-linejoin="round"/>
<path d="M211.783 56.3801L213.942 51.5225" stroke="#263238" stroke-width="0.889472" stroke-miterlimit="10" stroke-linecap="round" stroke-linejoin="round"/>
<path d="M262.036 94.5474C262.036 94.5474 250.106 105.151 247.013 108.244C243.92 111.337 243.774 117.227 246.718 118.553C249.664 119.879 258.942 114.429 260.415 113.251C261.888 112.073 265.864 95.2831 262.036 94.5474Z" fill="#263238" stroke="#263238" stroke-width="0.889472" stroke-miterlimit="10" stroke-linecap="round" stroke-linejoin="round"/>
<path d="M291.878 121.095C291.878 121.095 307.911 137.128 304.705 142.259C301.498 147.39 270.714 163.423 270.714 163.423L264.942 138.411L291.878 121.095Z" fill="#66A3E0" stroke="#263238" stroke-width="0.889472" stroke-miterlimit="10" stroke-linecap="round" stroke-linejoin="round"/>
<path d="M271.314 93.5161C271.314 93.5161 264.54 92.9269 262.036 94.5468C259.532 96.1666 257.764 111.189 257.323 120.172C256.881 129.156 255.703 136.372 256.292 138.139C256.881 139.906 272.197 159.199 274.406 161.85C276.615 164.5 294.435 137.402 296.939 131.954C299.443 126.505 297.822 121.497 294.582 113.987C291.342 106.477 284.42 99.5539 280.297 95.725C276.174 91.8962 271.314 93.5161 271.314 93.5161Z" fill="#263238" stroke="#263238" stroke-width="0.889472" stroke-miterlimit="10" stroke-linecap="round" stroke-linejoin="round"/>
<path d="M271.166 111.336C271.166 111.336 271.127 111.541 271.062 111.906C270.873 112.965 270.463 115.375 270.135 118.111C269.693 121.792 269.84 126.653 271.018 126.653C272.196 126.653 287.66 115.46 287.954 105.298C288.25 95.1368 272.345 107.066 271.166 111.336Z" fill="white" stroke="#263238" stroke-width="0.889472" stroke-miterlimit="10" stroke-linecap="round" stroke-linejoin="round"/>
<path d="M270.43 91.3074C270.43 91.3074 268.958 96.7561 268.958 97.6403C268.958 98.5235 269.547 100.733 269.547 100.733C269.547 100.733 267.043 104.71 267.338 105.151C267.633 105.593 268.516 106.33 268.516 106.33C268.516 106.33 268.222 111.926 269.399 113.104C270.577 114.282 275.437 113.546 275.437 113.546C275.437 113.546 273.081 116.491 275.732 116.639C278.383 116.786 285.452 110.895 287.514 107.508C289.575 104.121 289.428 97.9353 287.514 94.8422C285.6 91.749 274.26 87.4786 270.43 91.3074Z" fill="white" stroke="#263238" stroke-width="0.889472" stroke-miterlimit="10" stroke-linecap="round" stroke-linejoin="round"/>
<path d="M283.243 80.7034C283.243 80.7034 271.903 82.1758 269.842 86.5947C267.78 91.0126 272.492 96.4623 275.879 97.198C279.267 97.9346 281.476 97.7871 281.476 97.7871C281.476 97.7871 277.941 100.88 280.15 101.616C282.359 102.353 283.39 101.91 283.39 102.647C283.39 103.383 281.181 105.74 283.095 105.886C285.009 106.034 285.599 102.647 286.777 103.382C287.955 104.119 286.335 107.064 286.924 107.211C287.513 107.359 293.11 101.467 295.466 95.2821C297.823 89.0968 294.583 85.268 292.226 83.2055C289.87 81.145 286.041 79.9668 283.243 80.7034Z" fill="#263238" stroke="#263238" stroke-width="0.889472" stroke-miterlimit="10" stroke-linecap="round" stroke-linejoin="round"/>
<path d="M283.243 106.476C283.243 106.476 285.305 101.763 286.63 102.795C287.956 103.826 287.514 107.213 286.041 108.391C284.569 109.57 281.771 108.244 281.771 108.244" fill="white"/>
<path d="M283.243 106.476C283.243 106.476 285.305 101.763 286.63 102.795C287.956 103.826 287.514 107.213 286.041 108.391C284.569 109.57 281.771 108.244 281.771 108.244" stroke="#263238" stroke-width="0.889472" stroke-miterlimit="10" stroke-linecap="round" stroke-linejoin="round"/>
<path d="M270.136 119.437L274.848 117.08L274.112 124.15" fill="white"/>
<path d="M270.136 119.437L274.848 117.08L274.112 124.15" stroke="#263238" stroke-width="0.889472" stroke-miterlimit="10" stroke-linecap="round" stroke-linejoin="round"/>
<path d="M307.617 244.517C307.617 244.517 299.148 261.199 299.484 264.22C299.758 266.688 305.633 285.508 307.776 292.323C308.143 293.492 307.202 294.654 305.983 294.543C305.299 294.482 304.719 294.018 304.507 293.366L295.12 264.556C295.12 264.556 293.441 262.541 288.068 261.534C283.952 260.763 263.475 259.794 254.124 259.383C250.554 259.226 247.419 261.869 247.113 265.429C247.109 265.474 247.106 265.518 247.102 265.563C246.804 269.44 240.414 289.471 238.988 293.906C238.826 294.409 238.322 294.712 237.801 294.624C237.199 294.524 236.802 293.946 236.933 293.35C238.077 288.157 242.977 265.72 244.751 254.482C244.751 254.482 280.344 256.161 288.402 254.146C296.461 252.131 305.937 240.488 305.937 240.488C305.937 240.488 307.953 240.489 307.617 244.517Z" fill="#263238" stroke="#263238" stroke-width="0.889472" stroke-miterlimit="10" stroke-linecap="round" stroke-linejoin="round"/>
<path d="M313.296 189.232C313.296 189.232 322.573 227.958 320.071 234.509C317.57 241.059 307.17 249.723 303.486 249.452C299.802 249.182 299.494 212.124 299.74 208.775C299.986 205.426 307.234 193.838 309.613 188.962C311.99 184.086 313.296 189.232 313.296 189.232Z" fill="#66A3E0" stroke="#263238" stroke-width="0.889472" stroke-miterlimit="10" stroke-linecap="round" stroke-linejoin="round"/>
<path d="M240.777 250.116C240.896 253.89 241.489 256.833 243.073 256.833C246.096 256.833 279.001 260.19 286.725 259.854C294.448 259.518 300.155 255.49 300.155 249.781C300.155 244.073 299.819 218.89 294.112 215.531C288.403 212.173 258.184 211.837 251.131 211.837C242.451 211.838 242.074 228.608 241.707 234.293C241.6 235.969 240.586 244.098 240.777 250.116Z" fill="#66A3E0" stroke="#263238" stroke-width="0.889472" stroke-miterlimit="10" stroke-linecap="round" stroke-linejoin="round"/>
<path d="M297.756 218.885C297.756 218.885 294.975 225.663 294.975 231.05C294.975 236.438 292.368 247.039 286.981 250.167C281.593 253.295 275.51 255.033 266.648 253.817C257.784 252.6 238.32 249.472 238.32 249.472C238.32 249.472 258.306 235.222 263.346 228.096C268.386 220.971 270.123 215.062 274.121 211.065C278.118 207.069 297.409 203.071 297.756 218.885Z" fill="#263238" stroke="#263238" stroke-width="0.889472" stroke-miterlimit="10" stroke-linecap="round" stroke-linejoin="round"/>
<path d="M178.168 272.848C237.17 272.848 285 235.883 285 190.285C285 144.686 237.17 107.722 178.168 107.722C119.166 107.722 71.3354 144.686 71.3354 190.285C71.3354 235.883 119.166 272.848 178.168 272.848Z" fill="#263238" stroke="#263238" stroke-width="0.889472" stroke-miterlimit="10" stroke-linecap="round" stroke-linejoin="round"/>
<path d="M178.168 270.375C237.17 270.375 285 233.41 285 187.812C285 142.214 237.17 105.249 178.168 105.249C119.166 105.249 71.3354 142.214 71.3354 187.812C71.3354 233.41 119.166 270.375 178.168 270.375Z" fill="#66A3E0" stroke="#263238" stroke-width="0.889472" stroke-miterlimit="10" stroke-linecap="round" stroke-linejoin="round"/>
<path d="M231.108 137.109L244.657 151.984L220.652 169.214L206.808 152.425L231.108 137.109Z" fill="white" stroke="#263238" stroke-width="0.889472" stroke-miterlimit="10" stroke-linecap="round" stroke-linejoin="round"/>
<path d="M157.803 138.393L135.633 149.795L155.27 173.865L178.073 158.663L157.803 138.393Z" fill="white" stroke="#263238" stroke-width="0.889472" stroke-miterlimit="10" stroke-linecap="round" stroke-linejoin="round"/>
<path d="M191.431 162.503L169.261 173.905L188.898 197.976L211.701 182.773L191.431 162.503Z" fill="white" stroke="#263238" stroke-width="0.889472" stroke-miterlimit="10" stroke-linecap="round" stroke-linejoin="round"/>
<path d="M188.958 164.248L165.072 171.391L179.962 198.654L205.167 187.891L188.958 164.248Z" fill="white" stroke="#263238" stroke-width="0.889472" stroke-miterlimit="10" stroke-linecap="round" stroke-linejoin="round"/>
<path d="M160.462 124.872C160.462 124.872 164.769 123.256 164.769 124.333C164.769 125.409 164.769 126.487 162.885 127.025C161 127.564 154.539 126.217 156.154 125.41C157.769 124.602 160.462 124.872 160.462 124.872Z" fill="white" stroke="#263238" stroke-width="0.889472" stroke-miterlimit="10" stroke-linecap="round" stroke-linejoin="round"/>
<path d="M136.613 78.6157C136.613 78.6157 131.02 80.5896 128.222 84.0444C125.425 87.4992 124.109 96.5483 123.451 100.496C122.794 104.445 119.832 119.416 121.478 121.226C123.123 123.036 140.726 129.123 144.181 130.11C147.636 131.097 151.749 132.578 154.053 132.413C156.356 132.249 158.659 130.603 158.659 130.603C158.659 130.603 162.608 132.413 163.595 132.413C164.582 132.413 165.898 130.603 164.746 128.794C163.595 126.984 160.387 124.333 158.578 124.333C156.769 124.333 150.105 125.338 150.105 125.338C150.105 125.338 138.752 119.58 135.462 117.277C132.172 114.974 129.704 112.341 129.704 112.341L136.449 91.2824" fill="#263238"/>
<path d="M136.613 78.6157C136.613 78.6157 131.02 80.5896 128.222 84.0444C125.425 87.4992 124.109 96.5483 123.451 100.496C122.794 104.445 119.832 119.416 121.478 121.226C123.123 123.036 140.726 129.123 144.181 130.11C147.636 131.097 151.749 132.578 154.053 132.413C156.356 132.249 158.659 130.603 158.659 130.603C158.659 130.603 162.608 132.413 163.595 132.413C164.582 132.413 165.898 130.603 164.746 128.794C163.595 126.984 160.387 124.333 158.578 124.333C156.769 124.333 150.105 125.338 150.105 125.338C150.105 125.338 138.752 119.58 135.462 117.277C132.172 114.974 129.704 112.341 129.704 112.341L136.449 91.2824" stroke="#263238" stroke-width="0.889472" stroke-miterlimit="10" stroke-linecap="round" stroke-linejoin="round"/>
<path d="M158.577 124.333C156.768 124.333 150.104 125.338 150.104 125.338C150.104 125.338 148.852 124.703 147.063 123.772C145.865 124.684 144.461 126.04 144.017 127.641C143.766 128.543 143.679 129.307 143.663 129.955C143.857 130.014 144.036 130.067 144.181 130.109C147.636 131.096 151.749 132.577 154.053 132.412C156.356 132.248 158.659 130.602 158.659 130.602C158.659 130.602 162.608 132.412 163.595 132.412C164.582 132.412 165.898 130.602 164.746 128.793C163.594 126.985 160.386 124.333 158.577 124.333Z" fill="white" stroke="#263238" stroke-width="0.889472" stroke-miterlimit="10" stroke-linecap="round" stroke-linejoin="round"/>
<path d="M83.2321 94.9209C82.7267 95.0694 78.9017 99.2513 78.5686 104.081C78.2355 108.911 81.8997 116.906 82.5659 118.238C83.2321 119.571 82.3993 121.903 84.0649 121.903C85.7304 121.903 90.8936 114.241 90.8936 114.241C90.8936 114.241 96.7229 114.574 97.3891 113.075C98.0554 111.576 92.7256 103.249 91.5598 99.751C90.3939 96.2533 86.0635 94.0881 83.2321 94.9209Z" fill="white" stroke="#263238" stroke-width="0.889472" stroke-miterlimit="10" stroke-linecap="round" stroke-linejoin="round"/>
<path d="M82.8991 92.4224C82.8991 92.4224 82.8991 96.9193 82.2328 99.2511C81.5666 101.583 81.4001 102.749 83.8984 106.413C86.3967 110.077 92.0595 115.74 92.0595 115.74C92.0595 115.74 92.3926 111.909 92.5592 109.744C92.7257 107.579 96.0568 106.246 96.723 105.247C97.3892 104.248 93.0588 103.581 91.3933 100.584C89.7278 97.5856 89.7278 92.4224 87.396 91.9227C85.0643 91.4231 83.7318 90.0906 82.8991 92.4224Z" fill="white" stroke="#263238" stroke-width="0.889472" stroke-miterlimit="10" stroke-linecap="round" stroke-linejoin="round"/>
<path d="M105.217 82.2623C105.217 82.2623 109.881 80.9299 109.048 76.2664C108.215 71.6029 99.7209 68.1053 90.5604 68.938C81.4 69.7708 77.2361 75.7667 76.4034 81.7627C75.5706 87.7586 81.8996 93.588 82.5659 94.5873C83.2321 95.5866 82.3993 96.5859 84.398 97.2521C86.3966 97.9184 88.5618 97.2521 88.5618 97.2521C88.5618 97.2521 90.2273 99.7504 93.0587 99.0842C95.8901 98.418 95.0574 92.7552 96.2233 92.089C97.3891 91.4228 98.2219 89.2576 101.72 87.2589C105.217 85.2603 105.217 82.2623 105.217 82.2623Z" fill="#263238" stroke="#263238" stroke-width="0.889472" stroke-miterlimit="10" stroke-linecap="round" stroke-linejoin="round"/>
<path d="M91.0603 96.0862C91.0603 96.0862 91.3934 93.4213 88.0623 93.0882C84.7312 92.7551 85.564 95.9196 86.2302 97.4186C86.8964 98.9176 89.2282 100.083 89.2282 100.083C89.2282 100.083 90.061 103.914 91.2268 104.247C92.3927 104.58 99.388 107.578 100.72 107.079C102.053 106.579 103.385 100.417 103.385 100.417C103.385 100.417 105.717 99.2507 105.717 98.0848C105.717 96.9189 104.718 93.5878 104.718 92.7551C104.718 91.9223 106.55 89.5906 106.883 87.7585C107.216 85.9264 105.217 82.2622 105.217 82.2622C105.217 82.2622 104.385 85.2602 101.72 85.2602C99.0548 85.2602 96.39 84.4274 96.39 84.4274C96.39 84.4274 97.7224 87.925 96.7231 89.424C95.7238 90.923 94.0582 90.5899 93.7251 91.2561C93.392 91.9223 93.5586 94.9203 93.392 95.5865C93.2255 96.2527 92.0596 98.5845 91.0603 96.0862Z" fill="white" stroke="#263238" stroke-width="0.889472" stroke-miterlimit="10" stroke-linecap="round" stroke-linejoin="round"/>
<path d="M107.216 114.241C107.216 114.241 108.049 120.903 109.714 123.568C111.38 126.232 118.375 136.559 118.375 136.559C118.375 136.559 117.875 140.056 118.375 141.056C118.875 142.055 120.873 146.885 120.873 147.551C120.873 148.218 122.206 148.717 122.372 147.718C122.539 146.719 122.539 145.386 122.539 145.386L125.37 149.717C125.37 149.717 126.869 150.882 127.369 149.883C127.868 148.884 127.535 143.554 127.868 141.389C128.202 139.224 126.536 136.226 125.204 134.893C123.871 133.561 122.206 131.229 121.706 130.729C121.206 130.23 119.041 122.402 118.042 117.072C117.042 111.742 114.378 108.411 112.379 108.078" fill="white"/>
<path d="M107.216 114.241C107.216 114.241 108.049 120.903 109.714 123.568C111.38 126.232 118.375 136.559 118.375 136.559C118.375 136.559 117.875 140.056 118.375 141.056C118.875 142.055 120.873 146.885 120.873 147.551C120.873 148.218 122.206 148.717 122.372 147.718C122.539 146.719 122.539 145.386 122.539 145.386L125.37 149.717C125.37 149.717 126.869 150.882 127.369 149.883C127.868 148.884 127.535 143.554 127.868 141.389C128.202 139.224 126.536 136.226 125.204 134.893C123.871 133.561 122.206 131.229 121.706 130.729C121.206 130.23 119.041 122.402 118.042 117.072C117.042 111.742 114.378 108.411 112.379 108.078" stroke="#263238" stroke-width="0.889472" stroke-miterlimit="10" stroke-linecap="round" stroke-linejoin="round"/>
<path d="M127.37 149.884C127.869 148.885 127.536 143.555 127.869 141.39C128.203 139.225 126.537 136.227 125.205 134.894C124.295 133.984 123.237 132.62 122.494 131.679C119.98 132.337 118.217 133.93 117.293 134.959C117.952 135.936 118.375 136.56 118.375 136.56C118.375 136.56 117.875 140.057 118.375 141.057C118.875 142.056 120.873 146.886 120.873 147.552C120.873 148.218 122.206 148.718 122.372 147.719C122.539 146.719 122.539 145.387 122.539 145.387L125.37 149.717C125.37 149.717 126.87 150.883 127.37 149.884Z" fill="white" stroke="#263238" stroke-width="0.889472" stroke-miterlimit="10" stroke-linecap="round" stroke-linejoin="round"/>
<path d="M67.243 107.579C67.243 107.579 64.0785 109.744 62.9127 114.407C61.7468 119.071 65.5775 138.058 66.5768 143.554C67.5761 149.05 72.5728 167.372 74.0717 168.538C75.5707 169.704 93.0588 167.539 99.3888 166.373C105.718 165.207 119.375 160.377 122.207 159.544C125.038 158.712 126.537 154.381 127.37 153.548C128.203 152.716 130.035 149.884 129.035 148.885C128.036 147.886 125.205 148.885 124.039 148.885C122.873 148.885 120.708 148.718 118.376 148.718C116.044 148.718 114.046 150.384 113.379 152.716C112.713 155.047 111.714 156.213 111.714 156.213C111.714 156.213 94.5588 158.545 90.8946 158.545C87.2304 158.545 83.7328 158.045 83.7328 158.045C83.7328 158.045 81.7342 146.553 80.2352 139.391C78.7362 132.229 77.4038 126.733 76.2379 124.901" fill="white"/>
<path d="M67.243 107.579C67.243 107.579 64.0785 109.744 62.9127 114.407C61.7468 119.071 65.5775 138.058 66.5768 143.554C67.5761 149.05 72.5728 167.372 74.0717 168.538C75.5707 169.704 93.0588 167.539 99.3888 166.373C105.718 165.207 119.375 160.377 122.207 159.544C125.038 158.712 126.537 154.381 127.37 153.548C128.203 152.716 130.035 149.884 129.035 148.885C128.036 147.886 125.205 148.885 124.039 148.885C122.873 148.885 120.708 148.718 118.376 148.718C116.044 148.718 114.046 150.384 113.379 152.716C112.713 155.047 111.714 156.213 111.714 156.213C111.714 156.213 94.5588 158.545 90.8946 158.545C87.2304 158.545 83.7328 158.045 83.7328 158.045C83.7328 158.045 81.7342 146.553 80.2352 139.391C78.7362 132.229 77.4038 126.733 76.2379 124.901" stroke="#263238" stroke-width="0.889472" stroke-miterlimit="10" stroke-linecap="round" stroke-linejoin="round"/>
<path d="M124.039 148.885C122.873 148.885 120.708 148.719 118.376 148.719C116.044 148.719 114.046 150.384 113.379 152.716C112.713 155.048 111.714 156.213 111.714 156.213C111.714 156.213 111.266 156.274 110.508 156.375C110.922 157.278 111.308 158.389 111.381 159.544C111.456 160.753 111.325 162.063 111.161 163.135C116.087 161.576 120.693 159.99 122.207 159.544C125.038 158.712 126.537 154.381 127.37 153.549C128.203 152.716 130.035 149.884 129.035 148.885C128.036 147.886 125.205 148.885 124.039 148.885Z" fill="white" stroke="#263238" stroke-width="0.889472" stroke-miterlimit="10" stroke-linecap="round" stroke-linejoin="round"/>
<path d="M112.772 180.267C112.772 180.267 117.063 180.625 118.493 180.625C119.923 180.625 129.756 179.552 128.326 177.943C126.896 176.333 116.144 174.903 116.144 174.903L112.772 180.267Z" fill="white" stroke="#263238" stroke-width="0.889472" stroke-miterlimit="10" stroke-linecap="round" stroke-linejoin="round"/>
<path d="M134.226 170.612L102.939 185.093L115.096 209.765L145.847 194.211L134.226 170.612Z" fill="white" stroke="#263238" stroke-width="0.889472" stroke-miterlimit="10" stroke-linecap="round" stroke-linejoin="round"/>
<path d="M113.308 178.836C113.308 178.836 117.062 178.836 117.956 179.373C118.85 179.91 122.604 183.307 123.141 182.412C123.678 181.518 121.532 179.373 120.638 178.479C119.744 177.585 118.851 176.869 118.851 176.869" fill="white"/>
<path d="M113.308 178.836C113.308 178.836 117.062 178.836 117.956 179.373C118.85 179.91 122.604 183.307 123.141 182.412C123.678 181.518 121.532 179.373 120.638 178.479C119.744 177.585 118.851 176.869 118.851 176.869" stroke="#263238" stroke-width="0.889472" stroke-miterlimit="10" stroke-linecap="round" stroke-linejoin="round"/>
<path d="M83.9089 166.508L116.144 174.903L111.108 182.29L77.1934 178.26C77.1934 178.26 69.1351 167.18 83.9089 166.508Z" fill="white" stroke="#263238" stroke-width="0.889472" stroke-miterlimit="10" stroke-linecap="round" stroke-linejoin="round"/>
<path d="M61.1044 167.919C61.1044 167.919 53.2525 174.581 50.6353 182.671C48.018 190.76 46.3525 206.94 46.3525 206.94C46.3525 206.94 38.0248 218.837 38.0248 220.026C38.0248 221.216 44.9249 220.026 44.9249 220.026L38.2627 231.447C38.2627 231.447 38.2627 240.964 43.4973 245.961C48.7318 250.958 56.1077 252.861 61.8182 251.909C67.5286 250.958 77.9976 238.109 79.1873 237.395C80.377 236.682 76.3321 225.737 75.3804 221.692C74.4286 217.647 76.3321 214.792 77.5218 214.078C78.7114 213.364 85.6115 209.081 87.0391 205.988C88.4667 202.895 88.2288 197.66 87.7529 193.616C87.2771 189.571 81.3287 175.533 76.0942 171.25C70.8596 166.967 66.101 164.112 61.1044 167.919Z" fill="white" stroke="#263238" stroke-width="0.889472" stroke-miterlimit="10" stroke-linecap="round" stroke-linejoin="round"/>
<path d="M65.8631 166.729C65.8631 166.729 62.2941 171.964 62.2941 175.771C62.2941 179.577 65.3872 185.764 67.7665 188.619C70.1459 191.474 72.2873 193.378 72.2873 193.378L77.5218 192.188L77.7598 196.233C77.7598 196.233 78.9494 194.091 82.2805 195.519C85.6116 196.947 87.753 195.995 87.753 195.281C87.753 194.567 89.6564 189.571 87.753 181.243C85.8495 172.915 83.7081 171.488 80.615 168.395C77.5218 165.301 70.3838 164.112 65.8631 166.729Z" fill="white" stroke="#263238" stroke-width="0.889472" stroke-miterlimit="10" stroke-linecap="round" stroke-linejoin="round"/>
<path d="M68.2425 167.919C68.2425 167.919 65.6252 172.439 67.0528 176.008C68.4804 179.577 73.0011 183.86 76.5702 186.953C80.1392 190.046 84.6599 193.377 84.6599 193.377C84.6599 193.377 87.5151 186.001 82.9944 177.436C78.4736 168.87 70.3839 166.253 68.2425 167.919Z" fill="white" stroke="#263238" stroke-width="0.889472" stroke-miterlimit="10" stroke-linecap="round" stroke-linejoin="round"/>
<path d="M88.9426 146.267C88.9426 146.267 90.6081 150.311 90.6081 151.025C90.6081 151.739 90.6081 152.691 90.6081 152.691C90.6081 152.691 93.9392 154.594 93.4633 155.308C92.9875 156.022 91.084 159.115 91.084 159.115C91.084 159.115 91.5599 163.874 90.8461 166.967C90.1323 170.06 91.084 171.488 88.4667 171.488C85.8495 171.488 81.8046 171.488 81.8046 171.488C81.8046 171.488 81.0908 181.481 79.4253 181.481C77.7597 181.481 70.1458 177.912 68.7182 176.008C67.2906 174.105 66.8148 172.201 67.2906 170.774C67.7665 169.346 70.1458 163.398 71.0976 159.115C72.0493 154.832 79.1873 151.501 80.8529 150.787C82.5184 150.074 88.9426 146.267 88.9426 146.267Z" fill="white" stroke="#263238" stroke-width="0.889472" stroke-miterlimit="10" stroke-linecap="round" stroke-linejoin="round"/>
<path d="M62.5318 163.16C62.5318 163.16 56.8214 162.208 53.9662 162.684C51.111 163.16 47.542 167.205 47.542 171.25C47.542 175.295 50.6351 177.674 55.6317 178.15C60.6283 178.626 63.9594 174.343 63.9594 171.963C63.9594 169.584 63.7215 166.967 62.5318 163.16Z" fill="#263238" stroke="#263238" stroke-width="0.889472" stroke-miterlimit="10" stroke-linecap="round" stroke-linejoin="round"/>
<path d="M77.0458 161.97C77.0458 161.97 86.0873 152.215 88.9425 146.267C91.7977 140.318 90.846 134.132 86.3253 134.132C81.8045 134.132 76.8079 132.705 68.2423 135.798C59.6767 138.891 56.1077 148.884 56.5835 154.119C57.0594 159.353 64.9112 170.06 68.9561 170.774C73.001 171.488 73.001 164.35 73.001 164.35L77.0458 161.97Z" fill="#263238" stroke="#263238" stroke-width="0.889472" stroke-miterlimit="10" stroke-linecap="round" stroke-linejoin="round"/>
<path d="M78.2356 163.636C78.2356 163.636 76.0941 158.878 73.4769 160.305C70.8596 161.733 73.2389 166.967 74.9045 168.157C76.57 169.347 79.1873 167.443 79.1873 167.443" fill="white"/>
<path d="M78.2356 163.636C78.2356 163.636 76.0941 158.878 73.4769 160.305C70.8596 161.733 73.2389 166.967 74.9045 168.157C76.57 169.347 79.1873 167.443 79.1873 167.443" stroke="#263238" stroke-width="0.889472" stroke-miterlimit="10" stroke-linecap="round" stroke-linejoin="round"/>
<path d="M90.6081 152.691C90.6081 152.691 89.6563 155.784 88.4667 156.26" stroke="#263238" stroke-width="0.889472" stroke-miterlimit="10" stroke-linecap="round" stroke-linejoin="round"/>
<path d="M108.858 195.775C108.858 195.775 107.034 194.559 106.791 196.139C106.549 197.719 108.371 199.421 108.371 199.421C108.371 199.421 106.062 196.868 105.94 198.327C105.819 199.785 107.278 201.366 107.278 201.366C107.278 201.366 105.454 200.515 105.454 201.244C105.454 201.973 108.007 204.526 108.128 205.741C108.248 206.956 110.558 203.189 111.045 200.271C111.531 197.354 108.858 195.775 108.858 195.775Z" fill="white" stroke="#263238" stroke-width="0.889472" stroke-miterlimit="10" stroke-linecap="round" stroke-linejoin="round"/>
<path d="M105.36 213.84C105.36 213.84 106.55 209.319 106.55 207.416C106.55 205.512 108.691 202.181 109.643 200.278C110.595 198.374 106.55 195.043 108.453 194.092C110.357 193.14 111.784 195.043 113.45 197.185C115.115 199.326 115.591 203.847 114.164 206.94C112.736 210.033 110.357 213.364 108.929 214.792C107.501 216.219 106.55 216.695 106.55 216.695L105.36 213.84Z" fill="white" stroke="#263238" stroke-width="0.889472" stroke-miterlimit="10" stroke-linecap="round" stroke-linejoin="round"/>
<path d="M107.163 209.271C107.163 209.271 107.163 206.256 107.163 203.241C107.163 200.226 108.858 195.775 108.858 195.775C108.858 195.775 111.066 195.615 110.711 197.921C110.356 200.227 111.066 203.774 111.066 203.774" fill="white"/>
<path d="M107.163 209.271C107.163 209.271 107.163 206.256 107.163 203.241C107.163 200.226 108.858 195.775 108.858 195.775C108.858 195.775 111.066 195.615 110.711 197.921C110.356 200.227 111.066 203.774 111.066 203.774" stroke="#263238" stroke-width="0.889472" stroke-miterlimit="10" stroke-linecap="round" stroke-linejoin="round"/>
<path d="M54.4422 205.75C54.4422 205.75 51.1111 210.509 52.7767 215.743C54.4422 220.978 78.2356 252.623 81.5666 252.623C84.8977 252.623 108.929 221.454 110.357 219.55C111.784 217.647 105.598 212.888 105.598 212.888L81.5666 234.778C81.5666 234.778 75.1424 209.081 72.5252 204.322C69.9079 199.564 63.7216 199.088 63.7216 199.088" fill="white"/>
<path d="M54.4422 205.75C54.4422 205.75 51.1111 210.509 52.7767 215.743C54.4422 220.978 78.2356 252.623 81.5666 252.623C84.8977 252.623 108.929 221.454 110.357 219.55C111.784 217.647 105.598 212.888 105.598 212.888L81.5666 234.778C81.5666 234.778 75.1424 209.081 72.5252 204.322C69.9079 199.564 63.7216 199.088 63.7216 199.088" stroke="#263238" stroke-width="0.889472" stroke-miterlimit="10" stroke-linecap="round" stroke-linejoin="round"/>
<path d="M169.516 104.939C169.516 104.939 172.807 101.319 176.261 100.661C179.716 100.003 181.526 102.306 180.539 106.418C179.552 110.532 176.426 111.519 174.617 111.354C172.806 111.19 169.846 110.367 169.023 108.229C168.201 106.09 169.516 104.939 169.516 104.939Z" fill="#263238" stroke="#263238" stroke-width="0.889472" stroke-miterlimit="10" stroke-linecap="round" stroke-linejoin="round"/>
<path d="M171.491 103.952C171.491 103.952 164.417 104.939 162.771 106.09C161.126 107.242 157.343 113.658 157.343 114.481C157.343 115.303 159.646 116.126 160.797 116.126C161.949 116.126 164.911 112.178 164.911 112.178L163.43 116.291C163.43 116.291 164.911 116.126 165.075 115.469C165.24 114.811 167.543 110.368 167.543 110.368C167.543 110.368 171.82 110.533 172.972 108.558C174.124 106.583 174.946 105.268 171.491 103.952Z" fill="white" stroke="#263238" stroke-width="0.889472" stroke-miterlimit="10" stroke-linecap="round" stroke-linejoin="round"/>
<path d="M185.691 93.0889C185.691 93.0889 183.712 99.7462 183.712 103.885C183.712 108.023 186.591 121.34 186.591 121.34C186.591 121.34 186.051 124.939 183.712 127.458C181.372 129.977 182.092 133.396 183.172 134.476C184.251 135.556 186.411 137.535 187.131 136.276C187.851 135.016 187.311 132.677 188.031 131.777C188.75 130.877 191.449 129.438 191.81 126.738C192.17 124.039 191.63 115.762 191.63 111.263C191.63 106.764 193.969 100.107 191.45 95.4282" fill="white"/>
<path d="M185.691 93.0889C185.691 93.0889 183.712 99.7462 183.712 103.885C183.712 108.023 186.591 121.34 186.591 121.34C186.591 121.34 186.051 124.939 183.712 127.458C181.372 129.977 182.092 133.396 183.172 134.476C184.251 135.556 186.411 137.535 187.131 136.276C187.851 135.016 187.311 132.677 188.031 131.777C188.75 130.877 191.449 129.438 191.81 126.738C192.17 124.039 191.63 115.762 191.63 111.263C191.63 106.764 193.969 100.107 191.45 95.4282" stroke="#263238" stroke-width="0.889472" stroke-miterlimit="10" stroke-linecap="round" stroke-linejoin="round"/>
<path d="M191.84 119.214C188.92 118.64 187.311 119.626 186.452 120.688C186.54 121.102 186.591 121.341 186.591 121.341C186.591 121.341 186.052 124.939 183.712 127.458C181.373 129.978 182.092 133.396 183.173 134.476C184.253 135.557 186.411 137.535 187.132 136.276C187.851 135.016 187.312 132.678 188.031 131.777C188.751 130.878 191.45 129.438 191.811 126.739C191.998 125.319 191.938 122.357 191.84 119.214Z" fill="white" stroke="#263238" stroke-width="0.889472" stroke-miterlimit="10" stroke-linecap="round" stroke-linejoin="round"/>
<path d="M196.848 119L179.573 138.615L197.028 151.03L213.763 129.797L196.848 119Z" fill="white" stroke="#263238" stroke-width="0.889472" stroke-miterlimit="10" stroke-linecap="round" stroke-linejoin="round"/>
<path d="M189.291 127.098C189.291 127.098 189.47 133.216 189.47 134.116C189.47 135.017 191.45 136.096 191.63 133.936C191.81 131.777 191.81 130.877 191.99 130.338C192.17 129.798 193.249 126.379 191.81 123.859" fill="white"/>
<path d="M189.291 127.098C189.291 127.098 189.47 133.216 189.47 134.116C189.47 135.017 191.45 136.096 191.63 133.936C191.81 131.777 191.81 130.877 191.99 130.338C192.17 129.798 193.249 126.379 191.81 123.859" stroke="#263238" stroke-width="0.889472" stroke-miterlimit="10" stroke-linecap="round" stroke-linejoin="round"/>
<path d="M237.875 79.4129C237.875 79.4129 233.016 84.8112 230.677 89.8497C228.337 94.8881 226.538 107.844 226.538 107.844C226.538 107.844 217.181 123.139 215.921 124.399C214.662 125.659 215.381 125.478 212.323 126.918C209.264 128.357 205.304 129.077 204.765 129.977C204.225 130.876 202.246 135.195 201.706 135.735C201.166 136.274 202.425 137.355 203.146 136.634C203.865 135.915 206.385 133.036 206.385 133.036L203.326 140.234C203.326 140.234 203.326 141.133 204.405 141.133C205.484 141.133 208.184 139.873 208.184 139.873C208.184 139.873 211.243 139.153 212.323 137.713C213.402 136.273 217.361 128.536 217.361 128.536C217.361 128.536 227.798 121.878 231.576 117.38C235.355 112.881 237.874 107.303 238.414 105.503C238.955 103.703 245.612 83.73 245.432 80.4903C245.253 77.2515 243.633 76.7119 243.633 76.7119" fill="white"/>
<path d="M237.875 79.4129C237.875 79.4129 233.016 84.8112 230.677 89.8497C228.337 94.8881 226.538 107.844 226.538 107.844C226.538 107.844 217.181 123.139 215.921 124.399C214.662 125.659 215.381 125.478 212.323 126.918C209.264 128.357 205.304 129.077 204.765 129.977C204.225 130.876 202.246 135.195 201.706 135.735C201.166 136.274 202.425 137.355 203.146 136.634C203.865 135.915 206.385 133.036 206.385 133.036L203.326 140.234C203.326 140.234 203.326 141.133 204.405 141.133C205.484 141.133 208.184 139.873 208.184 139.873C208.184 139.873 211.243 139.153 212.323 137.713C213.402 136.273 217.361 128.536 217.361 128.536C217.361 128.536 227.798 121.878 231.576 117.38C235.355 112.881 237.874 107.303 238.414 105.503C238.955 103.703 245.612 83.73 245.432 80.4903C245.253 77.2515 243.633 76.7119 243.633 76.7119" stroke="#263238" stroke-width="0.889472" stroke-miterlimit="10" stroke-linecap="round" stroke-linejoin="round"/>
<path d="M215.385 124.974C214.799 125.647 214.81 125.747 212.323 126.918C209.264 128.357 205.304 129.078 204.765 129.977C204.225 130.876 202.246 135.195 201.706 135.735C201.166 136.275 202.425 137.355 203.146 136.634C203.865 135.915 206.385 133.036 206.385 133.036L203.326 140.234C203.326 140.234 203.326 141.133 204.405 141.133C205.484 141.133 208.184 139.874 208.184 139.874C208.184 139.874 211.243 139.154 212.323 137.715C213.402 136.275 217.361 128.538 217.361 128.538C217.361 128.538 218.015 128.121 219.054 127.424C218.006 126.056 216.558 125.342 215.385 124.974Z" fill="white" stroke="#263238" stroke-width="0.889472" stroke-miterlimit="10" stroke-linecap="round" stroke-linejoin="round"/>
<path d="M286.778 130.629C286.778 130.629 282.802 138.14 282.065 141.085C281.328 144.031 280.15 147.271 280.15 147.271C280.15 147.271 272.786 146.092 266.454 145.356C260.121 144.619 251.137 142.999 248.928 142.558C246.719 142.116 242.595 140.938 241.712 141.674C240.829 142.411 241.417 142.264 242.449 142.705C243.48 143.147 245.099 142.853 245.099 142.853C245.099 142.853 243.627 143.294 242.006 143.883C240.386 144.473 237.441 145.503 236.999 146.092C236.558 146.682 237.588 148.743 239.208 148.743C240.828 148.743 242.006 148.596 242.891 148.743C243.774 148.891 244.216 149.774 247.161 149.774C250.107 149.774 254.23 147.417 254.23 147.417C254.23 147.417 268.074 153.75 275.88 155.076C283.685 156.402 284.863 154.634 288.104 152.13C291.344 149.626 300.769 134.163 300.033 131.07C299.296 127.978 297.676 125.622 297.676 125.622" fill="#263238"/>
<path d="M286.778 130.629C286.778 130.629 282.802 138.14 282.065 141.085C281.328 144.031 280.15 147.271 280.15 147.271C280.15 147.271 272.786 146.092 266.454 145.356C260.121 144.619 251.137 142.999 248.928 142.558C246.719 142.116 242.595 140.938 241.712 141.674C240.829 142.411 241.417 142.264 242.449 142.705C243.48 143.147 245.099 142.853 245.099 142.853C245.099 142.853 243.627 143.294 242.006 143.883C240.386 144.473 237.441 145.503 236.999 146.092C236.558 146.682 237.588 148.743 239.208 148.743C240.828 148.743 242.006 148.596 242.891 148.743C243.774 148.891 244.216 149.774 247.161 149.774C250.107 149.774 254.23 147.417 254.23 147.417C254.23 147.417 268.074 153.75 275.88 155.076C283.685 156.402 284.863 154.634 288.104 152.13C291.344 149.626 300.769 134.163 300.033 131.07C299.296 127.978 297.676 125.622 297.676 125.622" stroke="#263238" stroke-width="0.889472" stroke-miterlimit="10" stroke-linecap="round" stroke-linejoin="round"/>
<path d="M257.404 144.054C253.554 143.427 250.17 142.806 248.928 142.558C246.719 142.116 242.595 140.938 241.712 141.675C240.829 142.411 241.417 142.264 242.449 142.705C243.48 143.147 245.099 142.853 245.099 142.853C245.099 142.853 243.627 143.295 242.006 143.884C240.386 144.473 237.441 145.503 236.999 146.093C236.558 146.682 237.588 148.743 239.208 148.743C240.828 148.743 242.006 148.596 242.89 148.743C243.773 148.891 244.215 149.774 247.16 149.774C250.106 149.774 254.229 147.417 254.229 147.417C254.229 147.417 255.31 147.911 257.035 148.652L257.404 144.054Z" fill="white" stroke="#263238" stroke-width="0.889472" stroke-miterlimit="10" stroke-linecap="round" stroke-linejoin="round"/>
<path d="M247.897 107.949C247.897 107.949 240.976 111.336 238.325 113.693C235.674 116.049 229.046 130.924 228.899 131.955C228.751 132.986 233.906 133.575 234.495 133.281C235.084 132.987 245.541 120.91 248.192 118.848C250.842 116.786 249.665 114.282 249.665 114.282" fill="#263238"/>
<path d="M247.897 107.949C247.897 107.949 240.976 111.336 238.325 113.693C235.674 116.049 229.046 130.924 228.899 131.955C228.751 132.986 233.906 133.575 234.495 133.281C235.084 132.987 245.541 120.91 248.192 118.848C250.842 116.786 249.665 114.282 249.665 114.282" stroke="#263238" stroke-width="0.889472" stroke-miterlimit="10" stroke-linecap="round" stroke-linejoin="round"/>
<path d="M231.403 128.862C231.403 128.862 226.69 129.893 224.923 130.629C223.155 131.366 219.031 136.667 220.063 136.962C221.094 137.257 223.892 133.869 223.892 133.869C223.892 133.869 221.683 137.109 221.388 138.287C221.094 139.465 220.799 142.116 221.977 141.674C223.155 141.233 225.512 137.993 225.512 137.993C225.512 137.993 228.457 136.225 230.814 136.225C233.17 136.225 234.79 131.808 234.79 131.808C234.79 131.808 236.705 129.893 235.969 127.831C235.232 125.77 231.403 128.862 231.403 128.862Z" fill="white" stroke="#263238" stroke-width="0.889472" stroke-miterlimit="10" stroke-linecap="round" stroke-linejoin="round"/>
<path d="M235.379 127.683C235.379 127.683 233.464 127.831 232.286 126.357C231.108 124.885 230.371 126.357 230.371 127.83C230.371 129.302 231.845 129.745 231.845 129.745C231.845 129.745 229.341 132.101 230.814 132.837C232.287 133.573 233.76 132.395 233.76 132.395" fill="white"/>
<path d="M235.379 127.683C235.379 127.683 233.464 127.831 232.286 126.357C231.108 124.885 230.371 126.357 230.371 127.83C230.371 129.302 231.845 129.745 231.845 129.745C231.845 129.745 229.341 132.101 230.814 132.837C232.287 133.573 233.76 132.395 233.76 132.395" stroke="#263238" stroke-width="0.889472" stroke-miterlimit="10" stroke-linecap="round" stroke-linejoin="round"/>
<path d="M287.155 166.054C287.155 166.054 279.856 164.664 277.249 164.142C274.642 163.621 266.127 167.097 263.693 167.966C261.26 168.834 263.693 169.529 266.3 170.051C268.907 170.572 274.121 169.529 274.121 169.529C274.121 169.529 268.385 171.962 269.776 172.31C271.166 172.658 273.947 171.963 276.38 171.789C278.813 171.614 281.246 169.356 281.246 169.356C281.246 169.356 292.89 175.091 294.28 175.091C295.671 175.091 297.756 170.921 294.802 169.183C291.847 167.444 287.155 166.054 287.155 166.054Z" fill="white" stroke="#263238" stroke-width="0.889472" stroke-miterlimit="10" stroke-linecap="round" stroke-linejoin="round"/>
<path d="M289.761 172.484C289.761 172.484 282.81 177.524 277.77 184.649C272.73 191.775 271.861 206.199 272.903 210.37C273.947 214.54 274.641 219.407 279.681 222.709C284.721 226.011 288.37 227.401 297.059 222.709C305.749 218.017 310.268 202.376 309.399 190.384C308.53 178.392 301.231 170.051 297.407 169.008C293.586 167.965 289.761 172.484 289.761 172.484Z" fill="white" stroke="#263238" stroke-width="0.889472" stroke-miterlimit="10" stroke-linecap="round" stroke-linejoin="round"/>
<path d="M290.283 174.744C290.283 174.744 287.155 175.091 285.591 177.176C284.027 179.262 284.548 179.957 285.591 180.478C286.634 180.999 286.807 182.39 286.807 182.39C286.807 182.39 283.157 188.298 285.069 189.516C286.982 190.732 295.497 186.735 297.756 183.78C300.016 180.826 298.972 175.96 297.582 174.57C296.192 173.179 290.283 174.744 290.283 174.744Z" fill="white" stroke="#263238" stroke-width="0.889472" stroke-miterlimit="10" stroke-linecap="round" stroke-linejoin="round"/>
<path d="M288.198 152.151C288.198 152.151 286.113 154.584 284.722 155.279C283.332 155.974 281.594 156.67 282.984 157.712C284.375 158.755 285.244 159.624 285.244 159.624C285.244 159.624 283.506 165.359 284.2 168.661C284.895 171.962 288.024 171.093 288.024 171.093C288.024 171.093 287.502 179.783 286.807 182.389C286.113 184.996 289.414 184.822 292.021 183.258C294.628 181.695 294.975 175.264 296.018 170.572C297.061 165.88 303.317 160.318 298.972 155.104C294.628 149.892 288.198 152.151 288.198 152.151Z" fill="white" stroke="#263238" stroke-width="0.889472" stroke-miterlimit="10" stroke-linecap="round" stroke-linejoin="round"/>
<path d="M316.525 146.242C310.095 139.638 300.363 141.203 298.972 141.55C298.972 141.55 293.547 140.234 290.418 140.756C287.29 141.277 286.112 150.24 288.024 155.28C288.824 157.39 290.263 158.701 291.667 159.52C291.352 159.244 289.495 157.493 291.282 156.103C293.228 154.59 294.957 154.374 294.957 154.374C294.957 154.374 293.444 159.346 294.097 160.216C296.743 163.741 284.841 180.343 284.373 180.078C284.373 180.078 287.849 182.044 292.194 184.129C301.798 188.738 313.125 178.886 316.701 170.576C319.528 164.009 322.259 152.131 316.525 146.242Z" fill="#263238" stroke="#263238" stroke-width="0.889472" stroke-miterlimit="10" stroke-linecap="round" stroke-linejoin="round"/>
<path d="M222.955 171.012L214.178 207.713L232.131 215.893L238.913 181.384L222.955 171.012Z" fill="white" stroke="#263238" stroke-width="0.889472" stroke-miterlimit="10" stroke-linecap="round" stroke-linejoin="round"/>
<path d="M223.562 174.802L216.268 205.306L231.188 212.103L236.824 183.423L223.562 174.802Z" fill="#263238" stroke="#263238" stroke-width="0.889472" stroke-miterlimit="10" stroke-linecap="round" stroke-linejoin="round"/>
<path d="M238.913 181.384L263.448 182.581L258.661 217.887L232.131 215.893L238.913 181.384Z" fill="white" stroke="#263238" stroke-width="0.889472" stroke-miterlimit="10" stroke-linecap="round" stroke-linejoin="round"/>
<path d="M246.138 197.065L247.918 197.147L248.097 195.998L246.343 195.875L246.138 197.065Z" fill="#263238"/>
<path d="M250.27 205.077L250.556 203.34L248.075 203.226L247.813 204.905L250.27 205.077Z" fill="#263238"/>
<path d="M245.891 192.076L246.104 190.848L243.881 190.693L243.654 191.973L245.891 192.076Z" fill="#263238"/>
<path d="M246.991 192.126L248.689 192.204L248.87 191.041L247.2 190.925L246.991 192.126Z" fill="#263238"/>
<path d="M245.674 199.745L247.492 199.872L247.748 198.232L245.95 198.149L245.674 199.745Z" fill="#263238"/>
<path d="M251.898 195.169L252.178 193.459L249.617 193.341L249.36 194.991L251.898 195.169Z" fill="#263238"/>
<path d="M244.531 187.035L246.746 187.137L247.073 185.242L244.87 185.128L244.531 187.035Z" fill="#263238"/>
<path d="M249.46 187.262L249.754 185.38L248.173 185.298L247.846 187.188L249.46 187.262Z" fill="#263238"/>
<path d="M244.338 188.119L244.073 189.611L246.291 189.766L246.558 188.221L244.338 188.119Z" fill="#263238"/>
<path d="M248.52 193.29L246.804 193.21L246.531 194.793L248.266 194.915L248.52 193.29Z" fill="#263238"/>
<path d="M249.291 188.348L247.659 188.271L247.386 189.842L249.04 189.958L249.291 188.348Z" fill="#263238"/>
<path d="M251.084 200.124L251.367 198.399L248.846 198.282L248.587 199.949L251.084 200.124Z" fill="#263238"/>
<path d="M241.025 200.515L239.205 200.387L238.973 201.712L240.798 201.796L241.025 200.515Z" fill="#263238"/>
<path d="M240.605 202.88L238.783 202.796L238.527 204.255L240.338 204.381L240.605 202.88Z" fill="#263238"/>
<path d="M240.146 205.464L238.337 205.337L238.108 206.65L239.92 206.734L240.146 205.464Z" fill="#263238"/>
<path d="M239.727 207.818L237.918 207.734L237.66 209.206L239.459 209.332L239.727 207.818Z" fill="#263238"/>
<path d="M241.483 197.942L239.648 197.857L239.395 199.305L241.217 199.433L241.483 197.942Z" fill="#263238"/>
<path d="M242.36 193.006L240.513 192.921L240.262 194.354L242.098 194.483L242.36 193.006Z" fill="#263238"/>
<path d="M243.238 188.068L241.378 187.982L241.129 189.404L242.977 189.534L243.238 188.068Z" fill="#263238"/>
<path d="M241.905 195.564L240.072 195.436L239.838 196.773L241.675 196.858L241.905 195.564Z" fill="#263238"/>
<path d="M242.785 190.616L240.939 190.486L240.702 191.837L242.553 191.922L242.785 190.616Z" fill="#263238"/>
<path d="M252.99 188.518L250.389 188.398L250.134 190.034L252.711 190.215L252.99 188.518Z" fill="#263238"/>
<path d="M239.266 210.414L237.47 210.288L237.117 212.302L238.898 212.483L239.266 210.414Z" fill="#263238"/>
<path d="M249.016 197.197L251.546 197.314L251.72 196.252L249.191 196.075L249.016 197.197Z" fill="#263238"/>
<path d="M247.473 207.082L249.922 207.194L250.092 206.16L247.643 205.988L247.473 207.082Z" fill="#263238"/>
<path d="M248.244 202.14L250.734 202.255L250.906 201.207L248.417 201.032L248.244 202.14Z" fill="#263238"/>
<path d="M247.324 200.955L245.487 200.827L245.283 202.003L247.147 202.089L247.324 200.955Z" fill="#263238"/>
<path d="M249.744 208.279L247.304 208.167L247.039 209.862L249.457 210.031L249.744 208.279Z" fill="#263238"/>
<path d="M246.87 210.946L246.509 213.257L248.886 213.498L249.278 211.114L246.87 210.946Z" fill="#263238"/>
<path d="M243.193 194.56L245.434 194.717L245.704 193.16L243.461 193.056L243.193 194.56Z" fill="#263238"/>
<path d="M243.431 186.984L243.771 185.071L241.904 184.975L241.568 186.898L243.431 186.984Z" fill="#263238"/>
<path d="M249.787 192.255L252.357 192.374L252.534 191.298L249.965 191.118L249.787 192.255Z" fill="#263238"/>
<path d="M250.559 187.312L253.168 187.433L253.474 185.573L250.852 185.438L250.559 187.312Z" fill="#263238"/>
<path d="M246.977 203.174L245.096 203.087L244.818 204.695L246.718 204.828L246.977 203.174Z" fill="#263238"/>
<path d="M243.995 203.037L241.706 202.93L241.434 204.459L243.721 204.619L243.995 203.037Z" fill="#263238"/>
<path d="M244.63 205.778L244.429 206.941L246.375 207.03L246.55 205.912L244.63 205.778Z" fill="#263238"/>
<path d="M246.205 208.117L244.242 208.025L243.961 209.647L245.946 209.786L246.205 208.117Z" fill="#263238"/>
<path d="M240.554 209.408L242.865 209.57L243.141 207.975L240.828 207.868L240.554 209.408Z" fill="#263238"/>
<path d="M243.535 205.7L241.241 205.541L241.02 206.783L243.328 206.89L243.535 205.7Z" fill="#263238"/>
<path d="M241.898 201.847L244.183 201.952L244.39 200.75L242.121 200.591L241.898 201.847Z" fill="#263238"/>
<path d="M240.362 210.49L239.988 212.594L242.301 212.829L242.678 210.653L240.362 210.49Z" fill="#263238"/>
<path d="M245.776 210.868L243.774 210.729L243.391 212.939L245.42 213.146L245.776 210.868Z" fill="#263238"/>
<path d="M245.247 195.799L243.001 195.642L242.776 196.91L245.038 197.014L245.247 195.799Z" fill="#263238"/>
<path d="M244.85 198.097L242.583 197.994L242.314 199.509L244.578 199.668L244.85 198.097Z" fill="#263238"/>
<path d="M290.63 203.94C290.63 203.94 288.371 204.115 284.548 207.243C280.725 210.371 265.605 236.787 265.605 236.787C265.605 236.787 251.875 228.272 248.399 225.838C244.923 223.405 242.142 219.061 240.231 216.453C238.319 213.846 237.972 213.499 235.365 213.325C232.758 213.15 230.846 211.413 230.499 212.63C230.151 213.847 231.194 214.368 231.889 214.715C232.584 215.062 233.801 215.062 233.801 215.062C233.801 215.062 231.716 215.584 229.109 214.019C226.503 212.456 225.808 212.107 225.808 213.845C225.808 215.583 227.72 218.364 229.109 220.102C230.5 221.84 238.494 222.534 238.494 222.534C238.494 222.534 243.013 231.398 248.227 238.697C253.44 245.996 264.563 253.816 267.691 252.774C270.818 251.732 287.329 231.051 291.848 225.315C296.367 219.58 302.275 212.803 300.884 208.98" fill="white"/>
<path d="M290.63 203.94C290.63 203.94 288.371 204.115 284.548 207.243C280.725 210.371 265.605 236.787 265.605 236.787C265.605 236.787 251.875 228.272 248.399 225.838C244.923 223.405 242.142 219.061 240.231 216.453C238.319 213.846 237.972 213.499 235.365 213.325C232.758 213.15 230.846 211.413 230.499 212.63C230.151 213.847 231.194 214.368 231.889 214.715C232.584 215.062 233.801 215.062 233.801 215.062C233.801 215.062 231.716 215.584 229.109 214.019C226.503 212.456 225.808 212.107 225.808 213.845C225.808 215.583 227.72 218.364 229.109 220.102C230.5 221.84 238.494 222.534 238.494 222.534C238.494 222.534 243.013 231.398 248.227 238.697C253.44 245.996 264.563 253.816 267.691 252.774C270.818 251.732 287.329 231.051 291.848 225.315C296.367 219.58 302.275 212.803 300.884 208.98" stroke="#263238" stroke-width="0.889472" stroke-miterlimit="10" stroke-linecap="round" stroke-linejoin="round"/>
<path d="M243.72 221.198C242.356 219.486 241.186 217.753 240.232 216.453C238.32 213.846 237.973 213.499 235.366 213.325C232.759 213.15 230.847 211.413 230.5 212.63C230.152 213.847 231.195 214.368 231.89 214.715C232.585 215.062 233.802 215.063 233.802 215.063C233.802 215.063 231.717 215.584 229.11 214.019C226.503 212.456 225.809 212.107 225.809 213.845C225.809 215.583 227.721 218.364 229.11 220.102C230.501 221.84 238.495 222.535 238.495 222.535C238.495 222.535 238.845 223.218 239.446 224.336C240.293 223.222 241.629 222.089 243.72 221.198Z" fill="white" stroke="#263238" stroke-width="0.889472" stroke-miterlimit="10" stroke-linecap="round" stroke-linejoin="round"/>
</svg>
