<svg version="1.2" xmlns="http://www.w3.org/2000/svg" viewBox="0 0 337 273" width="337" height="273">
	<title>Subtract-svg</title>
	<defs>
		<clipPath clipPathUnits="userSpaceOnUse" id="cp1">
			<path d="m325.39 271c5.53 0 10-4.48 10-10v-248c0-5.52-4.47-10-10-10h-234.19c-10.18 0-17.2 10.82-17.2 21 0 28.72-23.28 52-52 52-9.34 0-19 6.52-19 15.87v169.13c0 5.52 4.48 10 10 10z"/>
		</clipPath>
	</defs>
	<style>
		.s0 { fill: #ffffff } 
		.s1 { fill: #80b3e5 } 
	</style>
	<g id="Layer">
		<path id="Layer" fill-rule="evenodd" class="s0" d="m325.4 271c5.5 0 10-4.5 10-10v-248c0-5.5-4.5-10-10-10h-234.2c-10.2 0-17.2 10.8-17.2 21 0 28.7-23.3 52-52 52-9.3 0-19 6.5-19 15.9v169.1c0 5.5 4.5 10 10 10z"/>
		<g id="Clip-Path" clip-path="url(#cp1)">
			<path id="Layer" class="s1" d="m334.4 261c0 5-4 9-9 9v2c6.1 0 11-4.9 11-11zm0-248v248h2v-248zm-9-9c5 0 9 4 9 9h2c0-6.1-4.9-11-11-11zm-234.2 0h234.2v-2h-234.2zm-18.2 20c0 28.2-22.8 51-51 51v2c29.3 0 53-23.7 53-53zm-69 237v-169.1h-2v169.1zm9 9c-5 0-9-4-9-9h-2c0 6.1 4.9 11 11 11zm312.4 0h-312.4v2h312.4zm-303.4-195c-4.9 0-9.9 1.7-13.6 4.6-3.8 3-6.4 7.2-6.4 12.3h2c0-4.3 2.2-8 5.6-10.7 3.4-2.6 7.9-4.2 12.4-4.2zm69.2-73c-5.5 0-10 2.9-13.2 7.1-3.2 4.1-5 9.6-5 14.9h2c0-4.9 1.7-9.9 4.6-13.7 2.9-3.8 6.9-6.3 11.6-6.3z"/>
		</g>
	</g>
</svg>