<svg width="36" height="34" viewBox="0 0 36 34" fill="none" xmlns="http://www.w3.org/2000/svg">
<path d="M26.0096 8.24647C26.381 8.22993 26.6686 7.91548 26.6521 7.54414C26.6355 7.17279 26.3211 6.88516 25.9497 6.9017C25.5784 6.91823 25.2908 7.23268 25.3073 7.60402C25.3238 7.97537 25.6383 8.263 26.0096 8.24647Z" fill="black"/>
<path d="M22.2968 8.24893C22.6685 8.24893 22.9699 7.9476 22.9699 7.57588C22.9699 7.20417 22.6685 6.90283 22.2968 6.90283C21.9251 6.90283 21.6238 7.20417 21.6238 7.57588C21.6238 7.9476 21.9251 8.24893 22.2968 8.24893Z" fill="black"/>
<path d="M18.614 8.24893C18.9857 8.24893 19.287 7.9476 19.287 7.57588C19.287 7.20417 18.9857 6.90283 18.614 6.90283C18.2423 6.90283 17.9409 7.20417 17.9409 7.57588C17.9409 7.9476 18.2423 8.24893 18.614 8.24893Z" fill="black"/>
<path d="M32.0388 0H9.27196C8.47548 0.0010969 7.71194 0.31804 7.14882 0.881315C6.5857 1.44459 6.26897 2.20821 6.2681 3.00469V4.74534H3.34298C2.54657 4.74622 1.78304 5.06298 1.21989 5.62612C0.656749 6.18926 0.33999 6.9528 0.339112 7.7492V27.4102C0.339003 27.4726 0.351186 27.5343 0.374964 27.5919C0.398742 27.6496 0.433648 27.7019 0.477685 27.746C0.521722 27.7901 0.574025 27.8251 0.631602 27.849C0.689179 27.8729 0.7509 27.8852 0.813232 27.8852H21.4656L23.0654 33.0135C23.0917 33.0998 23.1421 33.1769 23.2107 33.2356C23.2792 33.2943 23.3631 33.3323 23.4524 33.345C23.4744 33.3483 23.4966 33.35 23.5188 33.35C23.5975 33.35 23.6749 33.3304 23.7441 33.2929C23.8133 33.2555 23.872 33.2013 23.915 33.1353L25.731 30.3735L28.0975 32.7408C28.1882 32.8266 28.3083 32.8745 28.4332 32.8745C28.5581 32.8745 28.6782 32.8266 28.7689 32.7408L30.3438 31.1659C30.4323 31.0766 30.482 30.956 30.482 30.8302C30.482 30.7044 30.4323 30.5838 30.3438 30.4945L27.9732 28.1272L30.7292 26.3161C30.7859 26.2789 30.834 26.2298 30.8702 26.1723C30.9063 26.1148 30.9296 26.0503 30.9386 25.983C30.9476 25.9157 30.9419 25.8472 30.9221 25.7823C30.9023 25.7173 30.8687 25.6574 30.8237 25.6066H34.5686C34.6944 25.6064 34.815 25.5562 34.9039 25.4672C34.9928 25.3782 35.0427 25.2575 35.0427 25.1317V3.00469C35.0418 2.20821 34.7251 1.44459 34.162 0.881315C33.5988 0.31804 32.8353 0.0010969 32.0388 0ZM7.21716 3.00469C7.21782 2.45993 7.43452 1.93767 7.81973 1.55246C8.20493 1.16725 8.72719 0.950555 9.27196 0.949897H32.0388C32.5836 0.950555 33.1058 1.16725 33.4911 1.55246C33.8763 1.93767 34.093 2.45993 34.0936 3.00469V4.74534H26.2682C26.2159 4.74534 26.1629 4.74534 26.1098 4.74534H7.21716V3.00469ZM3.34298 5.69192H6.68254C6.70268 5.69318 6.72289 5.69318 6.74304 5.69192H26.2358C26.7577 5.72458 27.2476 5.95476 27.6059 6.33567C27.9642 6.71659 28.164 7.21964 28.1646 7.74257V9.48322H1.28818V7.74257C1.28993 7.19853 1.50712 6.67733 1.8922 6.29302C2.27729 5.90871 2.79893 5.69258 3.34298 5.69192ZM1.28818 26.9336V10.4389H28.1646V24.704L20.5091 22.3159C20.4264 22.2901 20.3383 22.2874 20.2541 22.3081C20.17 22.3288 20.0932 22.372 20.0319 22.4332C19.9706 22.4944 19.9272 22.5712 19.9064 22.6553C19.8857 22.7394 19.8883 22.8275 19.914 22.9103L21.1722 26.9336H1.28818ZM26.9644 27.6539C26.9055 27.6927 26.856 27.7441 26.8194 27.8044C26.7828 27.8647 26.7601 27.9324 26.753 28.0026C26.7459 28.0727 26.7544 28.1436 26.7781 28.21C26.8018 28.2765 26.8399 28.3368 26.8898 28.3867L29.3334 30.8302L28.8808 31.2819L28.4282 31.7345L25.9847 29.2901C25.9349 29.2402 25.8746 29.2019 25.8082 29.1783C25.7418 29.1546 25.6709 29.146 25.6007 29.1533C25.5306 29.1605 25.4629 29.1833 25.4027 29.22C25.3425 29.2568 25.2913 29.3065 25.2528 29.3656L23.6721 31.7693L21.0893 23.4921L29.3673 26.0741L26.9644 27.6539ZM29.1137 24.6567V7.74755C29.1141 6.98507 28.8232 6.25123 28.3006 5.69607H34.092V24.6567H29.1137Z" fill="black"/>
<path d="M32.5833 2.84227C32.5874 2.47058 32.2895 2.1659 31.9178 2.16174C31.5461 2.15759 31.2414 2.45554 31.2373 2.82724C31.2331 3.19893 31.5311 3.50361 31.9027 3.50776C32.2744 3.51191 32.5791 3.21396 32.5833 2.84227Z" fill="black"/>
<path d="M28.2258 3.50699C28.5975 3.50699 28.8988 3.20566 28.8988 2.83394C28.8988 2.46222 28.5975 2.16089 28.2258 2.16089C27.8541 2.16089 27.5527 2.46222 27.5527 2.83394C27.5527 3.20566 27.8541 3.50699 28.2258 3.50699Z" fill="black"/>
<path d="M24.5546 3.50712C24.9263 3.5007 25.2224 3.1942 25.2159 2.82254C25.2095 2.45088 24.903 2.1548 24.5314 2.16122C24.1597 2.16765 23.8636 2.47414 23.87 2.8458C23.8764 3.21746 24.1829 3.51355 24.5546 3.50712Z" fill="black"/>
<path d="M11.7517 14.2458H5.13803C5.07566 14.2458 5.0139 14.2581 4.95628 14.282C4.89866 14.3059 4.8463 14.3409 4.80219 14.385C4.75809 14.4291 4.72311 14.4814 4.69924 14.539C4.67537 14.5967 4.66309 14.6584 4.66309 14.7208V21.3742C4.66309 21.4366 4.67538 21.4983 4.69926 21.5559C4.72313 21.6134 4.75813 21.6657 4.80224 21.7098C4.84636 21.7538 4.89872 21.7887 4.95634 21.8125C5.01396 21.8363 5.0757 21.8485 5.13803 21.8483H11.7517C11.8775 21.8483 11.9982 21.7984 12.0872 21.7095C12.1763 21.6206 12.2264 21.5 12.2266 21.3742V14.7208C12.2264 14.5949 12.1763 14.4742 12.0873 14.3852C11.9982 14.2962 11.8776 14.2461 11.7517 14.2458ZM11.2767 20.8993H5.61215V15.1957H11.2767V20.8993Z" fill="black"/>
<path d="M14.7259 15.7048H25.1383C25.2643 15.7048 25.3851 15.6547 25.4742 15.5657C25.5632 15.4766 25.6133 15.3558 25.6133 15.2298C25.6133 15.1039 25.5632 14.9831 25.4742 14.894C25.3851 14.8049 25.2643 14.7549 25.1383 14.7549H14.7259C14.6 14.7549 14.4792 14.8049 14.3901 14.894C14.301 14.9831 14.251 15.1039 14.251 15.2298C14.251 15.3558 14.301 15.4766 14.3901 15.5657C14.4792 15.6547 14.6 15.7048 14.7259 15.7048Z" fill="black"/>
<path d="M14.7256 18.1698H25.138C25.2604 18.1647 25.3761 18.1124 25.461 18.024C25.5458 17.9356 25.5931 17.8178 25.5931 17.6952C25.5931 17.5727 25.5458 17.4549 25.461 17.3665C25.3761 17.2781 25.2604 17.2258 25.138 17.2207H14.7256C14.6032 17.2258 14.4875 17.2781 14.4027 17.3665C14.3179 17.4549 14.2705 17.5727 14.2705 17.6952C14.2705 17.8178 14.3179 17.9356 14.4027 18.024C14.4875 18.1124 14.6032 18.1647 14.7256 18.1698Z" fill="black"/>
<path d="M18.7966 19.686H14.7259C14.6 19.686 14.4792 19.7361 14.3901 19.8251C14.301 19.9142 14.251 20.035 14.251 20.161C14.251 20.2869 14.301 20.4078 14.3901 20.4968C14.4792 20.5859 14.6 20.6359 14.7259 20.6359H18.7966C18.9225 20.6359 19.0433 20.5859 19.1324 20.4968C19.2215 20.4078 19.2715 20.2869 19.2715 20.161C19.2715 20.035 19.2215 19.9142 19.1324 19.8251C19.0433 19.7361 18.9225 19.686 18.7966 19.686Z" fill="black"/>
</svg>
