<svg width="32" height="32" viewBox="0 0 32 32" fill="none" xmlns="http://www.w3.org/2000/svg">
<g clip-path="url(#clip0_2607_351)">
<path d="M31.0974 8.64312C30.7397 7.31405 29.6919 6.26643 28.363 5.90854C25.9352 5.24413 16.224 5.24413 16.224 5.24413C16.224 5.24413 6.51292 5.24413 4.0851 5.88321C2.78184 6.24086 1.70841 7.31429 1.35076 8.64312C0.711914 11.0707 0.711914 16.1053 0.711914 16.1053C0.711914 16.1053 0.711914 21.1652 1.35076 23.5674C1.70865 24.8963 2.75628 25.9441 4.08534 26.302C6.53848 26.9664 16.2242 26.9664 16.2242 26.9664C16.2242 26.9664 25.9352 26.9664 28.363 26.3273C29.6921 25.9697 30.7397 24.9218 31.0976 23.593C31.7365 21.1652 31.7365 16.1308 31.7365 16.1308C31.7365 16.1308 31.762 11.0707 31.0974 8.64312Z" fill="#FF0000"/>
<path d="M13.1309 20.7564L21.2063 16.1053L13.1309 11.4541V20.7564Z" fill="white"/>
</g>
<defs>
<clipPath id="clip0_2607_351">
<rect width="31.0247" height="31.0247" fill="white" transform="translate(0.711914 0.578262)"/>
</clipPath>
</defs>
</svg>
