<svg width="31" height="39" viewBox="0 0 31 39" fill="none" xmlns="http://www.w3.org/2000/svg">
<path d="M15.5001 6.1127C10.46 6.1127 6.35943 10.0546 6.35943 14.9C6.35943 19.7453 10.4599 23.6872 15.5001 23.6872C20.5403 23.6872 24.6409 19.7453 24.6409 14.9C24.6409 10.0546 20.5404 6.1127 15.5001 6.1127ZM15.5001 22.7571C10.9934 22.7571 7.32698 19.2324 7.32698 14.8999C7.32698 10.5674 10.9934 7.04268 15.5001 7.04268C20.0068 7.04268 23.6733 10.5674 23.6733 14.8999C23.6733 19.2324 20.0069 22.7571 15.5001 22.7571ZM30.8234 12.6544C30.8014 12.5146 30.7144 12.3919 30.587 12.3212L27.9605 10.8633C27.77 10.3226 27.541 9.79278 27.278 9.28376L28.063 6.46742C28.101 6.33091 28.0723 6.18528 27.9851 6.07153C27.0536 4.85554 25.9428 3.78696 24.6835 2.89536C24.5651 2.81155 24.4137 2.78408 24.2717 2.82053L21.3399 3.57516C20.8051 3.31972 20.2539 3.10011 19.6964 2.92043L18.1802 0.394042C18.1067 0.271545 17.9792 0.187972 17.8338 0.166769C16.3093 -0.0554737 14.6948 -0.0557058 13.1642 0.166769C13.0187 0.187895 12.8912 0.271545 12.8176 0.394119L11.3013 2.92066C10.7413 3.10151 10.1899 3.32112 9.65763 3.57532L6.72906 2.82076C6.58691 2.78393 6.43509 2.81148 6.3166 2.89536C5.05412 3.78913 3.94248 4.8577 3.01261 6.07153C2.92551 6.18528 2.89685 6.33091 2.93477 6.46742L3.71976 9.28376C3.45541 9.79541 3.22696 10.3254 3.03893 10.8635L0.410766 12.3212C0.283343 12.3919 0.196328 12.5146 0.174272 12.6544C0.0586007 13.3897 0 14.1452 0 14.8999C0 15.6546 0.0586812 16.4102 0.174353 17.1434C0.196328 17.2832 0.283343 17.4058 0.410766 17.4764L3.03877 18.9339C3.22511 19.4685 3.45372 19.9992 3.72008 20.5159L2.93493 23.3316C2.89669 23.4684 2.92535 23.6142 3.01261 23.7282C3.84662 24.8168 4.83059 25.7887 5.93981 26.6247L4.29054 37.1188C4.26342 37.2916 4.33941 37.4646 4.48736 37.5663C4.63514 37.668 4.83002 37.6814 4.99158 37.601L9.83182 35.1879L13.7138 38.8662C13.8058 38.9533 13.9283 39 14.0535 39C14.1046 39 14.1561 38.9922 14.2062 38.9762C14.3788 38.9208 14.5045 38.7772 14.5317 38.6043L15.4989 32.4428L16.4661 38.6043C16.4932 38.7771 16.6189 38.9208 16.7915 38.9761C16.8416 38.9922 16.8932 39 16.9443 39C17.0694 39 17.1919 38.9533 17.2839 38.8662L21.1681 35.1878L26.0061 37.6008C26.1676 37.6814 26.3624 37.6679 26.5104 37.5663C26.6583 37.4646 26.7343 37.2915 26.7072 37.1187L25.0582 26.6262C26.1655 25.7915 27.1494 24.8191 27.9851 23.7281C28.0722 23.6143 28.1009 23.4686 28.063 23.3323L27.2779 20.5138C27.5423 20.0023 27.7714 19.4723 27.9607 18.9341L30.587 17.4763C30.7143 17.4056 30.8013 17.2831 30.8234 17.1434C30.9406 16.4011 31 15.6462 31 14.8998C31 14.1534 30.9406 13.3987 30.8234 12.6542V12.6544ZM13.7169 37.5633L10.2609 34.2886C10.1115 34.1472 9.88455 34.1142 9.6986 34.2069L5.38922 36.3554L6.8688 26.941L9.65811 26.2225C10.1877 26.4754 10.7389 26.6955 11.3012 26.8786L12.8178 29.4036C12.8913 29.5261 13.0189 29.6098 13.1644 29.6309C13.7527 29.7164 14.3473 29.7698 14.9387 29.7906L14.6454 31.6484L13.717 37.5634L13.7169 37.5633ZM21.3019 34.207C21.1158 34.1143 20.8889 34.1471 20.7396 34.2885L17.2812 37.5636L16.0612 29.7906C16.653 29.7698 17.2471 29.7165 17.834 29.6309C17.9794 29.6098 18.1069 29.5261 18.1804 29.4036L19.6968 26.8788C20.2553 26.6972 20.8072 26.4771 21.3419 26.2224L24.1292 26.9404L25.6088 36.3552L21.3019 34.207ZM29.8998 16.784L27.3173 18.2175C27.2134 18.2752 27.1355 18.3679 27.0987 18.4777C26.8958 19.0836 26.6381 19.6798 26.3327 20.2498C26.2777 20.3526 26.2644 20.4714 26.2955 20.5832L27.0677 23.3545C26.2718 24.3598 25.3406 25.2551 24.2948 26.0202L21.4144 25.278C21.2983 25.248 21.1749 25.2606 21.0681 25.3134C20.4714 25.6077 19.8502 25.8555 19.2217 26.05C19.1075 26.0854 19.0111 26.1603 18.9511 26.2601L17.4599 28.7429C16.1592 28.9122 14.8435 28.9124 13.5381 28.7429L12.047 26.2603C11.9871 26.1605 11.8908 26.0857 11.7768 26.0503C11.1426 25.8533 10.5221 25.6055 9.93284 25.3138C9.82587 25.2609 9.70206 25.2481 9.58591 25.2781L6.70556 26.0203C5.65727 25.2535 4.72522 24.3584 3.93057 23.3549L4.70252 20.5849C4.73351 20.4737 4.72031 20.3552 4.66557 20.2527C4.35768 19.6758 4.10074 19.079 3.90216 18.4791C3.86553 18.3686 3.78729 18.2752 3.68281 18.2174L1.09835 16.7841C1.01166 16.1663 0.967791 15.5336 0.967791 14.9C0.967791 14.2665 1.01174 13.6334 1.09843 13.0138L3.68281 11.5806C3.78713 11.5227 3.86529 11.4295 3.902 11.3192C4.10323 10.7138 4.36001 10.1179 4.66525 9.54802C4.72039 9.4451 4.73359 9.32624 4.70236 9.21442L3.93025 6.44544C4.72683 5.43923 5.65872 4.54338 6.70524 3.77775L9.58655 4.51985C9.70255 4.54964 9.82611 4.53688 9.93284 4.48402C10.5255 4.19059 11.1454 3.94374 11.7754 3.7502C11.8902 3.71492 11.9871 3.63986 12.0472 3.53949L13.5381 1.05512C14.8277 0.888207 16.1751 0.888362 17.4601 1.05504L18.951 3.53957C19.0112 3.64001 19.1083 3.71523 19.2233 3.75036C19.8493 3.94204 20.4691 4.18889 21.0653 4.48402C21.1722 4.53695 21.2958 4.54964 21.4121 4.5197L24.2948 3.77752C25.3388 4.54144 26.27 5.43745 27.0678 6.44544L26.2957 9.21442C26.2645 9.32616 26.2777 9.4451 26.3328 9.54802C26.6363 10.1145 26.894 10.7108 27.099 11.3206C27.1358 11.4302 27.2137 11.5227 27.3174 11.5803L29.8998 13.0138C29.988 13.6407 30.0326 14.2742 30.0326 14.9C30.0326 15.5258 29.988 16.159 29.8999 16.784H29.8998ZM17.4784 12.8312L15.9422 9.50809C15.8646 9.34017 15.6914 9.23191 15.5002 9.23191C15.309 9.23191 15.1358 9.34009 15.0582 9.50809L13.5221 12.8312L9.7593 13.2091C9.56917 13.2282 9.40858 13.3532 9.34942 13.528C9.29041 13.7028 9.34402 13.8946 9.48618 14.0175L12.2992 16.448L11.5109 20.0039C11.4711 20.1836 11.5451 20.3691 11.6997 20.4771C11.8543 20.585 12.0605 20.5953 12.2261 20.5034L15.5002 18.6835L18.7743 20.5034C18.8494 20.5452 18.933 20.5659 19.0163 20.5659C19.1164 20.5659 19.2163 20.536 19.3007 20.4772C19.4553 20.3691 19.5293 20.1837 19.4895 20.004L18.7013 16.4479L21.5121 14.0174C21.6543 13.8945 21.7078 13.7028 21.6487 13.528C21.5896 13.3532 21.429 13.2283 21.2389 13.2091L17.4784 12.8313V12.8312ZM17.8464 15.9361C17.7178 16.0473 17.6607 16.2161 17.6967 16.3787L18.3165 19.1746L15.7423 17.7438C15.6674 17.7021 15.5838 17.6813 15.5002 17.6813C15.4166 17.6813 15.333 17.7021 15.2581 17.7438L12.6839 19.1746L13.3037 16.3787C13.3396 16.216 13.2826 16.0472 13.1539 15.936L10.9425 14.0254L13.9007 13.7283C14.0729 13.711 14.2222 13.6067 14.2925 13.4546L15.5001 10.842L16.7079 13.4546C16.7781 13.6066 16.9275 13.711 17.0996 13.7283L20.0561 14.0254L17.8463 15.9361H17.8464Z" fill="black"/>
</svg>
