<svg width="25" height="24" viewBox="0 0 25 24" fill="none" xmlns="http://www.w3.org/2000/svg">
<g clip-path="url(#clip0_2150_334)">
<path d="M23.7758 6.23879C23.4991 5.21066 22.6885 4.40023 21.6606 4.12338C19.7825 3.60941 12.27 3.60941 12.27 3.60941C12.27 3.60941 4.75779 3.60941 2.87969 4.10379C1.87151 4.38046 1.04113 5.21084 0.764463 6.23879C0.270264 8.11671 0.270264 12.0113 0.270264 12.0113C0.270264 12.0113 0.270264 15.9256 0.764463 17.7839C1.04132 18.8119 1.85174 19.6225 2.87987 19.8993C4.77757 20.4133 12.2702 20.4133 12.2702 20.4133C12.2702 20.4133 19.7825 20.4133 21.6606 19.9189C22.6887 19.6422 23.4991 18.8316 23.776 17.8037C24.2702 15.9256 24.2702 12.0311 24.2702 12.0311C24.2702 12.0311 24.2899 8.11671 23.7758 6.23879Z" fill="#FF0000"/>
<path d="M9.87817 15.6094L16.1252 12.0114L9.87817 8.41335V15.6094Z" fill="white"/>
</g>
<defs>
<clipPath id="clip0_2150_334">
<rect width="24" height="24" fill="white" transform="translate(0.270264)"/>
</clipPath>
</defs>
</svg>
